<svg width="137" height="99" viewBox="0 0 137 99" fill="none" xmlns="http://www.w3.org/2000/svg">
<path d="M129.801 63.3784L85.8587 88.9637C76.4973 94.4143 61.2729 94.4143 51.8504 88.9638L7.62071 63.379C2.87924 60.6362 0.511062 57.0362 0.521358 53.4419L0.506868 58.5338C0.496712 62.1282 2.86492 65.7281 7.60637 68.4708L51.836 94.0557C61.2586 99.5063 76.4828 99.5062 85.8442 94.0556L129.787 68.4703C134.437 65.7625 136.765 62.2194 136.775 58.6708L136.79 53.5789C136.779 57.1274 134.451 60.6705 129.801 63.3784Z" fill="#7A9E9F"/>
<path d="M129.69 43.642C139.112 49.0925 139.162 57.9279 129.801 63.3785L85.8585 88.9639C76.4971 94.4144 61.2727 94.4145 51.8502 88.9639L7.6205 63.3791C-1.802 57.9287 -1.8517 49.0933 7.50962 43.6425L51.4518 18.0574C60.8132 12.6066 76.0376 12.6065 85.4601 18.0571L129.69 43.642Z" fill="#FFF5F9"/>
<path opacity="0.1" d="M121.568 26.1341C120.704 12.2154 111.926 1.07789 97.2976 0.53566C92.9746 0.373866 88.7217 1.20033 84.6796 2.71332C79.4436 4.67233 74.9143 8.15746 69.5423 9.79726C62.0549 12.0842 54.4182 11.3103 46.7113 11.4939C41.4534 11.6207 36.1165 12.2067 31.2756 14.2488C11.034 22.7845 13.483 49.0038 20.0357 65.7604C20.3517 66.5738 20.6852 67.3827 21.0275 68.183H110.886C117.939 55.3007 122.433 40.0483 121.568 26.1341Z" fill="#B8D8D8"/>
<path d="M43.2615 53.9927H32.4253V68.1868H43.2615V53.9927Z" fill="#B8D8D8"/>
<path d="M61.9933 48.8594H51.1001V68.1828H61.9933V48.8594Z" fill="#B8D8D8"/>
<path d="M81.0107 42.6147H69.604V68.1869H81.0107V42.6147Z" fill="#B8D8D8"/>
<path d="M101.362 34.4775H89.4194V68.1831H101.362V34.4775Z" fill="#B8D8D8"/>
<path d="M32.9653 43.0303L32.9302 40.9313C36.0507 40.8788 44.5651 40.0742 54.4621 37.4068C61.7125 35.4522 68.6645 32.811 75.1205 29.562C83.1785 25.5041 90.486 20.4797 96.8368 14.6245L98.2675 16.1681C91.7632 22.1676 84.2801 27.31 76.0334 31.4598C69.4413 34.7744 62.3489 37.468 54.9492 39.4577C42.3399 42.8422 33.3427 43.0215 32.9653 43.0303Z" fill="#B8D8D8"/>
<path d="M99.5971 19.5918L93.0796 13.0981H99.5971V19.5918Z" fill="#B8D8D8"/>
<path d="M85.057 20.4234L82.6299 18.9366C82.608 18.8404 82.586 18.7399 82.5597 18.6437C81.9891 16.6584 79.9132 15.5127 77.9206 16.0812C76.1036 16.6016 74.9889 18.3726 75.239 20.1829L73.4966 22.3037C73.4703 22.3343 73.501 22.3824 73.5405 22.3693L75.7876 21.6784C76.6566 23.0383 78.3507 23.7292 79.9834 23.2613C81.2957 22.8853 82.2437 21.8577 82.5728 20.6289L85.0218 20.5196C85.0877 20.524 85.1052 20.4496 85.057 20.4234Z" fill="white"/>
<path d="M78.9521 23.4747C78.4869 23.4747 78.026 23.3873 77.5828 23.2168C76.841 22.9325 76.2003 22.4122 75.7658 21.7562L73.5669 22.434C73.5186 22.4471 73.4704 22.4296 73.444 22.3903C73.4177 22.3509 73.4177 22.2985 73.4484 22.2635L75.1733 20.1645C75.0548 19.2769 75.261 18.3717 75.7482 17.6108C76.2485 16.8368 77.0122 16.2727 77.9031 16.0147C79.9264 15.4375 82.0419 16.6051 82.6256 18.6209C82.6475 18.704 82.6695 18.7915 82.6914 18.8921L85.0921 20.3657C85.136 20.3919 85.158 20.4488 85.1448 20.4969C85.1316 20.5493 85.0878 20.5843 85.0307 20.5887L82.6256 20.6936C82.2701 21.9574 81.2694 22.9631 80.001 23.3261C79.6631 23.4267 79.3076 23.4747 78.9521 23.4747ZM75.8228 21.6032L75.8491 21.6469C76.7181 23.0069 78.4123 23.6453 79.9703 23.2036C81.2255 22.8451 82.1779 21.8787 82.5159 20.6193L82.529 20.5712L84.9956 20.4619L82.5729 18.9751L82.5685 18.9489C82.5466 18.844 82.5246 18.7477 82.4983 18.6603C81.9365 16.7144 79.8913 15.5862 77.9426 16.1459C76.1915 16.6488 75.0591 18.3804 75.3093 20.1777L75.3137 20.2039L73.602 22.2897L75.8228 21.6032Z" fill="#7A9E9F"/>
<path d="M79.9795 19.4305C79.9795 18.8489 79.4748 18.3854 78.8779 18.451C78.4434 18.4991 78.0835 18.8446 78.0177 19.2775C77.9782 19.5399 78.044 19.7847 78.1801 19.9815C78.2328 20.0558 78.2591 20.1477 78.2591 20.2395V20.8473H79.7294V20.2395C79.7294 20.1477 79.7557 20.0602 79.8084 19.9815C79.9137 19.8285 79.9795 19.6361 79.9795 19.4305Z" fill="white"/>
<path d="M79.7906 20.9178H78.1886V20.2444C78.1886 20.1657 78.1667 20.087 78.1228 20.0214C77.9736 19.8028 77.9121 19.536 77.9516 19.2693C78.0219 18.8101 78.4081 18.4385 78.8689 18.386C79.1674 18.351 79.4702 18.4472 79.694 18.644C79.9179 18.8451 80.0451 19.1294 80.0451 19.4267C80.0451 19.641 79.9793 19.8465 79.8608 20.0214C79.8169 20.0826 79.795 20.1613 79.795 20.24V20.9178H79.7906ZM78.3203 20.7866H79.6589V20.2444C79.6589 20.1351 79.6896 20.0345 79.7467 19.9514C79.852 19.7984 79.9091 19.6191 79.9091 19.4311C79.9091 19.1687 79.795 18.9195 79.6019 18.7445C79.4044 18.5696 79.1454 18.4866 78.8821 18.5172C78.4783 18.5609 78.1404 18.8888 78.0789 19.2868C78.0438 19.5185 78.0965 19.7547 78.2281 19.9427C78.2896 20.0302 78.3203 20.1307 78.3203 20.24V20.7866Z" fill="#7A9E9F"/>
<path d="M79.7252 21.2661H78.2549V21.8083H79.7252V21.2661Z" fill="white"/>
<path d="M79.7909 21.8736H78.189V21.2002H79.7909V21.8736ZM78.3206 21.7424H79.6592V21.3314H78.3206V21.7424Z" fill="#7A9E9F"/>
<path d="M78.6407 19.0146C78.6407 19.0146 78.3555 19.2027 78.4959 19.5525L78.6407 19.0146Z" fill="white"/>
<path d="M78.4343 19.5751C78.3071 19.2602 78.487 19.0328 78.6011 18.9585L78.6713 19.0678L78.6362 19.011L78.6713 19.0678C78.6626 19.0722 78.4343 19.2296 78.5528 19.5226L78.4343 19.5751Z" fill="#7A9E9F"/>
<path d="M76.974 17.8376L76.8975 17.9443L77.7438 18.5467L77.8204 18.4399L76.974 17.8376Z" fill="#7A9E9F"/>
<path d="M80.9406 17.775L80.0942 18.3774L80.1708 18.4842L81.0172 17.8818L80.9406 17.775Z" fill="#7A9E9F"/>
<path d="M78.9365 16.8167L78.9033 17.8525L79.0349 17.8567L79.0681 16.8209L78.9365 16.8167Z" fill="#7A9E9F"/>
<path d="M53.0752 20.9697C51.4601 20.9697 50.1522 22.2728 50.1522 23.882C50.1522 24.2056 50.2048 24.5117 50.3058 24.8003L49.033 26.3395C49.0111 26.3658 49.0374 26.4008 49.0681 26.3876L50.7798 25.6749C51.3152 26.3527 52.1447 26.7899 53.0752 26.7899C54.6903 26.7899 55.9982 25.4868 55.9982 23.8776C55.9982 22.2728 54.6859 20.9697 53.0752 20.9697Z" fill="white"/>
<path d="M53.075 26.8562C52.1709 26.8562 51.3282 26.4539 50.7577 25.7542L49.0943 26.4495C49.0548 26.467 49.0065 26.4539 48.9802 26.4189C48.9538 26.3839 48.9538 26.3358 48.9846 26.3008L50.2354 24.7878C50.1388 24.4905 50.0906 24.1888 50.0906 23.8827C50.0906 22.2429 51.4292 20.9048 53.0794 20.9048C54.7252 20.9048 56.0682 22.2385 56.0682 23.8827C56.0682 25.5268 54.7208 26.8562 53.075 26.8562ZM50.7972 25.5968L50.8279 25.6362C51.3765 26.3271 52.1928 26.725 53.0706 26.725C54.6462 26.725 55.9278 25.4481 55.9278 23.8783C55.9278 22.3085 54.6462 21.0316 53.0706 21.0316C51.495 21.0316 50.2134 22.3085 50.2134 23.8783C50.2134 24.18 50.2617 24.4861 50.3627 24.7791L50.3758 24.8141L49.1689 26.2746L50.7972 25.5968Z" fill="#7A9E9F"/>
<path d="M52.1494 24.0711L52.9833 24.9238L54.0147 22.4531" fill="white"/>
<path d="M53.0052 25.0412L52.1055 24.1186L52.1976 24.0267L52.9613 24.8095L53.9532 22.4307L54.0761 22.4788L53.0052 25.0412Z" fill="#7A9E9F"/>
<path d="M112.124 26.5146C112.124 28.6966 110.346 30.4632 108.156 30.4632C105.966 30.4632 104.193 28.6966 104.193 26.5146C104.193 24.3456 105.944 22.5878 108.117 22.5659C108.103 22.9945 108.09 23.5017 108.081 24.0046C106.725 24.0439 105.637 25.1546 105.637 26.5146C105.637 27.9007 106.769 29.0289 108.16 29.0289C109.552 29.0289 110.684 27.9007 110.684 26.5146C110.684 26.2391 110.64 25.9767 110.557 25.7318L111.935 25.3033C112.058 25.6837 112.124 26.0904 112.124 26.5146Z" fill="#B8D8D8"/>
<path d="M111.931 25.2984L110.552 25.7269C110.223 24.7212 109.275 23.9953 108.156 23.9953C108.13 23.9953 108.103 23.9953 108.077 23.9953C108.086 23.4924 108.099 22.9852 108.112 22.5566C108.125 22.5566 108.139 22.5566 108.152 22.5566C109.925 22.561 111.421 23.7111 111.931 25.2984Z" fill="#7A9E9F"/>
<path opacity="0.3" d="M25.9961 61.5449C27.6855 61.5449 29.0551 60.1803 29.0551 58.4971C29.0551 56.8138 27.6855 55.4492 25.9961 55.4492C24.3066 55.4492 22.937 56.8138 22.937 58.4971C22.937 60.1803 24.3066 61.5449 25.9961 61.5449Z" fill="#7A9E9F"/>
<path d="M25.7367 60.487V60.0235C25.4076 60.0104 25.0916 59.9229 24.9028 59.8136L25.0477 59.2408C25.2539 59.3545 25.5436 59.4551 25.8596 59.4551C26.1405 59.4551 26.3292 59.3457 26.3292 59.1533C26.3292 58.9697 26.1712 58.8516 25.8113 58.7292C25.2891 58.5543 24.9292 58.3094 24.9292 57.8371C24.9292 57.4086 25.232 57.0719 25.7587 56.9669V56.5034H26.2371V56.9319C26.5662 56.9451 26.7857 57.015 26.9481 57.0937L26.8076 57.6447C26.6803 57.5922 26.4565 57.4786 26.101 57.4786C25.7806 57.4786 25.6797 57.6141 25.6797 57.7497C25.6797 57.9115 25.8508 58.012 26.2678 58.1695C26.8515 58.375 27.0841 58.6417 27.0841 59.0834C27.0841 59.5163 26.7769 59.888 26.2107 59.9842V60.4827H25.7367V60.487Z" fill="white"/>
<path opacity="0.3" d="M21.1288 54.1764C22.0184 54.1764 22.7395 53.4579 22.7395 52.5716C22.7395 51.6853 22.0184 50.9668 21.1288 50.9668C20.2392 50.9668 19.5181 51.6853 19.5181 52.5716C19.5181 53.4579 20.2392 54.1764 21.1288 54.1764Z" fill="#7A9E9F"/>
<path d="M20.9926 53.6171V53.3722C20.8214 53.3634 20.6547 53.3197 20.5537 53.2629L20.6327 52.9611C20.7424 53.018 20.8917 53.0748 21.0584 53.0748C21.2033 53.0748 21.3042 53.018 21.3042 52.9174C21.3042 52.8212 21.2208 52.76 21.0321 52.6944C20.7556 52.6026 20.5669 52.4758 20.5669 52.2265C20.5669 51.9991 20.7249 51.8242 21.0014 51.7717V51.5269H21.2559V51.7542C21.4271 51.763 21.5456 51.798 21.629 51.8373L21.5544 52.1259C21.4885 52.0997 21.37 52.0385 21.1813 52.0385C21.0145 52.0385 20.9619 52.1084 20.9619 52.1828C20.9619 52.2659 21.054 52.3227 21.2691 52.4014C21.5763 52.5107 21.6992 52.6507 21.6992 52.8824C21.6992 53.1098 21.5368 53.3066 21.2428 53.3591V53.6214H20.9926V53.6171Z" fill="white"/>
<path opacity="0.3" d="M27.7118 49.9401C28.6014 49.9401 29.3225 49.2216 29.3225 48.3353C29.3225 47.449 28.6014 46.7305 27.7118 46.7305C26.8222 46.7305 26.1011 47.449 26.1011 48.3353C26.1011 49.2216 26.8222 49.9401 27.7118 49.9401Z" fill="#7A9E9F"/>
<path d="M27.5756 49.3793V49.1344C27.4044 49.1256 27.2377 49.0819 27.1367 49.0251L27.2157 48.7233C27.3254 48.7802 27.4747 48.837 27.6414 48.837C27.7863 48.837 27.8872 48.7802 27.8872 48.6796C27.8872 48.5834 27.8038 48.5222 27.6151 48.4566C27.3386 48.3648 27.1499 48.238 27.1499 47.9887C27.1499 47.7613 27.3079 47.5864 27.5844 47.5339V47.2891H27.8389V47.5165C28.0101 47.5252 28.1286 47.5602 28.212 47.5995L28.1374 47.8881C28.0716 47.8619 27.9531 47.8007 27.7643 47.8007C27.5976 47.8007 27.5449 47.8706 27.5449 47.945C27.5449 48.0281 27.6371 48.0849 27.8521 48.1636C28.1593 48.2729 28.2822 48.4129 28.2822 48.6446C28.2822 48.872 28.1198 49.0688 27.8258 49.1213V49.3836H27.5756V49.3793Z" fill="white"/>
<path opacity="0.3" d="M108.327 55.1474C110.126 55.1474 111.584 53.6948 111.584 51.9028C111.584 50.1109 110.126 48.6582 108.327 48.6582C106.529 48.6582 105.071 50.1109 105.071 51.9028C105.071 53.6948 106.529 55.1474 108.327 55.1474Z" fill="#7A9E9F"/>
<path d="M108.055 54.02V53.5258C107.704 53.5083 107.366 53.4165 107.169 53.3028L107.327 52.695C107.546 52.8131 107.854 52.9224 108.192 52.9224C108.49 52.9224 108.692 52.8087 108.692 52.5988C108.692 52.402 108.525 52.2752 108.139 52.1484C107.581 51.9604 107.2 51.7024 107.2 51.1995C107.2 50.7404 107.524 50.3862 108.082 50.2768V49.7827H108.591V50.2419C108.942 50.2594 109.175 50.3293 109.346 50.4124L109.197 50.9984C109.061 50.9415 108.819 50.8234 108.446 50.8234C108.108 50.8234 107.998 50.9677 107.998 51.1164C107.998 51.287 108.183 51.3963 108.626 51.5624C109.245 51.7811 109.495 52.0653 109.495 52.5332C109.495 52.9967 109.166 53.3903 108.569 53.4952V54.0243H108.055V54.02Z" fill="white"/>
<path opacity="0.3" d="M112.083 44.0962C112.861 43.3209 112.861 42.0639 112.083 41.2886C111.305 40.5133 110.044 40.5133 109.265 41.2886C108.487 42.0639 108.487 43.3209 109.265 44.0962C110.044 44.8714 111.305 44.8714 112.083 44.0962Z" fill="#7A9E9F"/>
<path d="M110.505 43.9886V43.6869C110.29 43.6781 110.083 43.6213 109.96 43.5513L110.057 43.1796C110.193 43.254 110.377 43.3196 110.588 43.3196C110.768 43.3196 110.895 43.2496 110.895 43.1228C110.895 43.0004 110.794 42.926 110.557 42.8473C110.215 42.7336 109.982 42.5762 109.982 42.2657C109.982 41.9859 110.18 41.7672 110.522 41.7016V41.3999H110.834V41.6798C111.049 41.6885 111.189 41.7322 111.295 41.7847L111.203 42.1433C111.119 42.1083 110.974 42.034 110.742 42.034C110.535 42.034 110.465 42.1214 110.465 42.2132C110.465 42.3182 110.575 42.3838 110.847 42.4844C111.224 42.6199 111.378 42.7905 111.378 43.0791C111.378 43.3633 111.176 43.6038 110.812 43.665V43.9886H110.505Z" fill="white"/>
<path d="M70.5919 24.0308C70.6446 24.057 71.3687 24.8572 71.0527 25.0103C70.7324 25.1633 70.3022 25.0977 70.3022 25.0977L70.5919 24.0308Z" fill="#D28572"/>
<path d="M67.3968 25.7354L66.5146 28.3197L68.8583 29.5484L69.464 26.1027L67.3968 25.7354Z" fill="#FFBC96"/>
<path d="M69.4157 26.2249L69.1085 28.0615C68.336 27.0951 68.0156 26.015 68.0156 26.015L68.4501 25.9888L69.4157 26.2249Z" fill="#D28572"/>
<path d="M70.574 22.8412C70.574 22.8412 71.1007 26.4706 70.0913 26.7418C69.0818 27.0129 67.3965 25.736 67.3965 25.736L67.9012 22.7144L69.3759 22.2334L70.574 22.8412Z" fill="#FFBC96"/>
<path d="M70.5747 22.8411C70.5747 22.8411 69.6267 22.465 68.9947 24.0786L68.6787 24.6252L67.1206 24.459L67.3752 22.4869L68.7445 21.8179C68.7445 21.8135 70.2806 20.7859 70.5747 22.8411Z" fill="#1B1B43"/>
<path d="M68.8099 22.0234C68.8099 22.0234 68.0155 21.4593 66.7559 22.7143C65.4919 23.9737 66.1371 26.4749 67.4845 26.4487C68.7967 26.4224 68.4325 25.1281 68.3491 24.8963C68.2613 24.6646 68.8099 22.0234 68.8099 22.0234Z" fill="#1B1B43"/>
<path d="M68.9806 25.1088C69.2703 24.9422 69.3499 24.5392 69.1584 24.2087C68.9669 23.8783 68.5769 23.7455 68.2872 23.9121C67.9975 24.0788 67.9179 24.4817 68.1094 24.8122C68.3009 25.1426 68.691 25.2754 68.9806 25.1088Z" fill="#FFBC96"/>
<path d="M68.8056 24.769C68.8056 24.7646 68.8012 24.5504 68.6695 24.4279C68.6037 24.3667 68.5072 24.3405 68.393 24.3536L68.3799 24.2224C68.5335 24.2093 68.6608 24.2443 68.7573 24.3317C68.9329 24.4891 68.9329 24.7559 68.9329 24.769H68.8056H68.8714H68.8056Z" fill="#1B1B43"/>
<path opacity="0.4" d="M69.784 25.3822C70.0628 25.3822 70.2887 25.1571 70.2887 24.8793C70.2887 24.6016 70.0628 24.3765 69.784 24.3765C69.5053 24.3765 69.2793 24.6016 69.2793 24.8793C69.2793 25.1571 69.5053 25.3822 69.784 25.3822Z" fill="#FE5B52"/>
<path d="M66.6422 23.3437C66.8145 22.7423 66.4649 22.1155 65.8612 21.9438C65.2575 21.7721 64.6284 22.1205 64.4561 22.722C64.2837 23.3234 64.6334 23.9502 65.2371 24.1219C65.8408 24.2936 66.4699 23.9452 66.6422 23.3437Z" fill="#1B1B43"/>
<path d="M67.7997 65.608C67.611 64.8996 67.4881 63.6533 67.4881 63.6533L65.083 63.802L65.1401 65.3543C65.7457 65.7435 66.9307 66.3819 68.1947 66.3907C68.0236 66.1633 67.8787 65.9053 67.7997 65.608Z" fill="#D28572"/>
<path d="M69.6958 67.759C69.393 67.4311 68.6732 67.0244 68.1948 66.3904C66.9308 66.3816 65.7458 65.7432 65.1401 65.354L65.2455 68.1526H65.7239L65.9872 66.8233C65.9872 66.8233 67.5847 68.1045 68.7039 68.1701C69.8275 68.2357 69.8757 67.9558 69.6958 67.759Z" fill="#1B1B43"/>
<path d="M63.9599 41.0234C63.4026 41.5088 64.4032 59.0481 64.7499 64.3698L68.0636 64.3217L67.5193 41.7143L63.9599 41.0234Z" fill="#1B1B43"/>
<path d="M70.0253 65.608C69.8366 64.8996 69.7137 63.6533 69.7137 63.6533L67.3086 63.802L67.3656 65.3543C67.9713 65.7435 69.1563 66.3819 70.4203 66.3907C70.2448 66.1633 70.1043 65.9053 70.0253 65.608Z" fill="#FFBC96"/>
<path d="M71.9214 67.759C71.6186 67.4311 70.8988 67.0244 70.4204 66.3904C69.1564 66.3816 67.9714 65.7432 67.3657 65.354L67.4711 68.1526H67.9494L68.2128 66.8233C68.2128 66.8233 69.8103 68.1045 70.9295 68.1701C72.0531 68.2357 72.1013 67.9558 71.9214 67.759Z" fill="#1B1B43"/>
<path d="M65.0483 41.3208L66.918 64.3699L70.3852 64.4704C70.3852 64.4704 70.5344 45.9035 69.7444 41.6182L65.0483 41.3208Z" fill="#5254CF"/>
<path d="M70.0914 52.546C70.0826 52.546 70.0738 52.546 70.0694 52.546L69.7227 52.5154L69.7359 52.3842L70.0826 52.4148C70.1572 52.4192 70.223 52.3754 70.2406 52.3011C70.2537 52.2574 70.2406 52.2093 70.2142 52.1743C70.1879 52.1393 70.144 52.1174 70.1001 52.1174L68.9897 52.0999V51.9688L70.1001 51.9862C70.1879 51.9862 70.2669 52.0256 70.3196 52.0956C70.3722 52.1655 70.3898 52.2486 70.3679 52.3317C70.3327 52.4585 70.2186 52.546 70.0914 52.546Z" fill="#1B1B43"/>
<path d="M66.7471 27.6912L66.9797 26.6636C66.9797 26.6636 68.0945 27.1796 68.8011 27.7218C69.0995 27.9492 69.2882 28.2946 69.3146 28.6707L69.3804 29.5934L67.401 29.0511L66.7471 27.6912Z" fill="#FED3D1"/>
<path d="M79.1895 39.1036C78.0747 39.0511 77.254 38.6575 76.6176 38.0541L76.5825 36.3618L79.4836 36.5936L80.2911 37.3501L79.1895 39.1036Z" fill="#D28572"/>
<path d="M72.2812 38.627C72.2812 38.627 73.5189 38.3472 73.633 35.9858L72.5446 36.8385L72.2812 38.627Z" fill="#1B1B43"/>
<path d="M66.7467 27.6904L68.5418 28.6175C69.2001 28.9542 69.6741 29.5664 69.8365 30.2835C70.3412 32.5355 71.2585 37.8091 70.3412 43.5506C70.3412 43.5506 66.6326 43.4369 63.0732 41.3161L64.4689 30.817C64.5918 29.9074 65.0526 29.0766 65.768 28.4907L66.7467 27.6904Z" fill="#FE5B52"/>
<path d="M72.5796 35.9326L75.8273 36.0769C76.1565 36.09 76.4813 36.1775 76.7753 36.3349C77.2274 36.5798 77.6619 36.8771 78.07 37.2313C78.3114 37.4369 78.3685 37.7867 78.2105 38.0578C78.171 38.1278 78.1183 38.1934 78.0525 38.2458L77.6575 38.5694C77.6224 38.5957 77.5873 38.6219 77.5478 38.6394L76.9816 38.9411C76.8938 38.9848 76.8017 39.0154 76.7051 39.0198C76.4023 39.0329 75.722 38.9805 75.1822 38.3901L71.0303 37.9222L71.7237 36.3699L72.5796 35.9326Z" fill="#FFBC96"/>
<path d="M79.4832 36.5895L77.5258 35.9467C77.4292 35.9161 77.3327 35.9117 77.2317 35.9292C76.7665 36.0254 75.3928 36.3446 75.6298 36.7119C75.801 36.983 77.1791 36.5545 77.1791 36.5545L79.4832 36.5895Z" fill="#D28572"/>
<path d="M74.7611 38.5355C74.6382 38.4524 74.6075 38.2906 74.6909 38.1682L74.9893 37.7309C75.0727 37.6084 75.2351 37.5778 75.358 37.6609C75.4809 37.744 75.5116 37.9058 75.4282 38.0282L75.1298 38.4655C75.0508 38.588 74.884 38.6186 74.7611 38.5355Z" fill="#D28572"/>
<path d="M75.1385 38.754C75.0157 38.6709 74.9849 38.5091 75.0683 38.3867L75.4677 37.8051C75.5511 37.6827 75.7135 37.6521 75.8364 37.7351C75.9593 37.8182 75.99 37.98 75.9066 38.1025L75.5072 38.684C75.4238 38.8065 75.2614 38.8371 75.1385 38.754Z" fill="#D28572"/>
<path d="M75.5995 38.9642C75.4766 38.8811 75.4459 38.7193 75.5293 38.5969L75.8277 38.1596C75.9111 38.0372 76.0735 38.0065 76.1964 38.0896C76.3193 38.1727 76.35 38.3345 76.2666 38.4569L75.9681 38.8942C75.8848 39.0167 75.718 39.0473 75.5995 38.9642Z" fill="#D28572"/>
<path d="M76.0164 39.1438L75.9988 39.1307C75.8979 39.0607 75.8716 38.9251 75.9418 38.8246L76.1568 38.5141C76.2271 38.4135 76.3631 38.3873 76.4641 38.4573L76.4816 38.4704C76.5826 38.5403 76.6089 38.6759 76.5387 38.7765L76.3236 39.0869C76.2578 39.1875 76.1173 39.2137 76.0164 39.1438Z" fill="#D28572"/>
<path d="M68.3269 29.5657C68.3269 29.5657 69.4812 28.9098 69.7753 35.246L73.6331 35.985C72.9879 36.7852 72.5359 37.6641 72.2813 38.6261L68.9984 38.2763C68.542 38.2282 68.1119 38.0358 67.7695 37.7253C67.3658 37.358 67.1156 36.8464 67.0717 36.2998L66.6416 30.7463L68.3269 29.5657Z" fill="#FE5B52"/>
<path d="M72.3341 38.6975L68.8405 38.3433C68.2656 38.2864 67.7257 37.9935 67.3659 37.5474C67.0718 37.1889 66.9006 36.7341 66.8831 36.2706L66.7075 32.217L66.8392 32.2126L67.0147 36.2662C67.0323 36.6991 67.1947 37.1276 67.4712 37.4643C67.8135 37.8841 68.3182 38.1552 68.8581 38.2121L72.2331 38.5575C72.5623 37.1889 73.2689 36.3012 73.5059 36.0257L69.7183 35.2998L69.0468 30.7958L69.1785 30.7783L69.8368 35.1949L73.7692 35.947L73.6815 36.0344C73.6727 36.0432 72.7291 36.9965 72.3472 38.645L72.3341 38.6975Z" fill="#1B1B43"/>
<path d="M67.2868 39.4083L67.2573 39.5361L69.4217 40.0315L69.4512 39.9037L67.2868 39.4083Z" fill="#1B1B43"/>
<path d="M78.0834 38.2162L77.6753 37.4859L77.2671 37.2848L77.3066 37.2061L77.7367 37.4203L78.158 38.1724L78.0834 38.2162Z" fill="#D28572"/>
<path d="M77.2267 37.7671L77.1514 37.812L77.6176 38.5889L77.6929 38.544L77.2267 37.7671Z" fill="#D28572"/>
<path d="M76.692 38.0635L76.6167 38.1084L77.0829 38.8853L77.1583 38.8404L76.692 38.0635Z" fill="#D28572"/>
<path d="M85.136 63.8451L85.1009 66.3375L82.3359 68.1435H87.5763L87.7738 63.5171L85.136 63.8451Z" fill="#003A70"/>
<path d="M85.156 66.2664L85.0532 66.4082L85.9178 67.0303L86.0206 66.8885L85.156 66.2664Z" fill="#FEFEFE"/>
<path d="M96.0953 62.7964L96.6878 65.9973L98.5663 68.1443H94.6602L93.9009 63.5179L96.0953 62.7964Z" fill="#003A70"/>
<path d="M96.6172 65.9297L95.9639 66.6616L96.095 66.7779L96.7484 66.046L96.6172 65.9297Z" fill="#FEFEFE"/>
<path d="M85.5971 40.3315C85.5971 40.3315 83.982 46.8339 84.4779 64.2683H88.2348C88.2348 64.2683 89.2223 49.6893 90.6092 39.8374L85.5971 40.3315Z" fill="#2E3048"/>
<path d="M94.1334 39.7422L97.0828 63.8276L93.2118 64.466L88.542 39.7903L94.1334 39.7422Z" fill="#2E3048"/>
<path d="M90.583 50.8802L89.5384 44.9201L88.2964 44.6971L88.3183 44.5659L89.6526 44.8064L89.6613 44.8545L90.7147 50.8584L90.583 50.8802Z" fill="#1B1B43"/>
<path d="M84.7193 54.6329C84.6666 54.6329 84.6139 54.6154 84.57 54.5805C84.5218 54.5411 84.491 54.4842 84.4823 54.4187C84.4691 54.2962 84.5569 54.1825 84.6754 54.1607L85.7594 53.9683L85.7814 54.0994L84.6973 54.2919C84.6447 54.3006 84.6052 54.3531 84.6095 54.4055C84.6139 54.4318 84.6271 54.458 84.649 54.4755C84.671 54.493 84.6973 54.5017 84.728 54.4974L85.1933 54.4493L85.2064 54.5805L84.7412 54.6286C84.7368 54.6329 84.728 54.6329 84.7193 54.6329Z" fill="#1B1B43"/>
<path d="M91.4781 54.378C91.4254 54.378 91.3727 54.3606 91.3288 54.3256C91.2806 54.2862 91.2498 54.2294 91.2411 54.1638C91.2279 54.0413 91.3157 53.9276 91.4342 53.9058L92.5182 53.7134L92.5402 53.8446L91.4561 54.037C91.4034 54.0457 91.3639 54.0982 91.3683 54.1507C91.3727 54.1769 91.3859 54.2031 91.4078 54.2206C91.4298 54.2381 91.4561 54.2469 91.4868 54.2425L91.9521 54.1944L91.9652 54.3256L91.5 54.3737C91.4956 54.3737 91.4868 54.378 91.4781 54.378Z" fill="#1B1B43"/>
<path d="M89.3141 27.2314L85.961 35.8021L85.5967 40.3324L92.812 40.8265L91.7631 27.297L89.3141 27.2314Z" fill="#C2DDE0"/>
<path opacity="0.2" d="M85.7329 34.7922C86.2903 34.8359 86.8389 34.7791 87.37 34.6654C87.901 34.5473 88.4101 34.3637 88.8885 34.1188C89.1211 33.9832 89.3669 33.8652 89.582 33.7034C89.6917 33.6247 89.8102 33.5591 89.9155 33.4716C90.0209 33.3842 90.1262 33.3011 90.2359 33.218C90.3456 33.1393 90.4422 33.0431 90.5431 32.9513L90.8504 32.6758C91.0479 32.4834 91.2322 32.2779 91.4385 32.0854C91.2936 32.326 91.1444 32.5621 90.982 32.7895L90.7099 33.1131C90.6177 33.2224 90.5256 33.3273 90.4202 33.4235C90.0252 33.8302 89.5512 34.1582 89.0509 34.4336C88.5374 34.6873 87.9844 34.8666 87.4182 34.9365C86.8477 35.0021 86.264 34.9759 85.7329 34.7922Z" fill="#1B1B43"/>
<path d="M89.3143 27.2314C89.3143 27.2314 87.9274 29.2429 86.5975 43.8525C86.5888 43.9312 86.4966 43.9749 86.4308 43.9268L84.2275 42.3526L86.1543 29.842L89.3143 27.2314Z" fill="#1B1B43"/>
<path d="M89.3141 27.2314L86.3867 28.0229C85.9391 28.1454 85.5879 28.4908 85.4607 28.9412L83.5339 35.8546L79.4786 36.5936L79.1802 39.1036L84.4381 38.8587C85.0657 38.8281 85.5879 38.3777 85.7064 37.7612L87.1372 30.288L89.3141 27.2314Z" fill="#1B1B43"/>
<path d="M91.7632 27.2974C91.7632 27.2974 90.2227 37.8664 90.2665 43.9009L95.0943 43.6823L95.1031 33.5374L91.7632 27.2974Z" fill="#1B1B43"/>
<path d="M95.2477 42.8342L88.3221 41.9159C88.2124 41.9028 88.1378 41.8022 88.1509 41.6929L88.8356 36.5505C88.8488 36.4411 88.9497 36.3668 89.0594 36.3799L95.9851 37.2982C96.0948 37.3113 96.1694 37.4119 96.1562 37.5212L95.4716 42.6636C95.4584 42.773 95.3575 42.8473 95.2477 42.8342Z" fill="#CBCBFF"/>
<path d="M92.5449 40.0132C92.5405 40.0132 92.5405 40.0132 92.5361 40.0132L91.6451 39.8951C91.6276 39.8908 91.61 39.882 91.6012 39.8689C91.5881 39.8558 91.5837 39.8339 91.5881 39.8164L91.6758 39.1561C91.6802 39.1387 91.689 39.1212 91.7022 39.1124C91.7153 39.0993 91.7329 39.0949 91.7549 39.0993L92.6458 39.2174C92.6633 39.2217 92.6809 39.2305 92.6897 39.2436C92.7028 39.2567 92.7072 39.2742 92.7028 39.2961L92.6151 39.9564C92.6107 39.9739 92.6019 39.9913 92.5887 40.0001C92.5756 40.0088 92.558 40.0132 92.5449 40.0132ZM91.6758 39.8121L92.5273 39.9258L92.6107 39.3004L91.7592 39.1868L91.6758 39.8121Z" fill="white"/>
<path d="M93.2773 39.313L93.0666 39.6147C92.9218 39.8202 92.7199 39.9733 92.4829 40.0564C92.0045 40.2182 91.017 40.5243 91.1487 40.826C91.2233 41.0009 92.1406 40.7648 92.1406 40.7648C92.1406 40.7648 91.0829 42.011 91.5217 42.3871C91.6446 42.492 91.8553 42.5795 92.0967 42.6363C92.4127 42.7107 92.7199 42.6888 92.9437 42.6538C93.1676 42.6188 93.3651 42.5095 93.5143 42.339C93.6547 42.1772 93.8435 41.941 94.0059 41.6612C94.4579 40.8872 94.7125 40.2838 94.8222 39.8815L93.2773 39.313Z" fill="#D28572"/>
<path d="M91.7632 27.2974L93.9401 27.7784C94.537 27.9096 95.0241 28.3293 95.248 28.8934L97.4292 33.9003C97.7628 34.6612 97.7101 35.5357 97.2888 36.2529L94.8266 40.4639L92.9131 39.445L94.7257 34.9148L91.7632 27.2974Z" fill="#1B1B43"/>
<path d="M90.3764 28.8413C89.7049 28.8413 89.209 28.4521 89.2002 28.4477L89.2836 28.3472C89.2924 28.3559 90.1701 29.0424 91.1401 28.5177L91.2015 28.6314C90.9163 28.7844 90.6354 28.8413 90.3764 28.8413Z" fill="#1B1B43"/>
<path d="M85.902 30.2938L84.167 42.3447L84.2973 42.3634L86.0324 30.3124L85.902 30.2938Z" fill="#5254CF"/>
<path d="M92.9744 39.4751L92.8516 39.4227L94.9056 34.6301L93.3651 30.9832L93.488 30.9351L95.0504 34.6301L92.9744 39.4751Z" fill="#5254CF"/>
<path d="M92.0722 41.6724L91.5737 42.4028L91.6463 42.452L92.1448 41.7216L92.0722 41.6724Z" fill="#925D4F"/>
<path d="M92.539 41.8931L92.0405 42.6235L92.1131 42.6727L92.6116 41.9423L92.539 41.8931Z" fill="#925D4F"/>
<path d="M93.2364 41.9102L92.7378 42.6406L92.8104 42.6898L93.309 41.9594L93.2364 41.9102Z" fill="#925D4F"/>
<path d="M88.6246 23.1436C88.6246 23.1436 87.5449 24.0662 87.8829 24.3723C88.2208 24.6784 88.6861 24.7396 88.6861 24.7396L88.6246 23.1436Z" fill="#925D4F"/>
<path d="M88.6246 23.1436C88.6246 23.1436 87.5449 24.0662 87.8829 24.3723C88.2208 24.6784 88.6861 24.7396 88.6861 24.7396L88.6246 23.1436Z" fill="url(#paint0_linear_5301_5)"/>
<path d="M91.8332 24.2139L91.763 27.3011C90.5385 28.5692 89.314 27.2311 89.314 27.2311L89.4017 26.597L89.4412 26.3172L89.6168 25.0578L89.6607 24.7255L90.9379 24.4281L91.8332 24.2139Z" fill="#D28572"/>
<path d="M91.8332 24.2139L91.763 27.3011C90.5385 28.5692 89.314 27.2311 89.314 27.2311L89.4017 26.597L89.4412 26.3172L89.6168 25.0578L89.6607 24.7255L90.9379 24.4281L91.8332 24.2139Z" fill="url(#paint1_linear_5301_5)"/>
<path d="M88.5636 22.0673C88.5636 22.0673 87.8526 25.876 88.8094 25.8148C89.7662 25.7536 91.5525 24.7697 91.5525 24.7697L91.7675 22.9594L90.9644 21.7612L89.5775 21.7918L88.5636 22.0673Z" fill="#D28572"/>
<path d="M88.5636 22.0673C88.5636 22.0673 87.8526 25.876 88.8094 25.8148C89.7662 25.7536 91.5525 24.7697 91.5525 24.7697L91.7675 22.9594L90.9644 21.7612L89.5775 21.7918L88.5636 22.0673Z" fill="url(#paint2_linear_5301_5)"/>
<path d="M90.758 23.917C90.758 23.917 91.5655 25.3119 91.9737 25.2638C92.3775 25.2157 93.106 22.6402 92.2151 21.5688C91.3241 20.4975 89.3009 21.1097 89.1385 21.1097C88.9761 21.1097 88.0764 21.0878 87.4619 21.0747C87.4619 21.0747 87.9579 22.9069 89.9943 22.3516C89.9943 22.3516 90.2357 23.2392 90.7229 23.3529L90.758 23.917Z" fill="#1B1B43"/>
<path d="M91.3034 23.7558C91.4297 23.3878 91.2885 23.0066 90.988 22.9043C90.6876 22.8019 90.3417 23.0172 90.2154 23.3851C90.0892 23.753 90.2304 24.1342 90.5308 24.2366C90.8313 24.3389 91.1772 24.1237 91.3034 23.7558Z" fill="#D28572"/>
<path d="M91.3034 23.7558C91.4297 23.3878 91.2885 23.0066 90.988 22.9043C90.6876 22.8019 90.3417 23.0172 90.2154 23.3851C90.0892 23.753 90.2304 24.1342 90.5308 24.2366C90.8313 24.3389 91.1772 24.1237 91.3034 23.7558Z" fill="url(#paint3_linear_5301_5)"/>
<path d="M90.4989 23.9562C90.4945 23.9474 90.4418 23.7157 90.5691 23.5277C90.6525 23.4052 90.7841 23.3265 90.9685 23.2959L90.9904 23.4271C90.8456 23.4489 90.7403 23.5102 90.6788 23.5976C90.5823 23.7419 90.6261 23.9212 90.6261 23.9256L90.4989 23.9562Z" fill="#1B1B43"/>
<path d="M47.5011 51.3165L44.1875 50.0527C44.5518 51.9986 44.7493 63.3286 44.7756 65.0121L47.0754 65.445C47.466 60.1014 47.5011 51.3165 47.5011 51.3165Z" fill="#FFBC96"/>
<path d="M49.4105 67.9337C48.3879 66.7006 47.9446 67.0942 47.0712 65.485C47.0756 65.4718 47.0756 65.4587 47.08 65.4456L44.7758 65.0127C44.7802 65.1483 44.7802 65.2226 44.7802 65.2226L44.7144 68.1786H45.342L45.7062 66.8493L47.2072 68.1786H49.2525C49.3797 68.1786 49.4939 68.0299 49.4105 67.9337Z" fill="#FE5B52"/>
<path d="M43.6742 51.2346L40.58 49.5073C40.659 51.4838 39.2151 62.7263 39 64.3967L41.212 65.1576C42.3707 59.9233 43.6742 51.2346 43.6742 51.2346Z" fill="#FFBC96"/>
<path d="M43.1654 67.9515C42.3315 66.5872 41.8355 66.9108 41.2035 65.1923C41.2079 65.1792 41.2123 65.1661 41.2167 65.153L39.0047 64.3921C38.9871 64.5276 38.9784 64.602 38.9784 64.602L38.4868 67.5186L39.1056 67.6105L39.6586 66.3467L41.0806 68.144L42.9766 68.1702C43.0951 68.1921 43.2312 68.0609 43.1654 67.9515Z" fill="#FE5B52"/>
<path d="M40.1322 40.8271C40.1322 40.8271 39.4388 46.984 40.4306 51.5143C40.4306 51.5143 44.1393 52.6949 47.5011 51.3175C47.5011 51.3175 47.7996 41.6142 46.461 40.1362L40.1322 40.8271Z" fill="#1B1B43"/>
<path d="M43.8759 50.4816C42.0282 50.4816 40.4262 50.2236 40.3999 50.2193L40.4218 50.0881C40.4657 50.0968 44.9556 50.8183 47.5406 49.8301L47.5889 49.9525C46.5224 50.3592 45.1399 50.4816 43.8759 50.4816Z" fill="#5254CF"/>
<path d="M43.9858 43.5599C43.9463 43.2582 43.5908 40.6214 43.5908 40.4902H43.7225C43.7225 40.5821 43.9595 42.3662 44.1175 43.5425L43.9858 43.5599Z" fill="#5254CF"/>
<path d="M46.8607 53.8277C46.8475 53.8277 46.5095 53.8233 46.3077 53.5741C46.255 53.5041 46.2725 53.4473 46.2857 53.421C46.3208 53.3467 46.4262 53.2767 46.944 53.2549C47.2118 53.2461 47.4663 53.2549 47.4751 53.2549L47.4707 53.4298C47.0713 53.4167 46.6061 53.4385 46.47 53.491C46.6193 53.6484 46.8563 53.6484 46.8607 53.6484V53.8277Z" fill="#D28572"/>
<path d="M42.6473 54.1768C42.6341 54.1768 42.2962 54.1725 42.0943 53.9232C42.0416 53.8532 42.0592 53.7964 42.0723 53.7702C42.1074 53.6958 42.2128 53.6258 42.7307 53.604C42.9984 53.5952 43.2529 53.604 43.2617 53.604L43.2573 53.7789C42.8579 53.7658 42.3927 53.7876 42.2567 53.8401C42.4059 53.9975 42.6429 53.9975 42.6473 53.9975V54.1768Z" fill="#D28572"/>
<path d="M45.4125 29.5449L46.4747 30.7781C46.9662 31.3509 47.2164 32.0943 47.1637 32.8464L46.8389 37.674C46.8389 37.674 46.9399 40.1708 47.269 40.5644C47.5982 40.9579 46.6414 41.3209 45.2897 41.5483C43.9379 41.78 39.7553 41.745 39.5534 41.1197C39.3559 40.4944 40.3785 40.0703 40.0493 38.5267L40.7077 31.434L41.5811 29.9254L43.872 29.8248L45.4125 29.5449Z" fill="#CBCBFF"/>
<path d="M44.7539 39.4407L46.3339 33.603L51.0607 33.8566L49.3271 39.6462L44.7539 39.4407Z" fill="#5254CF"/>
<path d="M43.3801 36.7854C43.3801 36.7854 45.6975 36.1951 46.3382 36.3175C46.979 36.4399 47.2511 36.886 47.1282 37.0084C47.0054 37.1308 46.7332 37.109 46.7332 37.109C46.7332 37.109 46.6104 38.2678 46.1627 38.4383C45.7194 38.6088 42.4234 39.1861 42.4234 39.1861L42.0591 38.2415L43.3801 36.7854Z" fill="#FFBC96"/>
<path d="M43.3804 36.7862L42.4236 39.1825L39.3558 39.2044H39.347C38.6009 39.2044 37.9294 38.7452 37.6661 38.0499C37.5256 37.6739 37.5125 37.2672 37.6353 36.8824L39.4348 31.1803C39.4436 31.154 39.4523 31.1234 39.4611 31.0972C39.6191 30.6993 39.9483 30.3932 40.3652 30.2751L41.5853 29.9209L41.5722 30.0127L40.5496 36.6506L43.3804 36.7862Z" fill="#CBCBFF"/>
<path d="M43.9552 31.7226C43.7928 31.7226 43.6567 31.5914 43.6567 31.4253C43.6567 31.2635 43.7884 31.1279 43.9552 31.1279C44.1176 31.1279 44.2536 31.2591 44.2536 31.4253C44.2492 31.5914 44.1176 31.7226 43.9552 31.7226ZM43.9552 31.2635C43.863 31.2635 43.7884 31.3378 43.7884 31.4297C43.7884 31.5215 43.863 31.5958 43.9552 31.5958C44.0473 31.5958 44.122 31.5215 44.122 31.4297C44.1176 31.3378 44.043 31.2635 43.9552 31.2635Z" fill="#5254CF"/>
<path d="M42.4676 39.2523L40.0581 39.2436V39.1124L42.3798 39.1211L43.2883 36.8473L40.4619 36.7161L41.2694 33.3271L41.3967 33.3578L40.6287 36.5936L43.477 36.7248L42.4676 39.2523Z" fill="#5254CF"/>
<path d="M48.0453 33.4019L47.9312 34.0622L49.3795 34.1452L49.4717 33.5024L48.0453 33.4019Z" fill="#1B1B43"/>
<path d="M46.7161 37.1485L46.3254 36.9649L45.7681 37.0217L45.7593 36.9343L46.343 36.873L46.7512 37.0698L46.7161 37.1485Z" fill="#D28572"/>
<path d="M46.2037 37.3399L46.1597 37.4155L46.6113 37.6768L46.6554 37.6012L46.2037 37.3399Z" fill="#D28572"/>
<path d="M46.0102 37.7885L45.9639 37.8628L46.4448 38.1605L46.4911 38.0862L46.0102 37.7885Z" fill="#D28572"/>
<path d="M49.7925 38.0673C49.7925 38.0673 49.042 36.4624 49.2658 36.2963C49.3975 36.1957 49.5467 36.3313 49.5467 36.3313C49.5467 36.3313 49.3316 35.8371 49.4984 35.7584C49.6652 35.6753 49.7793 35.859 49.7793 35.859C49.7793 35.859 49.7969 35.4829 49.9285 35.4829C50.0602 35.4829 50.2094 35.7147 50.2094 35.7147C50.2094 35.7147 50.1919 35.4523 50.3762 35.4348C50.5561 35.4173 50.9687 36.27 51.0521 37.009C51.1267 37.6956 51.1004 38.8981 49.6169 38.7494L49.7925 38.0673Z" fill="#FFBC96"/>
<path d="M49.5826 36.3129L49.5005 36.3438L49.7745 37.068L49.8566 37.0371L49.5826 36.3129Z" fill="#D28572"/>
<path d="M49.816 35.8385L49.7344 35.8706L50.0951 36.7817L50.1767 36.7497L49.816 35.8385Z" fill="#D28572"/>
<path d="M50.2281 35.655L50.147 35.6885L50.5228 36.5935L50.6039 36.5601L50.2281 35.655Z" fill="#D28572"/>
<path d="M44.903 29.7328L42.4014 29.8203L42.7525 26.0815L44.3061 27.0436L44.7363 27.3059L44.846 28.7927L44.903 29.7328Z" fill="#FFBC96"/>
<path d="M44.8463 28.7936C43.6965 28.5749 43.0688 27.2193 43.0688 27.2193L44.3065 27.0444L44.7366 27.3112L44.8463 28.7936Z" fill="#D28572"/>
<path d="M45.8163 24.1568C45.8163 24.1568 46.6063 27.8868 45.1667 27.9131C43.7272 27.9349 42.3096 27.0779 42.3096 27.0779L42.3447 25.0707L43.2225 24.2355L44.6401 23.7808L45.8163 24.1568Z" fill="#FFBC96"/>
<path d="M46.0708 24.3365C46.0181 24.4721 45.9303 24.5989 45.7987 24.6601C45.4344 24.8307 44.9955 24.4415 44.6181 24.577C44.2406 24.717 44.2099 25.2461 43.9071 25.5084C43.6218 25.7533 43.1873 25.6921 42.823 25.6003L43.0819 26.125C42.8186 26.4267 42.7001 26.8859 42.7352 27.4937C42.7967 27.9922 42.7308 28.4645 42.5421 28.8799C42.1076 29.8463 41.6117 29.9468 41.6117 29.9468L40.3696 30.2704C39.9527 30.3929 39.6235 30.699 39.4655 31.0925C39.3382 30.9176 39.2241 30.7383 39.1407 30.5415C39.0091 30.2092 38.9871 29.8113 39.1758 29.5008C39.2943 29.3084 39.4918 29.1597 39.584 28.9498C39.7683 28.5344 39.5006 27.9966 39.7552 27.6205C39.8956 27.4106 40.1502 27.3275 40.3828 27.2269C40.611 27.1264 40.8568 26.9733 40.9007 26.7328C40.9446 26.5011 40.7953 26.278 40.6681 26.0813C40.5364 25.8845 40.4179 25.6352 40.5101 25.421C40.6505 25.0974 41.1245 25.1193 41.3966 24.8962C41.6512 24.682 41.6687 24.3103 41.7389 23.9867C41.8574 23.4226 42.2349 22.8891 42.7835 22.7142C43.4023 22.5218 44.0651 22.8104 44.5917 23.1821C44.6444 23.2171 44.6971 23.2564 44.7629 23.2739C44.8858 23.3089 45.0087 23.2564 45.1359 23.2302C45.4212 23.1777 45.7328 23.2827 45.9216 23.5057C46.1103 23.7418 46.1717 24.0654 46.0708 24.3365Z" fill="#1B1B43"/>
<path d="M43.4847 26.6965C43.7891 26.5029 43.8583 26.0687 43.6392 25.7267C43.4202 25.3848 42.9958 25.2645 42.6913 25.4581C42.3869 25.6517 42.3177 26.0858 42.5368 26.4278C42.7559 26.7698 43.1803 26.8901 43.4847 26.6965Z" fill="#FFBC96"/>
<path d="M43.1869 26.374C43.1869 26.3697 43.1737 26.1335 43.0245 26.0023C42.9455 25.9324 42.8402 25.9018 42.7085 25.9149L42.6997 25.7837C42.8665 25.7706 43.0069 25.8099 43.1123 25.9061C43.3054 26.0767 43.3185 26.3609 43.3185 26.374H43.1869Z" fill="#1B1B43"/>
<path opacity="0.4" d="M43.9815 26.6765C44.1609 26.6765 44.3063 26.5316 44.3063 26.3529C44.3063 26.1742 44.1609 26.0293 43.9815 26.0293C43.8021 26.0293 43.6567 26.1742 43.6567 26.3529C43.6567 26.5316 43.8021 26.6765 43.9815 26.6765Z" fill="#FE5B52"/>
<path d="M45.2719 25.7886C45.3553 25.8498 45.4299 25.9154 45.5002 25.9897C45.5704 26.0641 45.6362 26.1428 45.6889 26.2346C45.702 26.2565 45.7152 26.2827 45.724 26.3133C45.7328 26.3395 45.7415 26.3745 45.7372 26.4139C45.7328 26.4357 45.724 26.4576 45.7108 26.4751C45.6977 26.4926 45.6801 26.5057 45.6625 26.5145C45.645 26.5232 45.6274 26.5276 45.6143 26.5276C45.6011 26.5276 45.5879 26.532 45.5748 26.532C45.4694 26.5407 45.3685 26.5363 45.2675 26.5232V26.4751C45.3641 26.4576 45.465 26.4445 45.5572 26.427C45.5704 26.4226 45.5792 26.4226 45.5923 26.4183C45.6011 26.4139 45.6099 26.4139 45.6143 26.4095C45.623 26.4008 45.623 26.4008 45.623 26.392C45.623 26.3833 45.623 26.3658 45.6143 26.3439C45.6099 26.3264 45.5967 26.3046 45.5879 26.2871C45.544 26.2084 45.4826 26.1297 45.4255 26.0509L45.2412 25.8192L45.2719 25.7886Z" fill="#D28572"/>
<path d="M44.7538 25.9115C44.8168 25.9115 44.8679 25.8606 44.8679 25.7978C44.8679 25.735 44.8168 25.6841 44.7538 25.6841C44.6907 25.6841 44.6396 25.735 44.6396 25.7978C44.6396 25.8606 44.6907 25.9115 44.7538 25.9115Z" fill="#1B1B43"/>
<path d="M45.7943 25.8504C45.8573 25.8504 45.9084 25.7995 45.9084 25.7367C45.9084 25.6739 45.8573 25.623 45.7943 25.623C45.7313 25.623 45.6802 25.6739 45.6802 25.7367C45.6802 25.7995 45.7313 25.8504 45.7943 25.8504Z" fill="#1B1B43"/>
<path d="M44.7849 25.5038L44.4338 25.5606C44.3811 25.5694 44.3285 25.5344 44.3197 25.4775C44.3109 25.4251 44.346 25.3726 44.4031 25.3638L44.7542 25.307C44.8069 25.2983 44.8595 25.3332 44.8683 25.3901C44.8727 25.4426 44.8376 25.495 44.7849 25.5038Z" fill="#1B1B43"/>
<path d="M45.9082 25.4605H45.6273C45.5747 25.4605 45.5308 25.4167 45.5308 25.3643C45.5308 25.3118 45.5747 25.2681 45.6273 25.2681H45.9082C45.9609 25.2681 46.0048 25.3118 46.0048 25.3643C46.0048 25.4167 45.9609 25.4605 45.9082 25.4605Z" fill="#1B1B43"/>
<path d="M44.5869 26.6504C44.6439 26.7116 44.7054 26.7728 44.7756 26.8209C44.8458 26.869 44.9204 26.904 44.9994 26.9302C45.0784 26.9521 45.1618 26.9696 45.2452 26.9652C45.2891 26.9696 45.3286 26.9609 45.3725 26.9565C45.4164 26.9521 45.4559 26.939 45.4998 26.9346L45.5129 26.9652C45.4734 26.9827 45.4295 27.0002 45.3857 27.0133C45.3418 27.0221 45.2979 27.0352 45.2496 27.0396C45.1574 27.0527 45.0653 27.0396 44.9731 27.009C44.8853 26.9827 44.8019 26.9346 44.7317 26.8778C44.6615 26.8166 44.6 26.751 44.5605 26.6679L44.5869 26.6504Z" fill="#1B1B43"/>
<path d="M43.8765 29.8293L43.069 30.9444L41.6426 29.9648L41.6689 29.943C42.0639 29.65 42.3624 29.2914 42.5423 28.8848L43.8765 29.8293Z" fill="#CBCBFF"/>
<path d="M43.8765 29.8293L44.8464 30.9094L45.7637 29.9386L44.8464 28.793L43.8765 29.8293Z" fill="#CBCBFF"/>
<path d="M43.0815 31.0355L41.5454 29.9816L41.62 29.8723L43.0508 30.8518L43.7837 29.8417L42.4715 28.9409L42.5461 28.8359L43.9681 29.8111L43.0815 31.0355Z" fill="#5254CF"/>
<path d="M44.8458 31.0098L43.7837 29.8247L44.7975 28.749L44.8941 28.8365L43.9636 29.8291L44.8502 30.813L45.7016 29.9078L45.7982 29.9996L44.8458 31.0098Z" fill="#5254CF"/>
<path d="M106.184 66.3906H26.729V68.2728H106.184V66.3906Z" fill="#4F6367"/>
<defs>
<linearGradient id="paint0_linear_5301_5" x1="88.2517" y1="23.1436" x2="88.2517" y2="24.7396" gradientUnits="userSpaceOnUse">
<stop stop-color="#617883"/>
<stop offset="1" stop-color="#A7B6BF"/>
</linearGradient>
<linearGradient id="paint1_linear_5301_5" x1="90.5736" y1="24.2139" x2="90.5736" y2="27.8471" gradientUnits="userSpaceOnUse">
<stop stop-color="#617883"/>
<stop offset="1" stop-color="#A7B6BF"/>
</linearGradient>
<linearGradient id="paint2_linear_5301_5" x1="90.0385" y1="21.7612" x2="90.0385" y2="25.8156" gradientUnits="userSpaceOnUse">
<stop stop-color="#617883"/>
<stop offset="1" stop-color="#A7B6BF"/>
</linearGradient>
<linearGradient id="paint3_linear_5301_5" x1="90.2154" y1="23.3851" x2="91.3026" y2="23.7582" gradientUnits="userSpaceOnUse">
<stop stop-color="#617883"/>
<stop offset="1" stop-color="#A7B6BF"/>
</linearGradient>
</defs>
</svg>
