<svg width="138" height="107" viewBox="0 0 138 107" fill="none" xmlns="http://www.w3.org/2000/svg">
<path d="M130.032 71.622L86.09 97.2073C76.7287 102.658 61.5044 102.658 52.0818 97.2074L7.85207 71.6226C3.11061 68.8798 0.742454 65.2799 0.75261 61.6855L0.738314 66.7775C0.728158 70.3718 3.09614 73.9718 7.83774 76.7144L52.0674 102.299C61.49 107.75 76.7143 107.75 86.0756 102.299L130.018 76.7139C134.668 74.0062 136.996 70.463 137.006 66.9146L137.021 61.8225C137.011 65.3711 134.683 68.9142 130.032 71.622Z" fill="#7A9E9F"/>
<path d="M129.922 51.8856C139.344 57.3361 139.394 66.1716 130.033 71.6221L86.0904 97.2075C76.7291 102.658 61.5047 102.658 52.0822 97.2075L7.85242 71.6227C-1.57009 66.1722 -1.61975 57.3369 7.74157 51.8861L51.6838 26.301C61.0451 20.8502 76.2695 20.8502 85.692 26.3007L129.922 51.8856Z" fill="#F5F0FA"/>
<path d="M37.0137 21.5398C40.9143 19.6204 44.815 17.701 48.7156 15.7816C49.0305 15.6057 49.3809 15.5028 49.7409 15.4806C50.1009 15.4584 50.4613 15.5175 50.7954 15.6534C51.1295 15.7893 51.4287 15.9986 51.671 16.2658C51.9133 16.533 52.0924 16.8512 52.195 17.197C54.2069 24.1314 56.219 31.0659 58.2315 38.0004C58.391 38.6059 58.3071 39.2496 57.998 39.7941C57.6888 40.3385 57.1789 40.7403 56.5773 40.9136C51.9942 42.3328 47.4116 43.752 42.8293 45.1713C42.5844 45.3023 42.3157 45.3828 42.0392 45.4082C41.501 45.5588 40.9251 45.4914 40.4363 45.2206C39.9474 44.9498 39.5849 44.4974 39.4271 43.9613C39.2125 43.4908 39.157 42.9632 39.2688 42.4583C40.5035 36.3717 39.9686 29.8743 36.1643 24.78C35.4291 23.7956 35.9471 22.0649 37.0137 21.5398Z" fill="#4F6367"/>
<path d="M69.2473 33.8284C69.2514 33.6591 69.293 33.4929 69.3689 33.3416C69.4448 33.1902 69.5533 33.0576 69.6865 32.9531C69.7907 32.699 69.974 32.4852 70.2092 32.3435C70.4444 32.2017 70.7191 32.1394 70.9924 32.1659C72.3757 32.2584 73.7438 31.8392 75.1249 32.0965C75.5351 32.1722 75.9164 32.3596 76.227 32.638C76.5376 32.9164 76.7654 33.2751 76.8853 33.6747C77.0052 34.0742 77.0125 34.499 76.9065 34.9025C76.8005 35.3059 76.5853 35.6723 76.2845 35.9613C75.1265 37.0907 73.1925 36.7816 71.9338 36.377C71.6469 36.2845 71.3697 36.1641 71.1062 36.0176C71.2841 36.118 70.513 35.5346 70.919 35.8584C70.7753 35.7444 70.6251 35.6364 70.4771 35.5275C69.8513 35.0639 69.2413 34.7217 69.2473 33.8284Z" fill="#F0A681"/>
<path d="M59.2402 16.7195C60.6403 24.6729 66.2464 28.8241 73.06 32.2779C75.9908 33.7646 72.802 38.2905 69.8978 36.8199C61.8195 32.7242 55.585 27.3241 53.9449 17.9997C53.3713 14.738 58.6661 13.4564 59.2402 16.7195Z" fill="#7A9E9F"/>
<path d="M47.5631 13.3658C47.9631 11.8955 47.6382 10.0706 47.6856 8.55509C47.7636 7.12531 48.1691 5.73258 48.8708 4.48439C50.7024 0.958951 55.3225 1.85849 55.3252 5.90411C55.3263 8.13906 53.8314 9.96717 55.1914 12.0321C56.8663 14.5755 56.6067 17.0869 55.3845 19.7C55.3441 19.8285 55.2859 19.9506 55.2115 20.0629C55.1442 20.1964 55.0561 20.3182 54.9503 20.4237C53.6938 22.1556 52.1347 23.2896 49.8753 23.2621C48.8568 23.2225 47.8814 22.8405 47.1069 22.178C46.3323 21.5155 45.8038 20.6111 45.6068 19.611C45.2466 17.3606 47.0053 15.4171 47.5631 13.3658Z" fill="#3A3737"/>
<path d="M48.2721 3.6413C49.2575 1.37643 52.281 0.873643 54.4495 0.961518C55.3719 0.999076 56.9653 1.23222 57.5203 2.06455C58.2539 3.16381 58.1602 5.34426 56.7644 5.8169C56.0338 6.03648 55.2846 6.18866 54.5263 6.27155C54.1459 6.27658 53.7681 6.33343 53.4031 6.44051C53.2397 6.52931 53.101 6.65753 52.9997 6.81352C52.8984 6.96951 52.8377 7.14833 52.823 7.33375C52.4878 8.84357 52.22 10.6138 52.22 10.6138L51.2324 9.00327C50.7709 9.06637 50.3476 9.29333 50.0396 9.64269C50.2116 10.3531 51.1508 11.0113 51.4087 11.6978C51.4087 11.6978 49.1874 11.7821 48.0478 8.96303C47.6136 7.80176 46.9541 6.67153 48.2721 3.6413Z" fill="#3A3737"/>
<path d="M57.6445 18.0162C57.8208 17.587 58.1174 17.1324 57.9454 16.7988C57.3739 15.801 56.9029 14.749 56.5393 13.6582C58.6572 12.7268 59.1153 11.1596 58.8172 8.90613C58.624 7.4483 58.2861 3.81598 56.1758 3.76533C55.1641 3.74192 53.6432 4.06952 52.9232 4.83521C52.2305 5.57171 52.1989 6.77845 51.6352 7.60939C51.1051 8.3908 50.4576 7.27745 49.9586 6.99666C49.1827 6.55913 48.1465 7.57128 48.1465 8.3421C48.1465 9.37276 48.9366 9.92264 49.8084 10.2699C49.8062 10.3333 49.8233 10.3959 49.8574 10.4494C50.3866 11.2807 51.0199 12.041 51.7418 12.7118C51.9975 13.5612 52.1618 14.4355 52.2321 15.3198C52.1973 15.9579 52.0104 16.5786 51.6871 17.1298C51.3637 17.6811 50.9133 18.1472 50.3733 18.489C50.8026 18.6657 51.243 18.8139 51.6918 18.9325C52.7187 19.0302 53.7161 18.6904 54.731 18.76C55.4134 18.8074 56.0893 19.3083 56.7608 19.0419C57.1726 18.8217 57.4877 18.456 57.6445 18.0162Z" fill="#F0A681"/>
<path d="M53.8043 2.55758C54.0975 2.3398 54.4579 2.23202 54.8224 2.25311C54.8936 1.97858 55.0624 1.73939 55.2972 1.58037C55.532 1.42134 55.8167 1.35339 56.098 1.38923C58.3541 1.54108 59.5937 4.03034 58.8346 6.07806C58.7461 6.36526 58.5679 6.61654 58.3261 6.79503C58.0843 6.97352 57.7916 7.06982 57.4911 7.06982C57.1906 7.06982 56.8979 6.97352 56.6561 6.79503C56.4143 6.61654 56.2361 6.36526 56.1476 6.07806C56.0674 5.87464 55.9395 5.69344 55.7748 5.54969C55.7091 5.99756 55.5654 6.43045 55.3503 6.82876C54.7131 7.96284 53.2117 7.5642 52.8042 6.49598C52.6038 5.78818 52.3239 5.10534 51.9699 4.46052C51.127 3.20374 52.6915 2.02754 53.8043 2.55758Z" fill="#3A3737"/>
<path d="M46.2009 35.833C45.8461 34.4625 46.0475 32.8569 46.0518 31.4972C46.0551 29.5279 46.2343 27.5628 46.5873 25.6254C46.5949 25.5824 46.6058 25.5383 46.6145 25.495C46.9225 23.9643 46.9356 22.3857 47.2866 20.8524C47.7116 18.9925 48.3624 17.1096 50.0526 16.0512C52.1037 14.8988 54.4521 14.3849 56.7971 14.5754C58.835 14.7585 59.4183 16.5478 60.0463 18.2486C60.2048 18.6703 60.3374 19.1013 60.4436 19.5391C61.4357 24.1202 61.8859 28.802 61.7849 33.4881C61.8051 34.475 61.8137 35.4314 61.8159 36.345C59.1653 38.1999 54.4571 39.1867 46.2009 35.833Z" fill="black"/>
<path d="M56.1446 38.5375C56.1424 37.5482 56.1451 35.6645 56.1234 34.5958C56.2325 29.5209 55.7448 24.4507 54.6704 19.4896C54.5555 19.0155 54.4119 18.5488 54.2405 18.0922C53.5603 16.2501 56.4477 15.917 54.2405 15.7187C54.0278 15.6996 54.1526 15.1677 53.9295 15.1614C55.5385 14.6608 53.3634 15.0392 55.044 15.1614C57.2511 15.3598 57.8789 15.6464 58.5591 17.4884C58.7305 17.9451 58.874 18.4117 58.989 18.8858C60.0634 23.8469 60.551 28.9171 60.4419 33.9921C60.4637 35.0608 60.4729 36.0966 60.4751 37.0859C58.9362 38.1628 56.748 38.9612 53.6795 38.9182C54.647 38.5966 55.4562 39.0193 56.1446 38.5375Z" fill="white"/>
<path d="M54.8445 17.2008C53.3442 17.2008 52.128 16.4524 52.128 15.5291C52.128 14.6059 53.3442 13.8574 54.8445 13.8574C56.3448 13.8574 57.561 14.6059 57.561 15.5291C57.561 16.4524 56.3448 17.2008 54.8445 17.2008Z" fill="#F0A681"/>
<path d="M71.7318 55.7441C72.3019 56.0957 72.8298 56.5115 73.305 56.9835C73.305 56.9835 76.1129 58.6081 76.1994 58.8258C76.3216 59.1434 76.3639 59.4863 76.3225 59.8241C75.972 60.0831 75.5595 60.2452 75.1265 60.2941C74.6934 60.343 74.2551 60.277 73.8557 60.1027C72.7347 59.7019 71.661 59.1762 70.5645 58.7953C69.905 58.5664 68.3313 58.5368 67.9792 57.7984C67.7779 57.1867 67.781 56.5262 67.9879 55.9164C68.3525 55.327 69.5986 55.4391 70.1847 55.4171C70.7206 55.383 71.2556 55.4961 71.7318 55.7441Z" fill="#040E67"/>
<path d="M65.8158 57.6654C65.5175 57.19 65.0903 57.4319 64.3296 57.3539C63.6526 57.2845 62.1017 58.4049 62.5953 56.376C62.338 56.389 62.5523 56.4832 62.5066 56.764C62.4294 57.2374 61.9723 59.1333 61.9679 59.4552C61.9494 61.4569 67.8096 66.8195 67.8188 62.3978C67.8188 62.1227 66.2429 59.3779 66.1863 59.0114C66.1462 58.5438 66.0206 58.0876 65.8158 57.6654Z" fill="#040E67"/>
<g style="mix-blend-mode:multiply">
<path d="M60.5099 83.9522L104.18 59.8212L81.648 46.5078L37.9777 70.6382L60.5099 83.9522Z" fill="#999F9F"/>
</g>
<path d="M57.948 62.8635L62.1763 60.2067L39.6568 46.9312L37.8843 47.9693L57.948 62.8635Z" fill="#97CAFF"/>
<path d="M60.5464 83.8496L62.1763 82.87V60.1812L60.5464 61.1597V83.8496Z" fill="#85BAF6"/>
<path d="M37.8848 70.6201L60.5469 83.8087V61.1199L37.8848 47.9302V70.6201Z" fill="#69A5ED"/>
<path d="M57.948 62.8635L62.1763 60.2067L39.6568 46.9312L37.8843 47.9693L57.948 62.8635Z" fill="#97CAFF"/>
<path d="M60.5464 83.8496L62.1763 82.87V60.1812L60.5464 61.1597V83.8496Z" fill="#4F6367"/>
<path d="M99.9177 39.7727L104.146 37.1164L81.6271 23.8403L79.8535 24.8779L99.9177 39.7727Z" fill="#97CAFF"/>
<path d="M79.8529 47.5283L102.516 60.7169V38.0281L79.8529 24.8384V47.5283Z" fill="#69A5ED"/>
<path d="M99.9177 39.7727L104.146 37.1164L81.6271 23.8403L79.8535 24.8779L99.9177 39.7727Z" fill="#97CAFF"/>
<path d="M79.8529 47.5283L102.516 60.7169V38.0281L79.8529 24.8384V47.5283Z" fill="#E8F4FD"/>
<path d="M37.8585 49.7183L81.643 24.1909L101.142 35.734L102.104 34.9305H104.176V37.5121H104.163L60.3907 63.0328L37.8585 49.7183Z" fill="#4F6367"/>
<path d="M60.3907 60.4581L104.176 34.9302L81.643 21.6162L37.8585 47.1436L60.3907 60.4581Z" fill="white"/>
<path d="M37.8848 70.6202L60.5469 83.8088V60.3181L37.8848 47.1284V70.6202Z" fill="#E8F4FD"/>
<path d="M81.6018 32.7378H82.1938V33.1209H81.6018V32.7378Z" fill="#4E3ED2"/>
<path d="M61.1895 36.9454H61.7379V37.0363L75.4062 29.147L82.2056 33.134L68.0051 41.3303L61.2057 37.3427L61.2163 37.3372H61.1895V36.9454Z" fill="#7A9E9F"/>
<path d="M68.0051 40.9333L82.2056 32.7375L75.4062 28.7505L61.2057 36.9463L68.0051 40.9333Z" fill="#4F6367"/>
<path d="M64.1091 37.0484L63.5687 37.3638C63.5373 37.3784 63.5028 37.3853 63.4682 37.3839C63.4336 37.3826 63.3998 37.3731 63.3695 37.3561L62.7503 36.9975C62.692 36.9644 62.6861 36.9124 62.7377 36.8822L63.2776 36.5663C63.3091 36.5519 63.3435 36.5452 63.3781 36.5466C63.4127 36.5479 63.4465 36.5574 63.4767 36.5742L64.0955 36.9328C64.1542 36.967 64.1608 37.0177 64.1091 37.0484Z" fill="white"/>
<path d="M65.0487 36.4999L64.5084 36.8163C64.477 36.8308 64.4427 36.8377 64.4082 36.8364C64.3737 36.8351 64.34 36.8257 64.3098 36.809L63.6905 36.4495C63.6317 36.4158 63.6257 36.3644 63.6769 36.3345L64.2178 36.0186C64.2492 36.0042 64.2835 35.9974 64.318 35.9987C64.3525 36 64.3863 36.0094 64.4164 36.0262L65.0351 36.3848C65.0939 36.4188 65.0999 36.4705 65.0487 36.4999Z" fill="white"/>
<path d="M65.9879 35.951L65.4465 36.2672C65.4152 36.2817 65.3809 36.2885 65.3464 36.2872C65.312 36.2858 65.2784 36.2762 65.2483 36.2593L64.6291 35.9007C64.5703 35.8669 64.5643 35.8152 64.6155 35.7853L65.1564 35.4697C65.1876 35.455 65.2219 35.4481 65.2563 35.4494C65.2907 35.4506 65.3244 35.4601 65.3545 35.477L65.9748 35.8359C66.033 35.8694 66.0385 35.9214 65.9879 35.951Z" fill="white"/>
<path d="M66.9276 35.4031L66.3867 35.7187C66.3553 35.7333 66.321 35.7402 66.2865 35.7389C66.2519 35.7376 66.2182 35.7281 66.1881 35.7111L65.5688 35.3523C65.5101 35.318 65.5046 35.2668 65.5552 35.2371L66.0966 34.9213C66.1279 34.9067 66.1621 34.8998 66.1965 34.901C66.231 34.9022 66.2646 34.9116 66.2947 34.9283L66.9146 35.2875C66.9728 35.3215 66.9787 35.3729 66.9276 35.4031Z" fill="white"/>
<path d="M67.8662 34.8546L67.3263 35.1702C67.295 35.1848 67.2607 35.1918 67.2262 35.1906C67.1917 35.1894 67.1579 35.18 67.1277 35.1632L66.5079 34.804C66.4497 34.77 66.4437 34.7183 66.4943 34.6887L67.0357 34.3731C67.067 34.3585 67.1012 34.3515 67.1356 34.3527C67.17 34.3538 67.2037 34.3632 67.2338 34.3799L67.8531 34.739C67.9119 34.773 67.9178 34.825 67.8662 34.8546Z" fill="white"/>
<path d="M68.8061 34.3055L68.2658 34.6212C68.2344 34.6359 68.2 34.643 68.1654 34.6419C68.1307 34.6408 68.0968 34.6314 68.0665 34.6146L67.4478 34.2552C67.389 34.2215 67.3831 34.1697 67.4342 34.1401L67.9746 33.8245C68.006 33.81 68.0404 33.8031 68.075 33.8043C68.1096 33.8056 68.1434 33.8149 68.1738 33.8316L68.7925 34.1907C68.8512 34.2247 68.8572 34.2758 68.8061 34.3055Z" fill="white"/>
<path d="M69.7457 33.7574L69.2048 34.0733C69.1734 34.0876 69.1391 34.0943 69.1046 34.093C69.0701 34.0916 69.0364 34.0821 69.0062 34.0654L68.3869 33.7065C68.3281 33.6727 68.3222 33.6213 68.3733 33.5914L68.9148 33.2755C68.946 33.2611 68.9803 33.2542 69.0147 33.2555C69.0491 33.2568 69.0827 33.2662 69.1129 33.2828L69.7321 33.6418C69.7903 33.6763 69.7969 33.7275 69.7457 33.7574Z" fill="white"/>
<path d="M70.6847 33.2091L70.1438 33.5244C70.1124 33.539 70.0781 33.546 70.0435 33.5447C70.009 33.5434 69.9753 33.534 69.9451 33.5171L69.3258 33.1582C69.2671 33.1244 69.2611 33.0722 69.3133 33.0428L69.8537 32.7272C69.8849 32.7125 69.9192 32.7054 69.9536 32.7067C69.9881 32.7079 70.0217 32.7174 70.0518 32.7343L70.6716 33.0935C70.7298 33.1272 70.7353 33.1786 70.6847 33.2091Z" fill="white"/>
<path d="M71.6239 32.6608L71.083 32.977C71.0515 32.9913 71.0172 32.998 70.9827 32.9965C70.9482 32.9951 70.9145 32.9856 70.8844 32.9688L70.2651 32.6105C70.2063 32.5762 70.2014 32.5248 70.252 32.4951L70.7929 32.1787C70.8242 32.1643 70.8585 32.1575 70.8929 32.1589C70.9273 32.1602 70.961 32.1697 70.991 32.1866L71.6109 32.5455C71.6691 32.5795 71.675 32.6314 71.6239 32.6608Z" fill="white"/>
<path d="M72.5642 32.1121L72.0233 32.4275C71.9919 32.442 71.9575 32.449 71.9229 32.4477C71.8883 32.4465 71.8545 32.4371 71.8241 32.4204L71.2054 32.0615C71.1472 32.0281 71.1412 31.9761 71.1924 31.9462L71.7327 31.6303C71.764 31.616 71.7982 31.6092 71.8326 31.6105C71.867 31.6118 71.9007 31.6212 71.9308 31.6379L72.5512 31.9968C72.6083 32.0302 72.6154 32.0822 72.5642 32.1121Z" fill="white"/>
<path d="M73.5026 31.5647L72.9622 31.8803C72.9309 31.8948 72.8966 31.9016 72.8621 31.9004C72.8275 31.8991 72.7938 31.8897 72.7636 31.873L72.1444 31.5138C72.0861 31.4801 72.0802 31.4281 72.1308 31.3982L72.6717 31.0829C72.7031 31.0683 72.7375 31.0614 72.7721 31.0626C72.8067 31.0639 72.8405 31.0732 72.8708 31.09L73.4896 31.4488C73.5483 31.4826 73.5538 31.5342 73.5026 31.5647Z" fill="white"/>
<path d="M74.4423 31.0153L73.9014 31.3309C73.8702 31.3454 73.8359 31.3524 73.8015 31.3511C73.767 31.3498 73.7334 31.3404 73.7033 31.3235L73.084 30.9649C73.0253 30.9309 73.0193 30.8792 73.0704 30.8493L73.6108 30.5337C73.6422 30.5191 73.6766 30.5121 73.7112 30.5133C73.7459 30.5146 73.7797 30.5239 73.81 30.5407L74.4287 30.8996C74.4875 30.9336 74.4935 30.9853 74.4423 31.0153Z" fill="white"/>
<path d="M75.382 30.4669L74.84 30.7825C74.8088 30.797 74.7747 30.804 74.7404 30.8028C74.706 30.8015 74.6725 30.7922 74.6424 30.7754L74.0232 30.4166C73.9644 30.3825 73.9579 30.3309 74.0096 30.3009L74.5499 29.985C74.5814 29.9706 74.6158 29.9638 74.6504 29.965C74.6849 29.9662 74.7187 29.9755 74.7491 29.9921L75.3683 30.3513C75.4271 30.3853 75.4326 30.437 75.382 30.4669Z" fill="white"/>
<path d="M76.3677 29.8906L75.7832 30.2318C75.7509 30.247 75.7154 30.2542 75.6797 30.2529C75.644 30.2516 75.6092 30.2417 75.5781 30.2242L74.9659 29.8696C74.906 29.8348 74.899 29.7812 74.9517 29.7505L75.5367 29.4093C75.5689 29.3943 75.6041 29.3871 75.6396 29.3883C75.6751 29.3895 75.7097 29.3992 75.7408 29.4163L76.3535 29.7712C76.4145 29.8065 76.421 29.8596 76.3677 29.8906Z" fill="white"/>
<path d="M65.5934 37.3759L64.622 37.943C64.5817 37.9618 64.5375 37.9707 64.493 37.9691C64.4485 37.9675 64.4051 37.9554 64.3662 37.9337L63.8084 37.6102C63.7323 37.5667 63.7247 37.5003 63.7911 37.4616L64.7619 36.8949C64.8022 36.8762 64.8464 36.8672 64.8909 36.8688C64.9353 36.8704 64.9788 36.8825 65.0177 36.9041L65.5765 37.2271C65.6516 37.2715 65.6592 37.3382 65.5934 37.3759Z" fill="white"/>
<path d="M66.8565 37.8332L65.6392 38.5439C65.6019 38.5611 65.5611 38.5693 65.5201 38.5678C65.479 38.5663 65.4389 38.5551 65.403 38.5352L64.824 38.2C64.7549 38.1597 64.7473 38.0977 64.8083 38.0623L66.025 37.3519C66.0625 37.3346 66.1035 37.3263 66.1447 37.3278C66.1859 37.3293 66.2262 37.3406 66.2622 37.3606L66.8407 37.6958C66.9104 37.7356 66.9174 37.7979 66.8565 37.8332Z" fill="white"/>
<path d="M68.317 38.1749L66.6731 39.134C66.6334 39.1523 66.5901 39.1611 66.5464 39.1595C66.5027 39.158 66.4601 39.1463 66.4218 39.1253L65.859 38.7993C65.785 38.7561 65.7774 38.6902 65.8422 38.6524L67.4867 37.6931C67.5263 37.6744 67.5698 37.6656 67.6135 37.6672C67.6572 37.6688 67.6999 37.6808 67.7381 37.7023L68.3007 38.0275C68.3742 38.0707 68.3823 38.1366 68.317 38.1749Z" fill="white"/>
<path d="M68.7945 39.2421L67.8422 39.7982C67.7987 39.8184 67.751 39.828 67.7031 39.8263C67.6551 39.8245 67.6082 39.8115 67.5663 39.7881L66.8992 39.4012C66.8175 39.355 66.8088 39.2826 66.8801 39.2415L67.8335 38.6849C67.877 38.6648 67.9245 38.6552 67.9724 38.6569C68.0202 38.6587 68.067 38.6717 68.1088 38.6949L68.7766 39.0818C68.8582 39.1286 68.8658 39.2004 68.7945 39.2421Z" fill="white"/>
<path d="M71.3711 37.7377L70.4172 38.2944C70.3737 38.3144 70.3263 38.3238 70.2785 38.3219C70.2308 38.3201 70.1841 38.307 70.1424 38.2838L69.4753 37.8972C69.3936 37.8498 69.3849 37.7786 69.4562 37.7372L70.4096 37.1808C70.453 37.1605 70.5006 37.1508 70.5484 37.1525C70.5963 37.1542 70.6431 37.1673 70.6849 37.1906L71.3526 37.5772C71.4342 37.6245 71.4419 37.6961 71.3711 37.7377Z" fill="white"/>
<path d="M76.87 34.5271L71.8141 37.4787C71.7678 37.5003 71.7169 37.5107 71.6658 37.5088C71.6148 37.507 71.5648 37.493 71.5202 37.4681L70.8726 37.0934C70.7856 37.0422 70.7769 36.9661 70.8525 36.9217L75.9084 33.9701C75.9549 33.9486 76.0057 33.9383 76.0569 33.9402C76.1081 33.942 76.1581 33.9559 76.2028 33.9808L76.8504 34.3559C76.9375 34.406 76.9462 34.4827 76.87 34.5271Z" fill="white"/>
<path d="M70.0005 38.5373L69.212 38.9982C69.1719 39.0167 69.1279 39.0254 69.0838 39.0237C69.0396 39.022 68.9965 39.01 68.9579 38.9885L68.2679 38.5879C68.1934 38.5447 68.1851 38.4788 68.251 38.4402L69.0384 37.9801C69.0785 37.9618 69.1223 37.9531 69.1664 37.9548C69.2104 37.9564 69.2534 37.9684 69.292 37.9896L69.9837 38.3904C70.0582 38.4329 70.0658 38.4992 70.0005 38.5373Z" fill="white"/>
<path d="M66.5307 36.8287L65.9897 37.1446C65.9584 37.1591 65.9241 37.166 65.8896 37.1648C65.8551 37.1636 65.8213 37.1542 65.7911 37.1375L65.1719 36.7781C65.1131 36.7446 65.1077 36.6932 65.1583 36.6627L65.6992 36.3473C65.7305 36.333 65.7648 36.3261 65.7993 36.3273C65.8337 36.3285 65.8675 36.3377 65.8977 36.3541L66.5181 36.7131C66.5764 36.7476 66.5824 36.7988 66.5307 36.8287Z" fill="white"/>
<path d="M67.4848 36.2717L66.9439 36.5871C66.9124 36.6014 66.8781 36.6083 66.8435 36.6071C66.8089 36.6059 66.7751 36.5967 66.7447 36.5803L66.1265 36.2214C66.0677 36.1871 66.0618 36.1354 66.1124 36.106L66.6533 35.7898C66.6846 35.7753 66.719 35.7684 66.7535 35.7697C66.7881 35.771 66.8218 35.7805 66.8519 35.7975L67.4712 36.1563C67.53 36.1898 67.5359 36.242 67.4848 36.2717Z" fill="white"/>
<path d="M68.4381 35.7152L67.8977 36.0305C67.8665 36.0453 67.8321 36.0523 67.7975 36.051C67.763 36.0497 67.7292 36.0402 67.6991 36.0232L67.0793 35.6651C67.0211 35.6308 67.0146 35.5791 67.0668 35.5495L67.6071 35.2338C67.6385 35.2192 67.673 35.2122 67.7076 35.2135C67.7422 35.2148 67.776 35.2243 67.8063 35.2412L68.4245 35.5995C68.4827 35.6338 68.4892 35.6855 68.4381 35.7152Z" fill="white"/>
<path d="M69.3923 35.1576L68.8513 35.474C68.8199 35.4885 68.7856 35.4954 68.751 35.494C68.7165 35.4926 68.6828 35.4829 68.6527 35.4658L68.0329 35.1078C67.9741 35.0735 67.9687 35.0221 68.0199 34.9919L68.5608 34.6765C68.5921 34.6621 68.6264 34.6552 68.6609 34.6564C68.6954 34.6576 68.7291 34.6669 68.7594 34.6836L69.3786 35.0427C69.4374 35.077 69.4429 35.1282 69.3923 35.1576Z" fill="white"/>
<path d="M70.3446 34.6023L69.8043 34.9176C69.773 34.9323 69.7387 34.9393 69.7042 34.9382C69.6697 34.937 69.6359 34.9278 69.6056 34.9111L68.9869 34.5522C68.9281 34.5182 68.9227 34.4665 68.9728 34.4368L69.5142 34.1207C69.5455 34.1063 69.5798 34.0994 69.6142 34.1007C69.6486 34.1021 69.6822 34.1115 69.7123 34.1283L70.3316 34.4869C70.3898 34.5212 70.3969 34.5726 70.3446 34.6023Z" fill="white"/>
<path d="M71.2987 34.0452L70.7584 34.3617C70.7269 34.3759 70.6925 34.3827 70.6579 34.3813C70.6233 34.3799 70.5895 34.3705 70.5592 34.3538L69.9405 33.9946C69.8818 33.9609 69.8757 33.9094 69.9274 33.8795L70.4678 33.5634C70.4991 33.5491 70.5333 33.5423 70.5678 33.5436C70.6022 33.5449 70.6357 33.5543 70.6659 33.571L71.2851 33.9299C71.3439 33.9636 71.3499 34.0156 71.2987 34.0452Z" fill="white"/>
<path d="M72.2528 33.4887L71.7114 33.8044C71.6802 33.8187 71.6461 33.8255 71.6118 33.8243C71.5775 33.8231 71.544 33.8138 71.5139 33.7973L70.8935 33.4381C70.8358 33.4038 70.8298 33.3521 70.8805 33.3222L71.4214 33.0063C71.4528 32.992 71.4872 32.9852 71.5218 32.9865C71.5564 32.9878 71.5902 32.9972 71.6205 33.014L72.2387 33.3731C72.2974 33.4069 72.3034 33.458 72.2528 33.4887Z" fill="white"/>
<path d="M73.2063 32.932L72.6654 33.2476C72.634 33.2618 72.5997 33.2685 72.5652 33.2673C72.5307 33.266 72.497 33.2568 72.4667 33.2403L71.8475 32.8816C71.7887 32.8471 71.7833 32.7957 71.8339 32.766L72.3754 32.4498C72.4066 32.4354 72.4408 32.4286 72.4752 32.4298C72.5097 32.4311 72.5433 32.4405 72.5734 32.4572L73.1927 32.8166C73.252 32.8501 73.2574 32.9023 73.2063 32.932Z" fill="white"/>
<path d="M74.1596 32.3745L73.6192 32.6904C73.5877 32.7049 73.5533 32.7117 73.5187 32.7103C73.4841 32.7089 73.4503 32.6993 73.4201 32.6823L72.8013 32.3242C72.7425 32.2899 72.7377 32.238 72.7872 32.2089L73.3281 31.8924C73.3596 31.8781 73.3941 31.8713 73.4287 31.8727C73.4633 31.8742 73.497 31.8837 73.5273 31.9006L74.146 32.2595C74.2048 32.2932 74.2107 32.3449 74.1596 32.3745Z" fill="white"/>
<path d="M75.1134 31.8178L74.5725 32.1337C74.5412 32.1482 74.5068 32.1551 74.4723 32.1539C74.4378 32.1526 74.4041 32.1433 74.3739 32.1267L73.7541 31.7675C73.6964 31.7335 73.6898 31.6821 73.7415 31.6522L74.2819 31.3365C74.3134 31.3221 74.3478 31.3152 74.3824 31.3166C74.417 31.3179 74.4508 31.3273 74.4811 31.3441L75.0998 31.7025C75.158 31.7368 75.1645 31.7876 75.1134 31.8178Z" fill="white"/>
<path d="M76.067 31.2607L75.5261 31.5764C75.4949 31.5909 75.4606 31.5979 75.4262 31.5967C75.3918 31.5955 75.3581 31.5861 75.328 31.5693L74.7093 31.2106C74.65 31.1764 74.644 31.1249 74.6952 31.0947L75.2361 30.7786C75.2674 30.7644 75.3016 30.7576 75.336 30.759C75.3704 30.7603 75.404 30.7696 75.4341 30.7862L76.0545 31.1451C76.1127 31.1794 76.1182 31.2308 76.067 31.2607Z" fill="white"/>
<path d="M77.3761 30.4963L76.5005 31.0084C76.4618 31.0258 76.4196 31.0341 76.3772 31.0324C76.3348 31.0308 76.2934 31.0193 76.2562 30.9988L75.6865 30.668C75.6141 30.6266 75.607 30.5627 75.6701 30.526L76.5446 30.0155C76.5832 29.9975 76.6255 29.9889 76.6681 29.9904C76.7106 29.9919 76.7522 30.0035 76.7894 30.0242L77.3598 30.3545C77.4316 30.3967 77.4392 30.4598 77.3761 30.4963Z" fill="white"/>
<path d="M67.785 37.2907L67.2441 37.6063C67.2127 37.6209 67.1782 37.6278 67.1436 37.6266C67.109 37.6253 67.0752 37.6158 67.0449 37.5989L66.4262 37.2401C66.3674 37.2066 66.3615 37.1546 66.4126 37.1249L66.9535 36.8088C66.9849 36.7943 67.0192 36.7874 67.0538 36.7887C67.0883 36.7901 67.122 36.7995 67.1521 36.8164L67.7714 37.175C67.8296 37.2093 67.8356 37.261 67.785 37.2907Z" fill="white"/>
<path d="M68.739 36.7348L68.1981 37.0501C68.1669 37.0649 68.1326 37.0719 68.0982 37.0707C68.0637 37.0695 68.03 37.06 68 37.0431L67.3802 36.6844C67.3219 36.6507 67.3154 36.599 67.3666 36.5691L67.9081 36.2535C67.9392 36.2388 67.9735 36.2318 68.0079 36.233C68.0424 36.2343 68.076 36.2437 68.1061 36.2606L68.7254 36.6194C68.7847 36.6535 68.7902 36.7046 68.739 36.7348Z" fill="white"/>
<path d="M69.6923 36.1775L69.1519 36.4932C69.1205 36.5076 69.0861 36.5144 69.0515 36.5132C69.017 36.512 68.9832 36.5027 68.9528 36.4861L68.334 36.1272C68.2753 36.0932 68.2693 36.0415 68.321 36.0113L68.8608 35.6957C68.8922 35.6811 68.9266 35.6742 68.9612 35.6754C68.9958 35.6767 69.0297 35.6862 69.0599 35.703L69.6787 36.0619C69.7375 36.0959 69.7435 36.1471 69.6923 36.1775Z" fill="white"/>
<path d="M70.6461 35.621L70.1046 35.9366C70.0734 35.951 70.0393 35.9578 70.005 35.9565C69.9706 35.9552 69.9371 35.9458 69.9071 35.929L69.2873 35.5701C69.2291 35.5367 69.2225 35.485 69.2742 35.455L69.8146 35.1391C69.846 35.1245 69.8804 35.1176 69.915 35.1188C69.9497 35.12 69.9835 35.1294 70.0138 35.1462L70.6325 35.5054C70.6907 35.5393 70.6973 35.5911 70.6461 35.621Z" fill="white"/>
<path d="M71.6 35.0633L71.0591 35.3792C71.0278 35.3937 70.9934 35.4005 70.9589 35.3992C70.9243 35.3979 70.8906 35.3884 70.8605 35.3715L70.2412 35.013C70.1824 34.9792 70.177 34.928 70.2276 34.8978L70.7685 34.582C70.7999 34.5674 70.8343 34.5604 70.869 34.5617C70.9036 34.5629 70.9374 34.5724 70.9677 34.5893L71.5864 34.9482C71.6452 34.9822 71.6512 35.0339 71.6 35.0633Z" fill="white"/>
<path d="M72.5529 34.5067L72.0131 34.8231C71.9816 34.8377 71.9472 34.8446 71.9126 34.8433C71.8779 34.842 71.8441 34.8326 71.8139 34.8158L71.1951 34.4563C71.1358 34.4224 71.1298 34.3714 71.181 34.3412L71.7219 34.0254C71.7533 34.011 71.7877 34.0042 71.8222 34.0055C71.8567 34.0069 71.8904 34.0164 71.9205 34.0332L72.5398 34.3919C72.5981 34.4264 72.6046 34.4779 72.5529 34.5067Z" fill="white"/>
<path d="M73.5068 33.9507L72.9658 34.2663C72.9345 34.2809 72.9002 34.2879 72.8656 34.2866C72.8311 34.2852 72.7974 34.2757 72.7673 34.2587L72.1474 33.9C72.0897 33.8658 72.0837 33.8146 72.1349 33.7839L72.6752 33.4688C72.7067 33.4543 72.7412 33.4475 72.7758 33.4489C72.8104 33.4503 72.8442 33.4598 72.8745 33.4767L73.4931 33.835C73.5519 33.8691 73.5579 33.9208 73.5068 33.9507Z" fill="white"/>
<path d="M74.4599 33.3936L73.919 33.7092C73.8879 33.7238 73.8537 33.7307 73.8194 33.7294C73.785 33.7281 73.7515 33.7187 73.7215 33.7019L73.1011 33.343C73.0434 33.3095 73.0374 33.2575 73.0875 33.2279L73.6289 32.912C73.6603 32.8974 73.6946 32.8905 73.7291 32.8917C73.7636 32.893 73.7974 32.9023 73.8276 32.9191L74.4463 33.2782C74.5056 33.312 74.5105 33.3636 74.4599 33.3936Z" fill="white"/>
<path d="M75.414 32.8365L74.8731 33.1521C74.8417 33.1666 74.8074 33.1734 74.7729 33.1721C74.7383 33.1708 74.7046 33.1614 74.6744 33.1446L74.0557 32.7856C73.9964 32.7524 73.991 32.7005 74.0416 32.6709L74.583 32.355C74.6143 32.3404 74.6485 32.3334 74.6829 32.3346C74.7173 32.3358 74.751 32.3452 74.7811 32.362L75.4004 32.7206C75.4591 32.7547 75.4652 32.8072 75.414 32.8365Z" fill="white"/>
<path d="M76.3674 32.2795L75.8265 32.5954C75.7952 32.6099 75.761 32.6168 75.7265 32.6155C75.6921 32.6142 75.6585 32.6048 75.6284 32.5881L75.0096 32.2292C74.9509 32.196 74.9444 32.1441 74.995 32.1144L75.5364 31.7982C75.5677 31.7837 75.6021 31.7767 75.6366 31.778C75.6711 31.7792 75.7048 31.7886 75.735 31.8053L76.3543 32.1642C76.4131 32.1984 76.4185 32.2502 76.3674 32.2795Z" fill="white"/>
<path d="M77.3214 31.724L76.7799 32.039C76.7487 32.0536 76.7145 32.0606 76.6801 32.0594C76.6457 32.0582 76.612 32.0488 76.5819 32.032L75.9626 31.6731C75.9044 31.6393 75.8978 31.5877 75.949 31.558L76.4894 31.2421C76.5209 31.2278 76.5553 31.221 76.5899 31.2223C76.6245 31.2237 76.6582 31.233 76.6886 31.2497L77.3078 31.6089C77.3666 31.6424 77.372 31.6943 77.3214 31.724Z" fill="white"/>
<path d="M78.415 31.0846L77.743 31.4769C77.7086 31.493 77.6709 31.5007 77.6329 31.4993C77.595 31.4978 77.5579 31.4874 77.5248 31.4687L76.9262 31.1221C76.8614 31.0849 76.856 31.028 76.9115 30.9948L77.5835 30.603C77.6179 30.587 77.6557 30.5793 77.6936 30.5807C77.7315 30.5821 77.7686 30.5924 77.8017 30.6109L78.4003 30.9578C78.4645 30.9945 78.4711 31.0517 78.415 31.0846Z" fill="white"/>
<path d="M69.2247 37.6449L68.6833 37.961C68.652 37.9754 68.6178 37.9821 68.5834 37.9808C68.549 37.9795 68.5153 37.9701 68.4852 37.9535L67.8654 37.5946C67.8077 37.5611 67.8017 37.5089 67.8529 37.4792L68.3938 37.1633C68.4249 37.1488 68.4591 37.1419 68.4934 37.1432C68.5278 37.1445 68.5613 37.1539 68.5913 37.1707L69.2111 37.5295C69.2694 37.5638 69.2759 37.615 69.2247 37.6449Z" fill="white"/>
<path d="M70.1212 37.1207L69.5809 37.4366C69.5496 37.4513 69.5152 37.4582 69.4807 37.4569C69.4461 37.4556 69.4124 37.446 69.3823 37.429L68.7625 37.0704C68.7043 37.0369 68.6983 36.9847 68.7494 36.9551L69.2903 36.6392C69.3217 36.6248 69.3561 36.618 69.3906 36.6193C69.4251 36.6206 69.4587 36.63 69.4889 36.6468L70.1082 37.0054C70.167 37.0397 70.1724 37.0908 70.1212 37.1207Z" fill="white"/>
<path d="M71.0184 36.5971L70.477 36.9135C70.4458 36.9279 70.4117 36.9348 70.3773 36.9335C70.343 36.9322 70.3095 36.9229 70.2795 36.9062L69.6596 36.5475C69.6014 36.513 69.5954 36.4615 69.646 36.4322L70.1869 36.1157C70.2183 36.1013 70.2527 36.0945 70.2872 36.0959C70.3217 36.0972 70.3554 36.1066 70.3856 36.1234L71.0043 36.4822C71.0631 36.5157 71.069 36.5674 71.0184 36.5971Z" fill="white"/>
<path d="M71.9145 36.0742L71.3741 36.3899C71.3428 36.4044 71.3084 36.4114 71.2739 36.4101C71.2394 36.4088 71.2057 36.3994 71.1755 36.3825L70.5562 36.0237C70.4974 35.9902 70.4909 35.9382 70.5421 35.9088L71.083 35.5929C71.1143 35.5785 71.1486 35.5717 71.1831 35.5729C71.2176 35.5741 71.2514 35.5834 71.2816 35.6L71.9009 35.9586C71.9597 35.9935 71.9656 36.0446 71.9145 36.0742Z" fill="white"/>
<path d="M72.8124 35.5502L72.2715 35.8661C72.24 35.8806 72.2056 35.8874 72.171 35.8862C72.1364 35.8849 72.1026 35.8755 72.0723 35.8588L71.453 35.5002C71.3948 35.4659 71.3883 35.4139 71.44 35.3843L71.9798 35.0687C72.0113 35.0541 72.0459 35.0472 72.0806 35.0485C72.1153 35.0498 72.1492 35.0594 72.1795 35.0763L72.7983 35.4349C72.857 35.4684 72.863 35.5203 72.8124 35.5502Z" fill="white"/>
<path d="M73.7079 35.0268L73.1675 35.3424C73.1363 35.3572 73.1019 35.3643 73.0673 35.363C73.0327 35.3617 72.999 35.3522 72.9689 35.3351L72.3497 34.9773C72.2909 34.943 72.2849 34.8911 72.3361 34.8614L72.877 34.5458C72.9084 34.5312 72.9428 34.5243 72.9775 34.5255C73.0121 34.5268 73.0459 34.5363 73.0761 34.5531L73.6943 34.9117C73.7531 34.9457 73.7591 34.9972 73.7079 35.0268Z" fill="white"/>
<path d="M74.6048 34.5035L74.0651 34.8194C74.0335 34.8337 73.9991 34.8404 73.9646 34.8391C73.93 34.8378 73.8963 34.8285 73.8659 34.8118L73.2461 34.4529C73.1884 34.4192 73.1824 34.3675 73.2336 34.3376L73.7739 34.0217C73.8053 34.0072 73.8396 34.0003 73.8741 34.0016C73.9087 34.003 73.9424 34.0124 73.9725 34.0293L74.5918 34.3882C74.65 34.4217 74.656 34.4736 74.6048 34.5035Z" fill="white"/>
<path d="M75.5014 33.9801L74.961 34.296C74.9297 34.3105 74.8953 34.3174 74.8608 34.3161C74.8262 34.3148 74.7925 34.3053 74.7624 34.2883L74.1431 33.9298C74.0844 33.896 74.0784 33.8441 74.1295 33.8146L74.671 33.4987C74.7022 33.4843 74.7365 33.4774 74.7709 33.4787C74.8054 33.4799 74.839 33.4893 74.8691 33.5061L75.4878 33.865C75.5466 33.8987 75.5525 33.9504 75.5014 33.9801Z" fill="white"/>
<path d="M76.3987 33.4566L75.8572 33.7722C75.826 33.7866 75.7917 33.7934 75.7573 33.7921C75.7229 33.7908 75.6893 33.7815 75.6592 33.7649L75.0399 33.406C74.9811 33.3717 74.9751 33.3195 75.0257 33.2901L75.5672 32.9748C75.5984 32.96 75.6327 32.953 75.6672 32.9542C75.7016 32.9555 75.7353 32.9651 75.7653 32.9821L76.3851 33.3413C76.4428 33.3745 76.4499 33.4261 76.3987 33.4566Z" fill="white"/>
<path d="M78.2564 33.7175L77.3024 34.2744C77.2602 34.2938 77.214 34.303 77.1676 34.3012C77.1212 34.2994 77.0758 34.2866 77.0352 34.2641L76.3589 33.8723C76.28 33.8263 76.2724 33.7569 76.3409 33.7166L77.2949 33.16C77.337 33.1405 77.3831 33.1312 77.4294 33.133C77.4758 33.1348 77.521 33.1476 77.5615 33.1703L78.2379 33.5618C78.3163 33.6073 78.325 33.6769 78.2564 33.7175Z" fill="white"/>
<path d="M80.5822 32.3598L79.7812 32.8277C79.741 32.8464 79.6969 32.8552 79.6526 32.8535C79.6084 32.8518 79.5651 32.8396 79.5265 32.8179L78.837 32.4191C78.7619 32.3753 78.7538 32.3086 78.8196 32.2705L79.6206 31.8028C79.6609 31.7843 79.705 31.7754 79.7493 31.777C79.7936 31.7786 79.837 31.7907 79.8758 31.8121L80.5648 32.2112C80.6404 32.255 80.648 32.3217 80.5822 32.3598Z" fill="white"/>
<path d="M79.3539 33.0769L78.6596 33.4815C78.6218 33.4992 78.5803 33.5078 78.5385 33.5063C78.4968 33.5048 78.456 33.4934 78.4196 33.473L77.7149 33.0646C77.6441 33.0238 77.636 32.9612 77.6985 32.9247L78.3929 32.5191C78.4309 32.5018 78.4724 32.4937 78.514 32.4953C78.5557 32.497 78.5964 32.5084 78.6329 32.5286L79.3382 32.9373C79.4083 32.9778 79.4159 33.0407 79.3539 33.0769Z" fill="white"/>
<path d="M77.2948 32.9325L76.7539 33.2487C76.7225 33.2632 76.6882 33.2701 76.6537 33.2688C76.6192 33.2675 76.5854 33.2581 76.5552 33.2414L75.9366 32.8822C75.8778 32.8482 75.8718 32.797 75.9224 32.7674L76.4633 32.4518C76.4946 32.4371 76.5289 32.4301 76.5634 32.4313C76.5979 32.4325 76.6317 32.4418 76.6619 32.4586L77.2817 32.8175C77.3399 32.852 77.346 32.9032 77.2948 32.9325Z" fill="white"/>
<path d="M79.4462 31.6766L77.6564 32.7217C77.6233 32.7372 77.5869 32.7447 77.5503 32.7434C77.5136 32.7421 77.4779 32.7321 77.4459 32.7143L76.8391 32.3625C76.7776 32.3269 76.7716 32.2719 76.8249 32.2398L78.6153 31.1955C78.6483 31.18 78.6845 31.1726 78.721 31.174C78.7574 31.1754 78.793 31.1855 78.8248 31.2034L79.4316 31.5544C79.4941 31.5906 79.5001 31.645 79.4462 31.6766Z" fill="white"/>
<path d="M87.1465 36.8003H87.3745V36.9481H87.1465V36.8003Z" fill="#4E3ED2"/>
<path d="M79.28 38.4217H79.4912V38.4568L84.7593 35.4165L87.3794 36.9533L81.9068 40.1117L79.2861 38.5749L79.2901 38.5727H79.28V38.4217Z" fill="#7A9E9F"/>
<path d="M81.9068 39.9585L87.3794 36.7995L84.7593 35.2627L79.2861 38.4216L81.9068 39.9585Z" fill="#4F6367"/>
<path d="M93.6108 12.4112L92.7193 11.8467L91.2443 13.9853L91.7358 16.3881L93.6108 12.4112Z" fill="#B8D8D8"/>
<path d="M72.767 36.2384L90.6803 25.8995L92.7192 11.8467L74.8076 22.1856L72.767 36.2384Z" fill="#B8D8D8"/>
<path d="M74.8072 22.1851L75.6982 22.7495L74.2065 35.5826L73.6599 36.8024L72.7667 36.2379L74.8072 22.1851Z" fill="#7A9E9F"/>
<path d="M73.6602 36.8024L91.5719 26.4629L93.6108 12.4106L75.6986 22.7495L73.6602 36.8024Z" fill="#4F6367"/>
<path opacity="0.4" d="M93.6108 12.4106L86.0035 26.3476L75.6986 22.7495L93.6108 12.4106Z" fill="#C8D5F5"/>
<path d="M87.7598 22.8589L86.8682 22.2944L85.3932 24.4331L85.8847 26.8359L87.7598 22.8589Z" fill="#B8D8D8"/>
<path d="M81.4 38.3739L84.8292 36.3473L86.8682 22.2944L83.4406 24.3211L81.4 38.3739Z" fill="#B8D8D8"/>
<path d="M83.4405 24.3213L84.3315 24.8852L82.8398 37.7188L82.2932 38.9386L81.3999 38.3741L83.4405 24.3213Z" fill="#7A9E9F"/>
<path d="M82.2933 38.9389L85.7209 36.9117L87.7598 22.8594L84.3317 24.8855L82.2933 38.9389Z" fill="#4F6367"/>
<path d="M57.63 49.096L64.5225 45.3107L57.7236 41.3237L50.8307 45.1084L57.63 49.096Z" fill="#4F6367"/>
<path d="M57.5376 46.5865C56.1017 46.5865 54.9376 45.8104 54.9376 44.8531C54.9376 43.8957 56.1017 43.1196 57.5376 43.1196C58.9736 43.1196 60.1377 43.8957 60.1377 44.8531C60.1377 45.8104 58.9736 46.5865 57.5376 46.5865Z" fill="white"/>
<g opacity="0.4">
<mask id="path-104-inside-1_5301_2" fill="white">
<path d="M55.065 44.3784C55.1825 45.2632 56.2839 45.9598 57.6422 45.9598C58.8105 45.9598 59.7867 45.4428 60.1149 44.7359C60.1257 44.7861 60.1333 44.8369 60.1377 44.8881C60.1377 45.8456 58.9738 46.6215 57.5377 46.6215C56.1016 46.6215 54.9376 45.8456 54.9376 44.8881C54.9423 44.7109 54.9857 44.5369 55.065 44.3784Z"/>
</mask>
<path d="M55.065 44.3784C55.1825 45.2632 56.2839 45.9598 57.6422 45.9598C58.8105 45.9598 59.7867 45.4428 60.1149 44.7359C60.1257 44.7861 60.1333 44.8369 60.1377 44.8881C60.1377 45.8456 58.9738 46.6215 57.5377 46.6215C56.1016 46.6215 54.9376 45.8456 54.9376 44.8881C54.9423 44.7109 54.9857 44.5369 55.065 44.3784Z" fill="#8578FE"/>
<path d="M60.1149 44.7359L59.2078 44.3149L60.462 41.6131L61.0922 44.5244L60.1149 44.7359ZM60.1377 44.8881L61.1341 44.8032L61.1377 44.8456V44.8881H60.1377ZM54.9376 44.8881H53.9376V44.875L53.938 44.8619L54.9376 44.8881ZM56.0562 44.2467C56.0638 44.3037 56.1228 44.4699 56.4148 44.6507C56.698 44.8261 57.1261 44.9598 57.6422 44.9598V46.9598C56.8 46.9598 55.9982 46.7452 55.3618 46.3511C54.7342 45.9624 54.1837 45.3379 54.0737 44.5101L56.0562 44.2467ZM57.6422 44.9598C58.5928 44.9598 59.1052 44.5359 59.2078 44.3149L61.0219 45.157C60.4682 46.3498 59.0282 46.9598 57.6422 46.9598V44.9598ZM61.0922 44.5244C61.1122 44.6166 61.1261 44.7098 61.1341 44.8032L59.1413 44.9729C59.1405 44.9641 59.1393 44.9556 59.1375 44.9475L61.0922 44.5244ZM61.1377 44.8881C61.1377 45.8051 60.5803 46.513 59.9309 46.9459C59.2746 47.3834 58.4256 47.6215 57.5377 47.6215V45.6215C58.0859 45.6215 58.5368 45.4716 58.8215 45.2818C59.1131 45.0874 59.1377 44.9285 59.1377 44.8881H61.1377ZM57.5377 47.6215C56.6498 47.6215 55.8007 47.3834 55.1444 46.9459C54.495 46.513 53.9376 45.8051 53.9376 44.8881H55.9376C55.9376 44.9285 55.9622 45.0874 56.2538 45.2818C56.5385 45.4716 56.9895 45.6215 57.5377 45.6215V47.6215ZM53.938 44.8619C53.9464 44.5384 54.0258 44.2208 54.1705 43.9313L55.9594 44.8255C55.9456 44.8531 55.9381 44.8834 55.9373 44.9142L53.938 44.8619Z" fill="#7A9E9F" mask="url(#path-104-inside-1_5301_2)"/>
</g>
<g opacity="0.4">
<path d="M60.0571 43.7963C60.0571 43.7963 58.1242 43.5003 56.9401 46.687" stroke="#7A9E9F" stroke-width="0.5" stroke-miterlimit="10"/>
<path d="M60.04 46.2517C60.0052 46.1995 59.9878 44.4755 58.6296 44.2144" stroke="#7A9E9F" stroke-width="0.5" stroke-miterlimit="10"/>
</g>
<path opacity="0.65" d="M72.1184 51.3074L77.0605 48.6076L70.2617 44.6206L65.3191 47.3204L72.1184 51.3074Z" fill="#4F6367"/>
<path d="M74.0687 49.218L79.0107 46.5182L72.2119 42.5312L67.2693 45.231L74.0687 49.218Z" fill="#BDBDBD"/>
<path d="M50.5089 39.963C50.6015 39.8213 50.7244 39.7018 50.8686 39.6132C51.0128 39.5246 51.1749 39.469 51.3432 39.4504C51.5656 39.2894 51.834 39.2042 52.1086 39.2076C52.3832 39.211 52.6495 39.3027 52.8679 39.4692C53.9949 40.2764 55.3788 40.641 56.4171 41.5871C56.7259 41.8675 56.9513 42.2277 57.0686 42.6279C57.186 43.0282 57.1906 43.4531 57.082 43.8559C56.9734 44.2586 56.7559 44.6236 56.4532 44.9107C56.1506 45.1978 55.7747 45.3958 55.3668 45.4831C53.7876 45.833 52.3063 44.5515 51.4498 43.5444C51.2545 43.3148 51.0823 43.0665 50.9356 42.803C51.0341 42.9823 50.6858 42.0801 50.8605 42.5693C50.7985 42.3965 50.7277 42.2256 50.6592 42.0551C50.3713 41.3313 50.0333 40.7191 50.5089 39.963Z" fill="#F0A681"/>
<path d="M51.0155 20.1491C48.016 27.647 50.5943 34.1289 54.5662 40.6538C56.2744 43.4614 51.1793 45.6286 49.4858 42.8487C44.7766 35.1117 42.3224 27.2375 45.8399 18.4478C47.0708 15.3732 52.2464 17.0732 51.0155 20.1491Z" fill="#7A9E9F"/>
</svg>
