<svg width="137" height="111" viewBox="0 0 137 111" fill="none" xmlns="http://www.w3.org/2000/svg">
<path d="M129.95 75.3784L86.0081 100.964C76.6467 106.414 61.4223 106.414 51.9998 100.964L7.77006 75.379C3.02859 72.6362 0.660461 69.0362 0.670617 65.4419L0.656283 70.5338C0.646126 74.1282 3.01413 77.7281 7.75573 80.4708L51.9853 106.056C61.408 111.506 76.6322 111.506 85.9936 106.056L129.936 80.4703C134.586 77.7625 136.915 74.2194 136.924 70.6708L136.939 65.5789C136.929 69.1274 134.601 72.6705 129.95 75.3784Z" fill="#7A9E9F"/>
<path d="M129.839 55.642C139.262 61.0925 139.311 69.9279 129.95 75.3785L86.0079 100.964C76.6466 106.414 61.4221 106.415 51.9996 100.964L7.76988 75.3791C-1.65263 69.9287 -1.70225 61.0933 7.65907 55.6425L51.6013 30.0574C60.9626 24.6066 76.187 24.6065 85.6095 30.0571L129.839 55.642Z" fill="#F6F5FF"/>
<path opacity="0.2" d="M69.8476 0.971169C47.6456 0.325694 28.4164 16.1847 25.5095 36.9923C22.333 59.7422 39.8168 80.2122 61.3332 83.4903C88.0948 87.5694 114.048 63.9767 111.719 38.3848C109.961 19.1012 92.4178 1.6286 69.8476 0.971169Z" fill="#7A9E9F"/>
<path d="M86.7415 8.57067C85.8104 7.50982 84.559 6.88228 83.2148 6.80458L43.7146 4.49163L43.6577 4.48864C40.4154 4.33026 37.724 6.80458 37.6911 10.011L37.0803 73.3991C37.0654 74.9709 37.6791 76.3993 38.8048 77.4183C39.9274 78.4344 41.4184 78.9185 43.0051 78.787L82.61 75.4939L82.6579 75.4909C85.4032 75.2339 87.6336 72.6639 87.6576 69.7563L88.1605 12.4077C88.1725 10.9882 87.6695 9.62555 86.7415 8.57067Z" fill="#4F6367"/>
<path d="M83.2145 75.4906L43.6096 78.7838C42.0258 78.9152 40.5319 78.4311 39.4093 77.4151C38.2836 76.3961 37.6699 74.9677 37.6848 73.3958L38.2986 10.0108C38.3285 6.80435 41.0229 4.32705 44.2652 4.48841L44.3221 4.4914L83.8222 6.80136C85.1665 6.87906 86.4179 7.50959 87.3489 8.56746C88.277 9.62233 88.78 10.985 88.768 12.4015L88.265 69.7501C88.2411 72.6577 86.0077 75.2277 83.2654 75.4847C83.2624 75.4876 83.2145 75.4906 83.2145 75.4906Z" fill="#7A9E9F"/>
<path d="M88.0979 12.3739L87.8435 41.4472L87.595 69.8003C87.571 72.3463 85.625 74.5666 83.221 74.7638L43.6191 77.9972C40.778 78.2303 38.4757 76.1444 38.5027 73.3384L38.7991 42.5857L39.1134 10.049C39.1404 7.24898 41.4815 5.11234 44.3136 5.27371L83.8168 7.52689C86.2118 7.66435 88.1189 9.83387 88.0979 12.3739Z" fill="white"/>
<path opacity="0.5" d="M87.9688 41.4507L87.7204 69.7948C87.6964 72.3408 85.7504 74.5612 83.3494 74.7554L43.7684 77.9858C40.9303 78.2188 38.6281 76.136 38.655 73.33L38.9514 42.5892L87.9688 41.4507Z" fill="#D8DEE8"/>
<path d="M72.2001 18.3187C72.1612 22.6458 68.7303 26.0943 64.4701 26.0166C60.1381 25.9389 56.6054 22.2543 56.6473 17.7898C56.6893 13.3253 60.2878 9.88572 64.6168 10.1009C68.871 10.316 72.239 13.9917 72.2001 18.3187Z" fill="#B8D8D8"/>
<path opacity="0.44" d="M83.5708 30.8341L43.873 30.8759V28.1895L83.5708 28.3538V30.8341Z" fill="#B8D8D8"/>
<path opacity="0.44" d="M77.9456 35.6596L50.1362 35.9584V33.2002L77.9456 33.0508V35.6596Z" fill="#B8D8D8"/>
<path d="M59.5817 49.1845C59.5817 48.784 59.2823 48.4732 58.8871 48.4852L43.4211 49.038C43.002 49.053 42.7026 49.3996 42.7026 49.812V68.6563C42.7026 69.0687 43.011 69.3795 43.4301 69.3466L58.9021 68.1931C59.2973 68.1632 59.5787 67.8166 59.5787 67.4161V49.1845H59.5817Z" fill="#D8DEE8"/>
<path d="M54.8751 54.8479C54.8751 56.9785 53.1507 58.8014 51.0041 58.9209C48.8426 59.0405 47.0732 57.3849 47.0732 55.2214C47.0732 53.0579 48.8396 51.232 51.0041 51.1453C53.1477 51.0587 54.8751 52.7172 54.8751 54.8479Z" fill="white"/>
<path d="M56.8424 66.0478C56.8514 65.9432 56.8544 65.8057 56.8544 65.6802C56.8544 62.6232 54.2438 60.2983 50.9865 60.4895C47.6873 60.6808 44.981 63.3732 44.981 66.502C44.981 66.6305 44.9869 66.7709 44.9959 66.8785L56.8424 66.0478Z" fill="white"/>
<path d="M74.9726 50.1403L62.6621 50.6274V48.3503L74.9726 47.917V50.1403Z" fill="#E0EEEE"/>
<path d="M84.6336 53.4104L62.6621 54.4593V52.1822L84.6336 51.2319V53.4104Z" fill="#E0EEEE"/>
<path d="M83.9959 58.4998L62.6621 59.74V57.5645L83.9959 56.417V58.4998Z" fill="#E0EEEE"/>
<path d="M83.9959 61.8704L62.6621 63.26V60.9829L83.9959 59.689V61.8704Z" fill="#E0EEEE"/>
<path opacity="0.3" d="M57.8725 58.6488C58.9593 44.9683 67.1713 39.0903 66.6384 27.146C66.3839 21.4324 64.1445 14.1827 56.5134 5.60328L44.3136 4.89804C41.4815 4.73368 39.1404 6.87033 39.1134 9.67037L38.5027 72.9598C38.4757 75.7658 40.778 77.8516 43.6191 77.6215L60.7705 76.232C58.618 70.9845 57.3636 65.0736 57.8725 58.6488Z" fill="#D8DEE8"/>
<path d="M69.2039 68.2506H68.4196V67.2615C68.4196 66.9447 68.1801 66.6728 67.8657 66.6309L64.4438 66.1857C64.2582 66.1618 64.0816 66.2156 63.9408 66.3381C63.8001 66.4606 63.7253 66.6309 63.7253 66.8162V67.7247H62.9409V66.8162C62.9409 66.4068 63.1176 66.0213 63.4229 65.7494C63.7313 65.4804 64.1384 65.3549 64.5426 65.4087L67.9645 65.854C68.671 65.9466 69.2009 66.5502 69.2009 67.2615V68.2506H69.2039Z" fill="black"/>
<path d="M56.4057 67.8766L60.5701 67.1235L60.1928 83.5981L57.1182 83.096C56.8458 83.0512 56.6392 82.8211 56.6242 82.5462L55.9207 68.4892C55.9057 68.1904 56.1123 67.9304 56.4057 67.8766Z" fill="#7A9E9F"/>
<path d="M74.4968 69.1705L73.5388 81.0999C73.5358 81.1417 73.5268 81.1835 73.5178 81.2254C73.437 81.569 73.1526 81.835 72.7933 81.8858L60.1895 83.5981L60.5667 67.1235L61.4528 67.1982L73.7094 68.2412C74.1825 68.283 74.5357 68.6954 74.4968 69.1705Z" fill="#A5D1DA"/>
<path d="M58.3726 67.5205L57.9834 67.5922C58.0493 70.5238 58.2648 79.8443 58.3367 83.2928L58.7289 83.3585C58.657 79.9339 58.4385 70.4281 58.3726 67.5205Z" fill="black"/>
<path d="M60.2823 45.237L58.2076 46.25C58.0579 46.3218 58.0041 46.5011 58.0879 46.6475L59.971 49.9496C60.0548 50.096 60.2344 50.1378 60.3721 50.0422L62.2762 48.7274C62.39 48.6467 62.4229 48.4763 62.3481 48.3449L60.6476 45.3625C60.5667 45.234 60.4051 45.1743 60.2823 45.237Z" fill="url(#paint0_linear_5301_4)"/>
<path d="M60.339 45.2043L58.2643 46.2173C58.1146 46.289 58.0607 46.4683 58.1445 46.6148L60.0276 49.9169C60.1114 50.0633 60.2911 50.1051 60.4288 50.0095L62.3328 48.6946C62.4466 48.614 62.4795 48.4436 62.4047 48.3121L60.7042 45.3298C60.6264 45.2013 60.4647 45.1415 60.339 45.2043Z" fill="url(#paint1_linear_5301_4)"/>
<path opacity="0.3" d="M60.7641 46.6383C60.9857 47.0238 60.8749 47.5109 60.5067 47.729C60.1265 47.9561 59.6235 47.8127 59.39 47.4033C59.1565 46.9939 59.2942 46.4919 59.6864 46.2886C60.0666 46.0944 60.5456 46.2528 60.7641 46.6383Z" fill="white"/>
<path opacity="0.3" d="M60.6476 46.7047C60.8302 47.0215 60.7374 47.4219 60.4351 47.6012C60.1237 47.7835 59.7135 47.6669 59.5219 47.3323C59.3333 47.0006 59.4441 46.5912 59.7614 46.4208C60.0728 46.2595 60.465 46.3879 60.6476 46.7047Z" fill="white"/>
<path opacity="0.5" d="M61.6296 48.1568L60.3063 49.0114L60.1387 48.7216L61.4739 47.8818L61.6296 48.1568Z" fill="white"/>
<path opacity="0.5" d="M61.7761 48.4104L60.4588 49.277L60.375 49.1336L61.6953 48.2729L61.7761 48.4104Z" fill="white"/>
<path opacity="0.3" d="M60.5756 48.6137C60.2193 47.8726 60.4558 47.3317 60.0696 46.7281C59.884 46.4382 59.5517 46.1274 58.905 45.9033L58.2613 46.2171C58.1117 46.2888 58.0578 46.4681 58.1416 46.6145L60.0247 49.9166C60.1085 50.063 60.2881 50.1049 60.4259 50.0093L61.2521 49.4385C60.9857 49.2323 60.7432 48.9604 60.5756 48.6137Z" fill="url(#paint2_linear_5301_4)"/>
<path d="M84.9364 81.781C84.9753 81.5629 85.6789 81.3686 86.0261 81.6585C86.1998 81.802 86.3165 82.0948 86.2177 82.2263C86.1818 82.2741 86.3315 82.3578 86.1878 82.3608C85.7148 82.3667 84.8975 81.9962 84.9364 81.781Z" fill="url(#paint3_linear_5301_4)"/>
<path d="M85.6724 81.8587L86.3939 81.7571C86.0586 81.3537 86.1215 80.0747 86.1215 80.0747L85.3521 80.245C85.3521 80.245 85.4389 80.5977 85.5886 81.1146C85.6395 81.2939 85.6634 81.5718 85.6724 81.8587Z" fill="url(#paint4_linear_5301_4)"/>
<path d="M85.6068 81.7718C85.6068 81.7718 86.475 81.5716 86.5708 81.7449C86.6636 81.9183 86.7385 82.3785 86.1876 82.3635C85.6338 82.3456 85.5589 81.9153 85.6068 81.7718Z" fill="url(#paint5_linear_5301_4)"/>
<path d="M75.0234 82.5936C75.0923 82.3844 75.8168 82.2887 76.1192 82.6234C76.2688 82.7908 76.3467 83.0956 76.2299 83.2151C76.188 83.257 76.3227 83.3616 76.182 83.3436C75.712 83.2839 74.9546 82.8027 75.0234 82.5936Z" fill="url(#paint6_linear_5301_4)"/>
<path d="M60.7969 49.9225L60.0665 49.8687C60.0665 49.8687 59.4437 49.7432 59.1743 49.038C59.2432 49.2203 58.8989 48.3328 59.3 48.2461L59.5545 48.6884C59.5545 48.6884 59.7162 48.9752 60.2131 49.0798C60.7401 49.2651 61.0185 49.5161 61.0185 49.5161L60.7969 49.9225Z" fill="url(#paint7_linear_5301_4)"/>
<path d="M75.7421 82.7766H76.4726C76.1972 82.3313 76.4396 81.0732 76.4396 81.0732L75.6553 81.136C75.6553 81.136 75.6912 81.4976 75.766 82.0295C75.79 82.2118 75.775 82.4897 75.7421 82.7766Z" fill="url(#paint8_linear_5301_4)"/>
<path d="M73.8527 55.2388C73.5144 56.3535 73.0324 58.1495 72.721 60.4056C71.8349 66.8395 73.718 67.0457 73.3677 74.1728C73.2539 76.4499 75.3436 81.6973 75.5262 81.8109C75.616 81.8199 75.7119 81.8258 75.8136 81.8228C75.9963 81.8169 76.2507 81.79 76.5501 81.7003C76.8794 81.6436 78.074 78.4192 77.7955 76.5037C77.6009 75.147 77.6578 73.6917 77.7686 70.781C77.7866 70.3089 78.996 61.6039 78.996 61.6039C79.3643 64.8253 79.7864 67.5656 80.1546 69.6873C81.3342 76.5066 85.1633 80.6365 85.3639 80.7022C85.4028 80.7172 85.762 80.8487 86.0554 80.6544C86.1871 80.5678 86.2321 80.4572 86.2321 80.4572C86.3338 80.3765 86.2021 73.6468 85.0345 68.5846C83.34 61.2334 84.0765 59.5151 83.5406 56.231C83.0736 53.3921 73.8527 55.2388 73.8527 55.2388Z" fill="url(#paint9_linear_5301_4)"/>
<path d="M80.7032 41.9081C79.5775 41.8752 77.395 41.5076 75.97 42.7896C75.946 42.8105 75.8293 42.939 75.6856 43.1064C75.5509 43.2618 75.0928 43.8086 74.6797 44.5467C74.3803 45.0816 74.1078 45.7062 73.8324 46.6356C73.3504 48.2761 73.2097 49.6717 73.1648 50.2783C72.9043 53.6999 73.1618 55.2778 73.3983 56.3506C74.4162 56.8735 77.0388 57.8059 80.1643 57.3427C81.5923 57.1305 82.733 56.6554 83.5383 56.234C82.727 53.7836 83.3647 52.4717 83.664 51.2615C84.2568 48.8738 84.3915 47.9385 86.0651 44.5049C86.5261 43.5576 85.4304 44.0895 84.7268 43.2588C83.6521 41.9828 81.7091 41.9379 80.7032 41.9081Z" fill="#7A9E9F"/>
<path d="M83.3105 53.446C83.3105 53.446 83.1548 53.5506 82.9123 53.4968C82.6728 53.446 82.3794 53.2458 82.1159 53.1621C81.8555 53.0784 81.8345 53.4639 82.2207 53.6641C82.6069 53.8614 82.9422 54.2588 83.0889 54.5636C83.2356 54.8654 83.6009 54.199 83.6009 54.199L83.3105 53.446Z" fill="url(#paint10_linear_5301_4)"/>
<path d="M82.4242 42.1142C83.0199 42.0903 86.7801 42.3443 89.0135 44.3674C89.4626 44.7738 91.5972 46.7103 91.4175 49.4774C91.199 52.7974 87.7621 55.6094 85.1186 55.209C84.5019 55.1164 84.0019 54.8594 83.6277 54.6024L83.1876 53.3592C83.1816 52.4717 83.6666 51.8501 83.9181 51.5095C84.5348 50.6638 85.412 50.5174 85.5437 49.7673C85.6156 49.3519 85.412 49.0142 85.2324 48.7094C84.6156 47.6785 83.6337 47.55 83.1217 47.021C82.5948 46.4802 80.9392 44.8157 82.4242 42.1142Z" fill="#7A9E9F"/>
<path d="M75.6911 82.6778C75.6911 82.6778 76.5802 82.6001 76.6491 82.7854C76.7179 82.9677 76.7269 83.4368 76.1821 83.3442C75.6372 83.2515 75.6222 82.8182 75.6911 82.6778Z" fill="url(#paint11_linear_5301_4)"/>
<path d="M77.7209 42.3177C76.4905 41.5168 73.2692 44.024 72.2932 44.7143C68.512 47.3949 67.9731 50.5565 66.0691 50.4071C64.7818 50.3055 64.0123 48.7814 61.9287 48.9099C61.5604 48.9338 61.264 48.9996 61.0754 49.0534C61.0724 49.0564 60.5934 49.6152 60.5904 49.6182C60.4018 49.7735 60.2132 49.926 60.1054 50.1829C60.0725 50.6192 60.0875 51.1332 60.2102 51.6861C60.2102 51.6861 60.3659 52.1104 60.6892 52.4959C61.3718 53.3147 64.0423 55.0897 67.2307 54.3815C67.7636 54.262 68.024 54.1395 70.1436 53.0039C75.7959 49.9768 76.2689 49.6152 76.736 48.9039C78.0532 46.8988 78.9125 43.0887 77.7209 42.3177Z" fill="#7A9E9F"/>
<path d="M77.5325 40.6196C77.1852 40.0309 77.3379 39.3585 77.3738 39.2121C77.5205 38.6025 77.5744 38.5128 77.6882 38.3813L77.8468 38.214C77.8468 38.214 77.8558 38.208 77.8678 38.199C77.9786 38.1213 78.3947 37.9988 78.4845 37.9928C78.7719 37.9779 79.3527 39.0029 79.688 40.5837C79.715 40.6405 79.7419 40.6973 79.7689 40.754C79.9335 41.1126 80.0772 41.4653 80.197 41.8089C82.131 41.9733 82.4004 42.2004 82.4094 42.3289C82.4273 42.6038 81.3256 42.9235 80.4963 43.0431C78.6881 43.3061 76.8289 42.8309 76.8379 42.4932C76.8409 42.3468 77.2002 42.1556 78.733 41.9553C78.6971 41.7013 78.6611 41.4473 78.6252 41.1963C78.5025 41.1724 77.7899 41.0529 77.5325 40.6196Z" fill="url(#paint12_linear_5301_4)"/>
<path d="M77.5325 40.6196C77.1852 40.0309 77.3379 39.3585 77.3738 39.2121C77.5205 38.6025 77.5744 38.5128 77.6882 38.3813L77.8468 38.214C77.8468 38.214 77.8558 38.208 77.8678 38.199C77.9786 38.1213 78.3947 37.9988 78.4845 37.9928C78.7719 37.9779 79.3527 39.0029 79.688 40.5837C79.715 40.6405 79.7419 40.6973 79.7689 40.754C79.9335 41.1126 80.0772 41.4653 80.197 41.8089C82.131 41.9733 82.4004 42.2004 82.4094 42.3289C82.4273 42.6038 81.3256 42.9235 80.4963 43.0431C78.6881 43.3061 76.8289 42.8309 76.8379 42.4932C76.8409 42.3468 77.2002 42.1556 78.733 41.9553C78.6971 41.7013 78.6611 41.4473 78.6252 41.1963C78.5025 41.1724 77.7899 41.0529 77.5325 40.6196Z" fill="url(#paint13_linear_5301_4)"/>
<path d="M77.3948 38.0086C77.3499 38.3493 77.5594 38.7198 77.8019 38.9111C77.9486 39.0276 78.0055 39.0067 78.0714 39.1053C78.26 39.3802 77.8708 39.8673 77.9995 39.9779C78.0923 40.0586 78.3139 39.8285 78.4486 39.9152C78.5983 40.0078 78.4097 40.3335 78.5474 40.7519C78.5534 40.7728 78.5564 40.7818 78.5594 40.7877C78.6492 41.0208 78.8887 41.1284 78.9545 41.1553C79.2599 41.2898 79.709 41.1941 79.9874 40.9372C80.1281 40.8057 80.1431 40.713 80.3826 40.0227C80.688 39.1412 80.7239 39.1412 80.7269 38.9679C80.7299 38.8633 80.7359 38.2477 80.2928 37.7337C79.712 37.0613 78.6582 36.9179 77.9816 37.2944C77.8738 37.3542 77.4517 37.5873 77.3948 38.0086Z" fill="#26264F"/>
<path d="M78.1428 39.8194C78.2177 39.6252 78.4662 39.7238 78.5231 39.933C78.5799 40.1422 78.4332 40.4171 78.2267 40.4261C78.0171 40.438 78.041 40.0794 78.1428 39.8194Z" fill="url(#paint14_linear_5301_4)"/>
<path d="M78.1428 39.8194C78.2177 39.6252 78.4662 39.7238 78.5231 39.933C78.5799 40.1422 78.4332 40.4171 78.2267 40.4261C78.0171 40.438 78.041 40.0794 78.1428 39.8194Z" fill="url(#paint15_linear_5301_4)"/>
<path d="M73.1464 51.4654C73.1315 51.4654 73.1135 51.4564 73.1075 51.4385C73.0985 51.4176 73.1105 51.3937 73.1315 51.3877C73.1494 51.3817 74.8918 50.7004 76.5174 49.0957C76.5324 49.0807 76.5594 49.0807 76.5743 49.0957C76.5893 49.1106 76.5893 49.1375 76.5743 49.1525C74.9367 50.7661 73.1764 51.4535 73.1584 51.4624C73.1554 51.4654 73.1494 51.4654 73.1464 51.4654Z" fill="#9B305E"/>
<path d="M83.6162 49.1905L81.817 50.069C81.6882 50.1318 81.6403 50.2872 81.7122 50.4127L83.3438 53.2725C83.4157 53.398 83.5713 53.4339 83.6911 53.3532L85.3407 52.2146C85.4395 52.1459 85.4664 51.9995 85.4035 51.8829L83.9306 49.301C83.8647 49.1875 83.724 49.1367 83.6162 49.1905Z" fill="url(#paint16_linear_5301_4)"/>
<path d="M83.667 49.1609L81.8677 50.0394C81.739 50.1022 81.6911 50.2576 81.763 50.3831L83.3946 53.2429C83.4664 53.3684 83.6221 53.4043 83.7419 53.3236L85.3914 52.185C85.4902 52.1163 85.5172 51.9699 85.4543 51.8533L83.9814 49.2714C83.9155 49.1579 83.7748 49.1101 83.667 49.1609Z" fill="url(#paint17_linear_5301_4)"/>
<path opacity="0.3" d="M84.0354 50.4039C84.227 50.7386 84.1312 51.16 83.8108 51.3512C83.4815 51.5485 83.0444 51.4229 82.8438 51.0703C82.6433 50.7177 82.76 50.2814 83.1013 50.1051C83.4306 49.9348 83.8468 50.0692 84.0354 50.4039Z" fill="white"/>
<path opacity="0.3" d="M83.9338 50.4608C84.0894 50.7357 84.0116 51.0824 83.7481 51.2378C83.4787 51.3962 83.1224 51.2946 82.9578 51.0047C82.7931 50.7148 82.8889 50.3622 83.1644 50.2158C83.4368 50.0753 83.7781 50.1859 83.9338 50.4608Z" fill="white"/>
<path opacity="0.5" d="M84.7865 51.7195L83.6369 52.4606L83.4932 52.2096L84.6488 51.4834L84.7865 51.7195Z" fill="white"/>
<path opacity="0.5" d="M84.9098 51.9373L83.7691 52.6904L83.6973 52.5649L84.8439 51.8208L84.9098 51.9373Z" fill="white"/>
<path opacity="0.3" d="M83.8706 52.1163C83.5622 51.4768 83.7688 51.0077 83.4335 50.4847C83.2718 50.2337 82.9844 49.9647 82.4246 49.7705L81.8677 50.0424C81.739 50.1052 81.6911 50.2606 81.763 50.3861L83.3946 53.2459C83.4664 53.3714 83.6221 53.4073 83.7419 53.3266L84.4574 52.8335C84.2269 52.6512 84.0173 52.4152 83.8706 52.1163Z" fill="url(#paint18_linear_5301_4)"/>
<path d="M96.6808 81.6943C96.9144 82.0649 96.8784 82.2412 96.8365 82.3189C96.7198 82.552 96.3575 82.3816 95.4863 82.5789C95.3845 82.6028 95.1899 82.6506 94.9354 82.6177C94.7199 82.5908 94.4594 82.5042 94.4624 82.4474C94.4654 82.4265 94.5013 82.4145 94.5133 82.4085C94.7528 82.3309 96.2378 81.7003 96.2378 81.7003L96.6808 81.6943Z" fill="url(#paint19_linear_5301_4)"/>
<path d="M96.708 80.8218L96.6631 81.7123C96.6631 81.7123 96.3129 82.0171 96.1811 81.7063C96.0853 81.4822 96.0225 80.8547 96.0225 80.8547L96.708 80.8218Z" fill="#D8DEE8"/>
<path d="M92.3013 81.7181L92.7773 82.6893L93.3042 82.5488L93.0827 81.6284L92.3013 81.7181Z" fill="#D8DEE8"/>
<path d="M93.0018 83.2279C93.2293 82.8932 93.4658 82.8962 93.4897 82.678C93.5077 82.5077 93.385 82.3135 93.2233 82.2537C92.9958 82.167 92.7503 82.3643 92.6964 82.4091C92.3222 82.7139 92.4749 83.1083 92.1126 83.3265C92.0408 83.3713 91.924 83.4221 91.8072 83.5536C91.7593 83.6104 91.6366 83.7508 91.6785 83.8315C91.7264 83.9271 91.9659 83.9002 92.1904 83.8734C92.4629 83.8405 92.6006 83.8255 92.7233 83.7299C92.891 83.5984 92.8251 83.4879 93.0018 83.2279Z" fill="url(#paint20_linear_5301_4)"/>
<path d="M97.3906 59.5605C97.5044 61.6105 97.3936 63.3796 97.211 64.8319C97.0134 66.3948 96.8457 66.6757 96.8308 67.7485C96.8008 70.0794 97.5762 70.3483 97.9295 72.9482C98.3217 75.8199 97.7409 78.1777 97.5134 79.0772C97.3128 79.8631 97.0882 80.5056 96.9146 80.9509C96.6691 81.2049 96.256 81.1481 95.8219 81.0973C95.4476 78.4945 95.0465 76.0471 94.6722 73.4442C93.837 69.5505 93.0047 65.6537 92.1694 61.7599C93.9088 61.0248 95.6512 60.2927 97.3906 59.5605Z" fill="url(#paint21_linear_5301_4)"/>
<path opacity="0.3" d="M95.8219 81.0967C95.4476 78.4939 95.0465 76.0465 94.6722 73.4437C93.837 69.5499 93.0047 65.6532 92.1694 61.7594C93.9088 61.0273 95.6512 60.2951 97.3906 59.563C97.3996 59.6975 97.4026 59.8289 97.4086 59.9634C95.0794 62.3481 94.7321 64.1112 94.8519 65.2856C94.9986 66.708 95.8398 67.3505 95.8578 69.4304C95.8728 70.9186 95.4476 71.2144 95.5584 72.5502C95.7021 74.2685 96.5194 75.1739 96.9625 76.1361C97.3906 77.0655 97.6271 78.4162 97.1152 80.4035C97.0433 80.6096 96.9745 80.7949 96.9146 80.9563C96.6691 81.2013 96.256 81.1475 95.8219 81.0967Z" fill="url(#paint22_linear_5301_4)"/>
<path d="M94.3878 61.7923C93.2562 64.1172 92.6694 65.9221 92.364 67.0338C92.1754 67.7121 92.0137 68.4144 92.0377 69.3168C92.0676 70.4225 92.361 71.307 92.5975 71.8718C92.9358 72.589 93.2562 73.4347 93.4957 74.3999C94.2681 77.5257 93.7441 80.2391 93.2891 81.811C92.9807 81.9544 92.6724 82.0978 92.364 82.2413C91.4778 80.2899 90.3582 77.5108 89.4331 74.0443C88.9271 72.1527 88.5379 70.6675 88.3763 68.752C88.2056 66.7319 88.2296 63.5165 89.5678 59.563C91.1725 60.3041 92.7801 61.0482 94.3878 61.7923Z" fill="url(#paint23_linear_5301_4)"/>
<path d="M92.1992 44.3737C90.2053 44.8877 88.6965 45.3748 88.0977 46.4894C87.463 47.6668 88.6875 48.4109 89.2054 50.8344C89.9988 54.5459 87.954 56.1237 88.8881 59.8502C89.2024 61.1052 89.7173 62.0525 90.0646 62.6143C90.7622 63.0925 91.8609 63.732 93.3099 64.1085C95.4205 64.6554 96.3965 64.1563 99.1688 64.0846C103.701 63.968 104.486 65.2201 106.459 64.246C108.453 63.2628 109.761 60.9469 109.246 60.0444C108.938 59.5035 108.141 59.9249 106.899 59.3332C105.3 58.5712 105.456 57.337 104.129 56.3987C102.228 55.0509 100.642 56.7035 99.0131 55.5291C97.3665 54.3427 96.9174 51.1631 97.4114 49.2058C97.7347 47.9268 97.6299 46.5761 97.8425 45.2762C97.8605 45.1686 97.8665 44.9983 97.7856 44.81C97.4713 44.0988 96.1181 44.0689 95.0942 44.0569C93.5374 44.039 92.3639 44.3319 92.1992 44.3737Z" fill="#C1DCDF"/>
<path opacity="0.3" d="M106.105 62.8444C105.447 62.4798 105.686 61.2755 104.71 60.7256C103.803 60.2176 103.195 61.0304 101.899 60.7495C100.235 60.388 100.19 58.8191 98.594 58.4515C97.4444 58.1856 97.166 58.9267 95.5553 59.091C93.9476 59.2554 91.7801 58.7653 90.3012 57.1725C89.6725 56.4942 89.2923 55.7501 89.0588 55.0479C88.7444 56.4733 88.3882 57.8539 88.8881 59.8531C89.2025 61.1081 89.7174 62.0554 90.0647 62.6172C90.7622 63.0954 91.861 63.7349 93.31 64.1114C95.4206 64.6583 96.3966 64.1592 99.1688 64.0875C103.701 63.9709 104.486 65.223 106.459 64.2489C107.731 63.6213 108.725 62.4499 109.141 61.4488C107.468 62.8892 106.584 63.1073 106.105 62.8444Z" fill="#C1DCDF"/>
<path d="M90.7415 40.979C90.7415 40.979 90.2714 42.0697 90.2954 42.8049C90.3223 43.54 91.1456 43.4175 91.1456 43.4175L91.1516 43.8836C91.1576 44.2811 90.9301 44.6427 90.5678 44.81L90.2505 44.9564C90.2505 44.9564 92.421 45.2373 93.5197 44.3169L93.1814 44.311C92.7024 44.305 92.2953 43.9613 92.2054 43.4892L92.1695 43.292C92.1725 43.2979 92.3551 40.982 90.7415 40.979Z" fill="white"/>
<path d="M90.7415 40.979C90.7415 40.979 90.2714 42.0697 90.2954 42.8049C90.3223 43.54 91.1456 43.4175 91.1456 43.4175L91.1516 43.8836C91.1576 44.2811 90.9301 44.6427 90.5678 44.81L90.2505 44.9564C90.2505 44.9564 92.421 45.2373 93.5197 44.3169L93.1814 44.311C92.7024 44.305 92.2953 43.9613 92.2054 43.4892L92.1695 43.292C92.1725 43.2979 92.3551 40.982 90.7415 40.979Z" fill="url(#paint24_linear_5301_4)"/>
<path d="M83.3136 53.0779C83.3136 53.0779 82.5113 52.6476 82.3856 52.298C82.2598 51.9484 82.2119 51.27 82.2119 51.27L82.7478 52.1755C82.7478 52.1755 82.9514 52.0918 83.0113 51.7691C83.0681 51.4463 83.2538 51.7183 83.2148 51.9603C83.1789 52.2024 83.3136 53.0779 83.3136 53.0779Z" fill="white"/>
<path d="M88.4215 46.1006C88.0503 46.3815 87.4964 46.8686 87.0414 47.6067C85.7421 49.7045 86.5444 51.7096 85.3798 52.5733C85.0475 52.8183 84.4398 53.0544 83.2722 52.7735L82.865 53.0484C82.865 53.0484 82.6195 55.7797 85.8858 55.5407C89.152 55.3016 90.3525 51.0911 90.3525 51.0911L88.4215 46.1006Z" fill="#C1DCDF"/>
<path d="M91.1635 41.9881C91.2742 41.9701 91.3521 41.8237 91.4329 41.8566C91.5167 41.8924 91.5227 42.0986 91.4658 42.2451C91.4179 42.3676 91.3311 42.4393 91.2832 42.4752C91.379 42.5857 91.5018 42.7591 91.5676 42.9951C91.7113 43.5151 91.4658 43.9663 91.367 44.2233C90.9329 45.3888 91.8999 47.0981 92.8789 47.9199C93.6723 48.5892 93.9896 48.2665 94.4776 48.8253C95.4266 49.9131 94.3548 51.2847 94.9267 52.8057C95.7949 55.1217 99.603 55.5161 99.7616 55.5311C99.8245 55.5371 99.8664 55.5401 99.9293 55.546C101.633 55.6745 104.216 55.8658 105.899 54.3387C107.156 53.1972 107.623 51.3504 107.39 49.7786C107.33 49.3662 107.072 47.7973 105.674 46.614C105.453 46.4257 104.142 45.317 102.504 45.4396C101.636 45.5023 101.486 45.8221 100.809 45.6906C99.8814 45.5083 99.2527 44.7313 98.8635 44.2472C98.148 43.3597 98.3905 43.1386 97.8935 42.7142C96.9175 41.8835 95.9236 42.6814 94.8967 41.9612C93.8848 41.2529 94.3668 40.1353 93.3968 39.5287C92.3969 38.9041 90.6126 39.2986 90.2983 40.1682C90.0228 40.9183 90.8252 42.0448 91.1635 41.9881Z" fill="black"/>
<path d="M50.268 39.6335L51.1985 36.1478C51.236 36.0076 51.3416 35.8981 51.478 35.8536L53.1072 35.3337C53.1106 35.3337 53.1106 35.3337 53.114 35.3303L53.1277 35.3269C53.1311 35.3269 53.1379 35.3269 53.1413 35.3234C53.1447 35.3234 53.1481 35.3234 53.1515 35.32C53.1549 35.32 53.1583 35.32 53.1617 35.32C53.2435 35.3063 53.4037 35.3063 53.5264 35.4603C53.4344 35.5287 53.3492 35.5253 53.281 35.4945L52.1153 39.2538L50.4248 39.7806C50.3805 39.7943 50.3327 39.784 50.2987 39.7498C50.268 39.7259 50.2543 39.678 50.268 39.6335Z" fill="#B8D8D8"/>
<path d="M50.5434 39.6295L51.4603 36.2533C51.4978 36.1165 51.6 36.007 51.7363 35.9625L53.4031 35.4186C53.4406 35.4049 53.4815 35.4152 53.5087 35.4426C53.536 35.4699 53.5462 35.511 53.536 35.5486L52.4351 39.113C52.4078 39.2019 52.3362 39.2738 52.2476 39.3011L50.7036 39.7869C50.6593 39.8006 50.6116 39.7903 50.5775 39.7561C50.5468 39.7219 50.5332 39.674 50.5434 39.6295Z" fill="#7A9E9F"/>
<path d="M55.1046 38.347C55.7965 38.9559 54.532 43.5294 50.9463 44.8909C48.1207 45.965 44.7464 44.7746 43.1274 42.4143C42.1934 41.0528 41.3482 38.6275 42.3843 37.444C42.432 37.3892 43.0183 36.7427 43.8499 36.7906C45.7825 36.8967 45.9086 40.5431 47.981 40.9912C48.4684 41.0973 48.6422 40.9331 52.7119 39.1543C54.6785 38.2957 54.941 38.2034 55.1046 38.347Z" fill="#C1DCDF"/>
<path d="M49.8285 40.167C49.8285 40.167 49.6547 39.4897 50.0705 39.1784C50.4864 38.8672 50.6602 38.0496 50.7283 38.3438C50.7965 38.638 50.7283 38.9869 50.7283 38.9869C50.7283 38.9869 52.2144 37.6836 52.1974 38.1351C52.1803 38.5867 51.1067 40.0952 50.4148 40.3928C49.7229 40.687 49.8387 40.7314 49.8285 40.167Z" fill="#728589"/>
<path d="M54.9172 38.3947C54.9172 38.3947 54.9411 37.4335 55.4353 37.2145C55.9295 36.9956 56.4953 35.8839 56.4613 36.4517C56.4272 37.0196 55.9193 37.2864 55.9193 37.2864C55.9193 37.2864 56.7373 37.5806 56.3794 38.0424C56.0216 38.5007 55.6194 38.5931 55.2035 38.8018C55.2035 38.8018 55.0911 39.1507 54.8048 39.0994C54.5184 39.048 54.7673 38.552 54.9172 38.3947Z" fill="#728589"/>
<path d="M37.5272 50.3235C34.7664 51.6507 32.1453 51.2539 30.3116 50.9768C28.2393 50.6655 26.2453 50.3611 25.4614 48.8081C24.6877 47.2688 25.3796 45.059 26.6032 43.8583C28.0416 42.4456 29.4765 43.1502 30.4752 41.7717C31.5011 40.3624 30.2911 39.2164 31.208 37.6395C32.3635 35.6555 34.8482 36.497 36.0582 34.489C37.05 32.8402 35.8332 31.4959 36.8319 30.4389C38.2157 28.9748 42.2547 29.7582 42.9023 31.4822C43.1545 32.1561 42.7728 32.6589 42.4899 33.6065C41.5901 36.6235 43.4306 38.3339 43.6011 41.0704C43.826 44.7785 40.9288 48.6884 37.5272 50.3235Z" fill="black"/>
<path d="M35.6564 81.793C35.6564 81.793 38.4172 82.1453 38.5229 82.7747C38.6456 83.5067 35.4519 82.8637 35.4519 82.8637C35.4519 82.8637 34.9611 82.7029 35.6564 81.793Z" fill="url(#paint25_linear_5301_4)"/>
<path d="M35.8304 80.2954L35.7622 81.8416C35.7622 81.8416 36.0996 82.2726 36.4882 81.9613L36.795 80.2954H35.8304Z" fill="#7A9E9F"/>
<path d="M40.1554 82.543C40.1554 82.543 42.9162 82.8953 43.0219 83.5247C43.1446 84.2568 39.9509 83.6137 39.9509 83.6137C39.9509 83.6137 39.4635 83.4529 40.1554 82.543Z" fill="url(#paint26_linear_5301_4)"/>
<path d="M40.3328 81.0439L40.2646 82.5901C40.2646 82.5901 40.6021 83.0211 40.9906 82.7098L41.2974 81.0439H40.3328Z" fill="#7A9E9F"/>
<path d="M44.0577 55.5335C43.9111 57.7707 43.5566 60.9964 42.5921 64.7934C42.2444 66.1583 41.8967 67.2974 41.1094 69.6645C40.1721 72.49 38.8496 76.3486 37.1249 81.011C36.6239 81.0863 36.1263 81.1649 35.6252 81.2402C34.5891 77.4569 34.889 74.4809 35.949 72.1137C36.5796 70.7112 36.9477 70.701 37.5953 69.1343C38.2838 67.4718 38.5633 65.7957 38.3895 60.1412C38.3417 58.5403 38.2497 56.4127 38.0623 53.8916C40.063 54.4389 42.0603 54.9862 44.0577 55.5335Z" fill="#2F324A"/>
<path opacity="0.3" d="M44.0579 55.5326C43.9114 57.7697 43.5569 60.9954 42.5923 64.7924C42.2447 66.1573 41.897 67.2964 41.1096 69.6635C40.1723 72.489 38.8499 76.3476 37.1252 81.01C36.6242 81.0853 36.1265 81.1639 35.6255 81.2392C34.7427 77.7056 35.3903 75.8516 36.1913 74.8048C36.6889 74.1583 37.3127 73.7307 37.766 72.6156C38.3011 71.3055 37.9228 70.7103 38.2023 69.1778C38.5772 67.1082 39.4668 67.0775 39.7838 65.4629C40.1553 63.5541 39.1021 62.6374 38.3931 60.1437C37.9978 58.7549 37.6501 56.6751 38.0659 53.894C40.0633 54.4379 42.0606 54.9853 44.0579 55.5326Z" fill="#2F324A"/>
<path d="M40.5948 55.1771C41.8525 56.7643 45.3836 61.6559 45.4859 68.771C45.5813 75.4072 42.6398 80.138 41.4571 81.8381C40.9663 81.7936 40.4755 81.7492 39.9813 81.7047C39.8586 80.2988 39.7938 78.1882 40.2267 75.6877C40.8709 71.9625 41.8866 71.5623 41.7332 69.438C41.5423 66.7733 39.862 66.3457 37.2511 61.5088C35.8434 58.9022 34.1597 55.786 35.2538 54.6332C35.4617 54.4109 36.4774 53.518 40.5948 55.1771Z" fill="#2F324A"/>
<path d="M41.873 35.683C43.6419 36.008 44.7054 37.2257 44.9951 37.5712C45.3598 38.0022 46.4334 39.4013 46.4539 42.9896C46.4743 46.4275 45.4961 46.8277 45.1996 50.0876C44.7633 54.9006 46.6073 57.1582 45.3189 58.2426C44.2248 59.1662 42.8921 57.5242 39.2076 57.7021C36.1639 57.8492 35.5776 59.0362 32.9633 58.742C32.5645 58.6975 29.0709 58.2631 28.5324 56.4296C28.1575 55.1537 29.5379 54.319 31.4261 51.2336C33.236 48.2815 34.1256 45.5312 34.5687 44.1664C35.9014 40.0478 35.3492 38.9224 36.8558 37.4139C37.0398 37.2257 39.1496 35.187 41.873 35.683Z" fill="#C1DCDF"/>
<path d="M40.0835 32.416C40.0835 32.416 40.4448 34.9302 39.0712 36.278C38.9724 36.3738 39.0201 36.538 39.153 36.5688C39.7904 36.7022 41.2764 36.9211 42.7148 36.4354C42.8409 36.3943 42.8682 36.2267 42.7659 36.1446C42.466 35.9017 41.9581 35.4399 41.6889 34.8823C41.2901 34.058 41.2185 32.6486 41.2185 32.6486L40.0835 32.416Z" fill="url(#paint27_linear_5301_4)"/>
<path d="M40.0835 32.416C40.0835 32.416 40.4448 34.9302 39.0712 36.278C38.9724 36.3738 39.0201 36.538 39.153 36.5688C39.7904 36.7022 41.2764 36.9211 42.7148 36.4354C42.8409 36.3943 42.8682 36.2267 42.7659 36.1446C42.466 35.9017 41.9581 35.4399 41.6889 34.8823C41.2901 34.058 41.2185 32.6486 41.2185 32.6486L40.0835 32.416Z" fill="url(#paint28_linear_5301_4)"/>
<g opacity="0.3">
<path d="M31.4228 51.2332C33.2327 48.2811 34.1223 45.5309 34.5654 44.166C35.8981 40.0475 35.3459 38.9221 36.8524 37.4135C36.9479 37.3177 37.5546 36.7328 38.4851 36.2539C38.2362 37.0612 38.0897 38.0122 38.2294 39.0452C38.7066 42.5549 42.081 43.7761 41.6515 45.9585C41.2595 47.9527 38.2533 47.8706 37.8204 50.0086C37.3773 52.2115 40.2881 53.6551 39.6951 55.2046C39.1258 56.6995 36.198 55.9127 33.2974 57.6983C32.8543 57.972 32.4556 58.2764 32.0943 58.6048C30.9081 58.3654 28.9244 57.777 28.529 56.4293C28.1575 55.1533 29.5345 54.3187 31.4228 51.2332Z" fill="#C1DCDF"/>
</g>
<path d="M40.0428 33.3123C40.0428 33.3123 40.6632 34.1675 41.638 33.8117C42.5106 33.4936 41.9891 31.2325 41.2971 30.976C41.0654 30.8905 40.6427 30.9281 40.3598 31.106C40.1621 31.2291 39.6304 31.8927 39.9338 32.635C39.7122 32.57 39.5214 32.6282 39.4702 32.7376C39.4089 32.8779 39.5963 33.066 39.6372 33.1071C39.7838 33.2576 39.961 33.2986 40.0428 33.3123Z" fill="url(#paint29_linear_5301_4)"/>
<path d="M40.0428 33.3123C40.0428 33.3123 40.6632 34.1675 41.638 33.8117C42.5106 33.4936 41.9891 31.2325 41.2971 30.976C41.0654 30.8905 40.6427 30.9281 40.3598 31.106C40.1621 31.2291 39.6304 31.8927 39.9338 32.635C39.7122 32.57 39.5214 32.6282 39.4702 32.7376C39.4089 32.8779 39.5963 33.066 39.6372 33.1071C39.7838 33.2576 39.961 33.2986 40.0428 33.3123Z" fill="url(#paint30_linear_5301_4)"/>
<path d="M50.851 40.2118C50.5238 40.0887 50.1965 39.9621 49.8659 39.839C49.6716 40.1913 48.3833 42.4592 45.9735 42.8047C43.7001 43.1297 41.5664 41.5801 40.5745 40.0647C39.6338 38.6246 39.8247 37.3726 38.9453 37.099C38.0591 36.8253 36.9616 37.8139 36.4401 38.4912C35.2063 40.0921 35.2472 42.4832 36.0107 44.197C37.2513 46.9848 40.5848 48.4113 43.4274 48.1205C47.8311 47.6724 49.8693 43.2221 50.2136 42.4182C50.5885 41.5493 50.7623 40.7694 50.851 40.2118Z" fill="#C1DCDF"/>
<defs>
<linearGradient id="paint0_linear_5301_4" x1="63.3098" y1="46.8295" x2="57.7503" y2="48.3559" gradientUnits="userSpaceOnUse">
<stop stop-color="#AB316D"/>
<stop offset="1" stop-color="#792D3D"/>
</linearGradient>
<linearGradient id="paint1_linear_5301_4" x1="63.367" y1="46.797" x2="57.8074" y2="48.3235" gradientUnits="userSpaceOnUse">
<stop stop-color="#444B8C"/>
<stop offset="0.9964" stop-color="#3E4177"/>
</linearGradient>
<linearGradient id="paint2_linear_5301_4" x1="63.6738" y1="46.8688" x2="57.8065" y2="48.4798" gradientUnits="userSpaceOnUse">
<stop stop-color="#FF9085"/>
<stop offset="1" stop-color="#FB6FBB"/>
</linearGradient>
<linearGradient id="paint3_linear_5301_4" x1="84.5457" y1="81.1542" x2="86.0905" y2="82.1826" gradientUnits="userSpaceOnUse">
<stop stop-color="#444B8C"/>
<stop offset="0.9964" stop-color="#26264F"/>
</linearGradient>
<linearGradient id="paint4_linear_5301_4" x1="86.0416" y1="82.1896" x2="85.7045" y2="79.8006" gradientUnits="userSpaceOnUse">
<stop stop-color="#AB316D"/>
<stop offset="1" stop-color="#792D3D"/>
</linearGradient>
<linearGradient id="paint5_linear_5301_4" x1="84.6617" y1="80.9795" x2="86.2064" y2="82.0079" gradientUnits="userSpaceOnUse">
<stop stop-color="#444B8C"/>
<stop offset="0.9964" stop-color="#26264F"/>
</linearGradient>
<linearGradient id="paint6_linear_5301_4" x1="74.7258" y1="81.9195" x2="76.1109" y2="83.1539" gradientUnits="userSpaceOnUse">
<stop stop-color="#444B8C"/>
<stop offset="0.9964" stop-color="#26264F"/>
</linearGradient>
<linearGradient id="paint7_linear_5301_4" x1="59.1054" y1="48.8489" x2="60.8736" y2="49.5043" gradientUnits="userSpaceOnUse">
<stop stop-color="#AB316D"/>
<stop offset="1" stop-color="#792D3D"/>
</linearGradient>
<linearGradient id="paint8_linear_5301_4" x1="76.0623" y1="83.1546" x2="76.0623" y2="80.742" gradientUnits="userSpaceOnUse">
<stop stop-color="#AB316D"/>
<stop offset="1" stop-color="#792D3D"/>
</linearGradient>
<linearGradient id="paint9_linear_5301_4" x1="76.1599" y1="71.9595" x2="85.1837" y2="62.4075" gradientUnits="userSpaceOnUse">
<stop stop-color="#AB316D"/>
<stop offset="1" stop-color="#792D3D"/>
</linearGradient>
<linearGradient id="paint10_linear_5301_4" x1="83.3353" y1="51.467" x2="81.6023" y2="58.3698" gradientUnits="userSpaceOnUse">
<stop stop-color="#AB316D"/>
<stop offset="1" stop-color="#792D3D"/>
</linearGradient>
<linearGradient id="paint11_linear_5301_4" x1="74.8653" y1="81.7636" x2="76.2504" y2="82.9979" gradientUnits="userSpaceOnUse">
<stop stop-color="#444B8C"/>
<stop offset="0.9964" stop-color="#26264F"/>
</linearGradient>
<linearGradient id="paint12_linear_5301_4" x1="79.26" y1="39.1026" x2="79.7989" y2="44.0219" gradientUnits="userSpaceOnUse">
<stop stop-color="#AB316D"/>
<stop offset="1" stop-color="#792D3D"/>
</linearGradient>
<linearGradient id="paint13_linear_5301_4" x1="79.6237" y1="37.9927" x2="79.6237" y2="43.1193" gradientUnits="userSpaceOnUse">
<stop stop-color="#617883"/>
<stop offset="1" stop-color="#A7B6BF"/>
</linearGradient>
<linearGradient id="paint14_linear_5301_4" x1="77.9239" y1="39.0728" x2="79.3053" y2="42.892" gradientUnits="userSpaceOnUse">
<stop stop-color="#AB316D"/>
<stop offset="1" stop-color="#792D3D"/>
</linearGradient>
<linearGradient id="paint15_linear_5301_4" x1="78.3011" y1="39.7148" x2="78.3011" y2="40.4263" gradientUnits="userSpaceOnUse">
<stop stop-color="#617883"/>
<stop offset="1" stop-color="#A7B6BF"/>
</linearGradient>
<linearGradient id="paint16_linear_5301_4" x1="86.24" y1="50.5696" x2="81.4249" y2="51.8916" gradientUnits="userSpaceOnUse">
<stop stop-color="#AB316D"/>
<stop offset="1" stop-color="#792D3D"/>
</linearGradient>
<linearGradient id="paint17_linear_5301_4" x1="86.2895" y1="50.5416" x2="81.4745" y2="51.8637" gradientUnits="userSpaceOnUse">
<stop stop-color="#444B8C"/>
<stop offset="0.9964" stop-color="#3E4177"/>
</linearGradient>
<linearGradient id="paint18_linear_5301_4" x1="86.5553" y1="50.6041" x2="81.4737" y2="51.9993" gradientUnits="userSpaceOnUse">
<stop stop-color="#FF9085"/>
<stop offset="1" stop-color="#FB6FBB"/>
</linearGradient>
<linearGradient id="paint19_linear_5301_4" x1="95.205" y1="84.9081" x2="96.3452" y2="78.503" gradientUnits="userSpaceOnUse">
<stop stop-color="#444B8C"/>
<stop offset="0.9964" stop-color="#26264F"/>
</linearGradient>
<linearGradient id="paint20_linear_5301_4" x1="92.3706" y1="84.404" x2="93.5108" y2="77.9988" gradientUnits="userSpaceOnUse">
<stop stop-color="#444B8C"/>
<stop offset="0.9964" stop-color="#26264F"/>
</linearGradient>
<linearGradient id="paint21_linear_5301_4" x1="94.997" y1="61.9799" x2="98.3359" y2="82.3968" gradientUnits="userSpaceOnUse">
<stop stop-color="#311944"/>
<stop offset="1" stop-color="#893976"/>
</linearGradient>
<linearGradient id="paint22_linear_5301_4" x1="94.997" y1="61.9794" x2="98.3359" y2="82.3962" gradientUnits="userSpaceOnUse">
<stop stop-color="#311944"/>
<stop offset="1" stop-color="#893976"/>
</linearGradient>
<linearGradient id="paint23_linear_5301_4" x1="82.1031" y1="72.3583" x2="98.7646" y2="69.6062" gradientUnits="userSpaceOnUse">
<stop stop-color="#311944"/>
<stop offset="1" stop-color="#893976"/>
</linearGradient>
<linearGradient id="paint24_linear_5301_4" x1="91.8851" y1="40.979" x2="91.8851" y2="44.9968" gradientUnits="userSpaceOnUse">
<stop stop-color="#617883"/>
<stop offset="1" stop-color="#A7B6BF"/>
</linearGradient>
<linearGradient id="paint25_linear_5301_4" x1="39.8912" y1="79.0168" x2="35.0889" y2="84.6719" gradientUnits="userSpaceOnUse">
<stop stop-color="#444B8C"/>
<stop offset="0.9964" stop-color="#3E4177"/>
</linearGradient>
<linearGradient id="paint26_linear_5301_4" x1="42.8821" y1="81.5576" x2="38.0798" y2="87.2127" gradientUnits="userSpaceOnUse">
<stop stop-color="#444B8C"/>
<stop offset="0.9964" stop-color="#3E4177"/>
</linearGradient>
<linearGradient id="paint27_linear_5301_4" x1="43.9333" y1="36.6425" x2="39.3202" y2="34.1611" gradientUnits="userSpaceOnUse">
<stop stop-color="#311944"/>
<stop offset="1" stop-color="#A03976"/>
</linearGradient>
<linearGradient id="paint28_linear_5301_4" x1="40.9235" y1="32.416" x2="40.9235" y2="36.7353" gradientUnits="userSpaceOnUse">
<stop stop-color="#617883"/>
<stop offset="1" stop-color="#A7B6BF"/>
</linearGradient>
<linearGradient id="paint29_linear_5301_4" x1="37.4291" y1="30.1269" x2="40.9007" y2="32.3245" gradientUnits="userSpaceOnUse">
<stop stop-color="#311944"/>
<stop offset="1" stop-color="#A03976"/>
</linearGradient>
<linearGradient id="paint30_linear_5301_4" x1="40.777" y1="30.9321" x2="40.777" y2="33.8984" gradientUnits="userSpaceOnUse">
<stop stop-color="#617883"/>
<stop offset="1" stop-color="#A7B6BF"/>
</linearGradient>
</defs>
</svg>
