<svg width="138" height="107" viewBox="0 0 138 107" fill="none" xmlns="http://www.w3.org/2000/svg">
<path d="M130.182 71.622L86.2395 97.2073C76.8783 102.658 61.6539 102.658 52.2314 97.2074L8.00164 71.6226C3.26005 68.8798 0.892041 65.2799 0.902197 61.6855L0.887727 66.7775C0.877698 70.3718 3.2457 73.9718 7.9873 76.7144L52.2169 102.299C61.6396 107.75 76.8638 107.75 86.2252 102.299L130.167 76.7139C134.818 74.0062 137.146 70.463 137.156 66.9146L137.17 61.8225C137.16 65.3711 134.832 68.9142 130.182 71.622Z" fill="#7A9E9F"/>
<path d="M130.071 51.8856C139.494 57.3361 139.543 66.1716 130.182 71.6221L86.2397 97.2075C76.8785 102.658 61.6541 102.658 52.2316 97.2075L8.00182 71.6227C-1.42069 66.1722 -1.47033 57.3369 7.89099 51.8861L51.8332 26.301C61.1945 20.8502 76.4188 20.8502 85.8414 26.3007L130.071 51.8856Z" fill="#F5FBFF"/>
<path opacity="0.1" d="M62.3405 0.767593C51.3264 0.963235 34.2839 5.16658 29.3809 15.9684C27.6678 19.7419 27.783 25.2881 28.0163 36.3775C28.0842 39.6382 28.1965 44.3899 28.991 50.2858C30.6391 62.5342 31.7645 70.8698 36.0118 75.7253C46.6596 87.8907 85.1219 87.5379 101.544 65.6378C110.502 53.6918 111.882 36.6946 103.688 22.6499C94.671 7.18822 77.088 0.506737 62.3405 0.767593Z" fill="#7A9E9F"/>
<path d="M69.1041 6.90478L61.0998 73.684C60.9787 74.686 61.6669 75.5841 62.6297 75.679L95.9733 79.3517C98.0172 79.4792 99.1337 78.4328 99.2607 77.3686L107.667 6.37121C107.791 5.31296 106.79 4.35254 104.74 4.35254L71.0919 5.06397C70.1143 5.08175 69.2223 5.90878 69.1041 6.90478Z" fill="#7A9E9F"/>
<path d="M67.601 6.78815L59.5523 73.9023C59.4312 74.9072 60.1224 75.8113 61.0882 75.9062L95.6576 79.3596C96.7416 79.4693 97.734 78.6808 97.861 77.6106L106.314 6.24569C106.441 5.18151 105.644 4.32483 104.548 4.34558L69.5977 4.93844C68.6171 4.95622 67.7221 5.78919 67.601 6.78815Z" fill="#E9FFFF"/>
<path d="M68.2597 10.4911L60.7988 72.7201C60.6866 73.6598 61.3334 74.5017 62.2372 74.5906L94.7479 77.7624C95.7551 77.8602 96.6795 77.1251 96.7977 76.1291L104.61 10.2035C104.728 9.21347 103.99 8.41015 102.971 8.422L70.1264 8.77179C69.2078 8.78365 68.3719 9.55732 68.2597 10.4911Z" fill="#B8D8D8"/>
<path d="M85.6924 6.74406C85.651 7.10274 85.9051 7.38731 86.2625 7.38138C86.6198 7.37545 86.9477 7.08199 86.989 6.72628C87.0304 6.3676 86.7764 6.08303 86.416 6.08896C86.0586 6.09192 85.7337 6.38539 85.6924 6.74406Z" fill="url(#paint0_linear_5301_3)"/>
<path d="M98.3951 14.4951L98.5576 15.3755L95.214 15.3844L66.1916 15.4526C65.4444 15.4555 64.7591 16.0751 64.6557 16.8369L57.7265 63.3079C57.6231 64.0756 58.8164 65.2524 59.5578 65.3088L72.4327 66.3018V66.287L91.6933 67.7691L91.7406 67.7899C92.5617 67.8521 93.3178 67.2533 93.4241 66.4411V66.4441L99.9133 16.828C100.02 16.0217 99.2221 14.4922 98.3951 14.4951Z" fill="#4F6367"/>
<path d="M92.7686 65.4713C92.6622 66.2835 91.909 66.8912 91.085 66.8289L58.8697 64.3449C58.1283 64.2886 57.6114 63.6186 57.7148 62.8479L64.012 15.8849C64.1153 15.1231 64.8006 14.5035 65.5479 14.5006L97.9463 14.4116C98.7733 14.4087 99.3581 15.0608 99.2547 15.8641L92.7686 65.4713Z" fill="white"/>
<path opacity="0.4" d="M99.2546 15.8646L92.7684 65.4718C92.6621 66.284 91.8587 66.8887 91.0376 66.8235L71.6883 65.3325C70.7697 64.3869 70.0106 63.2545 69.4731 61.8939C69.2072 61.227 69.0123 60.5067 68.8853 59.7508C68.525 57.655 68.6638 55.2747 69.1895 52.9389C69.5912 51.1395 70.2233 49.3639 71.0326 47.7603C71.6794 46.4797 72.4385 45.3088 73.2892 44.3217C73.9006 43.6132 74.5622 42.9255 75.2592 42.2497C76.101 41.4345 76.993 40.6401 77.9175 39.8516C80.0678 38.0137 82.3686 36.2174 84.4982 34.3202C89.4131 29.942 93.4034 25.0539 92.4435 18.076C92.4139 17.8566 92.1127 16.1729 91.7317 14.427L97.9018 14.4092C98.7259 14.4092 99.3609 15.0613 99.2546 15.8646Z" fill="white"/>
<path d="M53.6452 14.9549C53.6452 20.258 49.389 24.8408 44.1197 25.1965C38.8327 25.5522 34.5352 21.5148 34.5352 16.1791C34.5352 10.8435 38.8327 6.25771 44.1197 5.93461C49.389 5.6115 53.6452 9.65181 53.6452 14.9549Z" fill="#B8D8D8"/>
<path d="M54.7765 15.2925C54.7765 20.5956 50.5203 25.1784 45.251 25.5341C39.964 25.8898 35.6665 21.8524 35.6665 16.5167C35.6665 11.181 39.967 6.59233 45.251 6.27219C50.5203 5.95205 54.7765 9.9894 54.7765 15.2925Z" fill="#7A9E9F"/>
<path d="M44.9145 21.1142C44.501 21.1409 44.114 20.9482 43.9014 20.6014L40.298 14.7973C39.9612 14.2519 40.1414 13.5079 40.7026 13.1344C41.2638 12.7609 41.9933 12.8972 42.3301 13.4397L44.8288 17.4682L48.1251 10.7304C48.4204 10.1256 49.1323 9.847 49.7112 10.1108C50.2901 10.3717 50.5234 11.0742 50.2281 11.6789L45.9689 20.3939C45.774 20.7941 45.3871 21.0668 44.9558 21.1113C44.944 21.1113 44.9292 21.1142 44.9145 21.1142Z" fill="white"/>
<path d="M91.8116 23.9119C92.0745 23.9149 92.3344 23.7163 92.3639 23.4614L93.1378 17.2305C93.1703 16.9755 92.9812 16.771 92.7154 16.771H87.5052C87.2482 16.771 87.0119 16.9726 86.9824 17.2245C86.9529 17.4735 87.1183 17.6781 87.3752 17.6781L92.0833 17.687L91.3715 23.4465C91.342 23.6985 91.5487 23.906 91.8116 23.9119Z" fill="#7A9E9F"/>
<path d="M84.4307 42.0034L89.5523 42.3058C89.8122 42.3206 90.0485 42.1309 90.081 41.8819L90.843 35.7399C90.8755 35.4909 90.6688 35.2775 90.4059 35.2686C90.146 35.2567 89.889 35.4494 89.8565 35.7014L89.1535 41.3809L84.5193 41.1171C84.2653 41.1023 84.0437 41.289 84.0142 41.5351C83.9876 41.7781 84.1767 41.9886 84.4307 42.0034Z" fill="#7A9E9F"/>
<path d="M68.1679 23.5236C68.4042 23.5265 68.5962 23.3368 68.6228 23.0997L69.249 17.6425L73.6085 17.6514C73.8507 17.6514 74.0811 17.4557 74.1077 17.2126C74.1372 16.9696 73.9718 16.7739 73.7296 16.7739H68.9595C68.7232 16.7739 68.5106 16.9666 68.481 17.2067L67.8076 23.0878C67.7869 23.325 67.9346 23.5206 68.1679 23.5236Z" fill="#7A9E9F"/>
<path d="M66.1948 40.9306L70.8881 41.2063C71.1273 41.2211 71.343 41.0373 71.3695 40.8002C71.3961 40.563 71.2071 40.3585 70.9678 40.3437L66.6733 40.1006L67.2906 34.7145C67.3171 34.4774 67.1695 34.2788 66.9361 34.2669C66.7028 34.258 66.5108 34.4388 66.4842 34.676L65.8197 40.4771C65.7931 40.7142 65.9614 40.9158 66.1948 40.9306Z" fill="#7A9E9F"/>
<path d="M85.5356 46.3494C85.5031 46.5925 85.2786 46.7733 85.0334 46.7615L67.988 46.136C67.7635 46.1271 67.604 45.9403 67.6365 45.7121L67.9703 43.2191C67.9998 42.9879 68.2066 42.8308 68.4311 42.8397L85.4912 43.314C85.7364 43.3199 85.9107 43.4948 85.8811 43.7379L85.5356 46.3494Z" fill="#F4F7FA"/>
<path d="M84.8771 51.4151C84.8446 51.6582 84.6201 51.8657 84.375 51.8508L67.3414 51.006C67.1169 50.9942 66.9604 50.7778 66.9899 50.5466L67.3266 48.0062C67.3562 47.775 67.5659 47.5764 67.7903 47.5852L84.8358 48.2759C85.0809 48.2848 85.2552 48.5101 85.2227 48.7502L84.8771 51.4151Z" fill="#F4F7FA"/>
<path d="M85.8844 43.7261C85.843 43.7142 85.8017 43.7053 85.7544 43.7053L68.6913 43.231C68.4668 43.2251 68.26 43.3822 68.2305 43.6105L67.8938 46.1034C67.8938 46.1093 67.8938 46.1153 67.8908 46.1212C67.7166 46.0708 67.6073 45.9078 67.6339 45.7092L67.9706 43.2162C68.0001 42.985 68.2069 42.8279 68.4313 42.8368L85.4945 43.3111C85.7337 43.32 85.908 43.4889 85.8844 43.7261Z" fill="#AABBCC"/>
<path d="M85.2251 48.6973C85.1837 48.6795 85.1394 48.6706 85.0922 48.6706L68.0497 47.98C67.8252 47.9711 67.6185 48.1697 67.586 48.4009L67.2463 50.9413C67.2434 50.9591 67.2434 50.9739 67.2434 50.9887C67.0691 50.9324 66.9598 50.7456 66.9864 50.55L67.3261 48.0096C67.3556 47.7784 67.5653 47.5798 67.7898 47.5887L84.8322 48.2793C85.0597 48.2853 85.2251 48.478 85.2251 48.6973Z" fill="#AABBCC"/>
<path d="M80.3457 55.5206C80.3959 55.1382 80.1271 54.7855 79.7431 54.7647L70.9265 54.2578C70.5603 54.2371 70.2235 54.5454 70.1733 54.9189L69.81 57.6727C69.7598 58.0462 70.0138 58.4019 70.3801 58.4286L79.1937 59.0333C79.5777 59.06 79.9292 58.7339 79.9794 58.3515L80.3457 55.5206Z" fill="#7A9E9F"/>
<path d="M51.194 42.4542L52.0004 39.4336C52.0329 39.3121 52.1244 39.2172 52.2426 39.1787L53.6544 38.7281C53.6574 38.7281 53.6574 38.7281 53.6603 38.7251L53.6721 38.7222C53.6751 38.7222 53.681 38.7222 53.6839 38.7192C53.6869 38.7192 53.6899 38.7192 53.6928 38.7162C53.6958 38.7162 53.6987 38.7162 53.7017 38.7162C53.7726 38.7044 53.9114 38.7044 54.0177 38.8378C53.938 38.8971 53.8641 38.8941 53.805 38.8674L52.7949 42.1252L51.3299 42.5817C51.2915 42.5935 51.2502 42.5846 51.2206 42.555C51.194 42.5342 51.1822 42.4927 51.194 42.4542Z" fill="#B8D8D8"/>
<path d="M51.4331 42.4506L52.2276 39.5249C52.2601 39.4063 52.3487 39.3115 52.4669 39.2729L53.9112 38.8016C53.9437 38.7898 53.9791 38.7987 54.0027 38.8224C54.0264 38.8461 54.0352 38.8816 54.0264 38.9143L53.0724 42.003C53.0487 42.0801 52.9867 42.1424 52.9099 42.1661L51.5719 42.587C51.5335 42.5989 51.4922 42.59 51.4626 42.5603C51.436 42.5307 51.4242 42.4892 51.4331 42.4506Z" fill="#7A9E9F"/>
<path d="M55.3853 41.3387C55.9849 41.8664 54.8891 45.8296 51.7819 47.0094C49.3333 47.9402 46.4092 46.9086 45.0062 44.8633C44.1969 43.6835 43.4644 41.5818 44.3624 40.5562C44.4037 40.5087 44.9117 39.9485 45.6324 39.99C47.3071 40.0819 47.4164 43.2418 49.2122 43.6301C49.6346 43.722 49.7852 43.5797 53.3119 42.0383C55.0161 41.2943 55.2435 41.2142 55.3853 41.3387Z" fill="#C1DCDF"/>
<path d="M50.813 42.9164C50.813 42.9164 50.6623 42.3295 51.0227 42.0597C51.383 41.79 51.5337 41.0815 51.5927 41.3365C51.6518 41.5914 51.5927 41.8937 51.5927 41.8937C51.5927 41.8937 52.8805 40.7644 52.8657 41.1556C52.851 41.5469 51.9206 42.8542 51.321 43.1121C50.7214 43.367 50.8218 43.4055 50.813 42.9164Z" fill="#728589"/>
<path d="M55.2226 41.3802C55.2226 41.3802 55.2433 40.5473 55.6715 40.3576C56.0998 40.1678 56.5901 39.2045 56.5606 39.6965C56.531 40.1886 56.0909 40.4198 56.0909 40.4198C56.0909 40.4198 56.7998 40.6747 56.4897 41.0749C56.1796 41.4721 55.831 41.5522 55.4707 41.733C55.4707 41.733 55.3732 42.0353 55.1251 41.9909C54.877 41.9464 55.0926 41.5166 55.2226 41.3802Z" fill="#728589"/>
<path d="M40.153 51.7176C37.7606 52.8677 35.4892 52.5239 33.9002 52.2838C32.1044 52.014 30.3765 51.7502 29.6972 50.4044C29.0267 49.0705 29.6263 47.1556 30.6866 46.1151C31.9331 44.8909 33.1765 45.5015 34.042 44.3069C34.931 43.0856 33.8825 42.0926 34.677 40.726C35.6783 39.0068 37.8315 39.736 38.88 37.9959C39.7395 36.5672 38.6851 35.4022 39.5505 34.4862C40.7497 33.2175 44.2497 33.8963 44.8109 35.3903C45.0295 35.9743 44.6987 36.4101 44.4535 37.2312C43.6738 39.8457 45.2687 41.3278 45.4164 43.6992C45.6113 46.9125 43.1008 50.3007 40.153 51.7176Z" fill="black"/>
<path d="M38.5315 78.9888C38.5315 78.9888 40.9239 79.2941 41.0155 79.8395C41.1218 80.4739 38.3542 79.9166 38.3542 79.9166C38.3542 79.9166 37.9289 79.7773 38.5315 78.9888Z" fill="url(#paint1_linear_5301_3)"/>
<path d="M38.6821 77.6904L38.623 79.0303C38.623 79.0303 38.9155 79.4038 39.2522 79.134L39.518 77.6904H38.6821Z" fill="#7A9E9F"/>
<path d="M42.4301 79.6382C42.4301 79.6382 44.8225 79.9435 44.9141 80.4889C45.0204 81.1233 42.2529 80.566 42.2529 80.566C42.2529 80.566 41.8305 80.4267 42.4301 79.6382Z" fill="url(#paint2_linear_5301_3)"/>
<path d="M42.584 78.3394L42.5249 79.6792C42.5249 79.6792 42.8173 80.0527 43.154 79.783L43.4199 78.3394H42.584Z" fill="#7A9E9F"/>
<path d="M45.8123 56.2324C45.6853 58.1711 45.3781 60.9664 44.5422 64.2567C44.2409 65.4395 43.9397 66.4266 43.2574 68.4778C42.4451 70.9263 41.2991 74.2701 39.8046 78.3104C39.3704 78.3756 38.9392 78.4438 38.505 78.509C37.6071 75.2305 37.867 72.6516 38.7856 70.6003C39.332 69.3849 39.651 69.376 40.2122 68.0184C40.8088 66.5777 41.051 65.1253 40.9004 60.2253C40.859 58.838 40.7793 56.9942 40.6168 54.8096C42.3506 55.2839 44.0814 55.7581 45.8123 56.2324Z" fill="#2F324A"/>
<path opacity="0.3" d="M45.8123 56.2319C45.6853 58.1705 45.3781 60.9658 44.5422 64.2562C44.2409 65.4389 43.9397 66.426 43.2574 68.4773C42.4451 70.9258 41.2991 74.2695 39.8046 78.3098C39.3704 78.375 38.9392 78.4432 38.505 78.5084C37.74 75.4463 38.3012 73.8397 38.9953 72.9326C39.4265 72.3724 39.967 72.0019 40.3598 71.0355C40.8236 69.9002 40.4957 69.3844 40.7379 68.0564C41.0628 66.263 41.8337 66.2363 42.1084 64.8372C42.4303 63.1831 41.5177 62.3887 40.9033 60.2277C40.5607 59.0242 40.2594 57.222 40.6198 54.812C42.3506 55.2833 44.0814 55.7576 45.8123 56.2319Z" fill="#2F324A"/>
<path d="M42.8113 55.9233C43.9012 57.2988 46.9611 61.5377 47.0498 67.7034C47.1325 73.4541 44.5835 77.5537 43.5586 79.0269C43.1332 78.9884 42.7079 78.9498 42.2796 78.9113C42.1733 77.693 42.1172 75.864 42.4923 73.6971C43.0505 70.469 43.9307 70.1222 43.7978 68.2814C43.6324 65.9722 42.1763 65.6017 39.9138 61.4102C38.6939 59.1514 37.2348 56.451 38.1829 55.452C38.3631 55.2593 39.2433 54.4857 42.8113 55.9233Z" fill="#2F324A"/>
<path d="M43.9191 39.0301C45.4521 39.3117 46.3736 40.367 46.6247 40.6664C46.9407 41.0399 47.8711 42.2522 47.8888 45.3618C47.9066 48.3409 47.0589 48.6877 46.8019 51.5126C46.4238 55.6834 48.0217 57.6398 46.9053 58.5795C45.9572 59.3798 44.8023 57.957 41.6094 58.1111C38.9718 58.2386 38.4638 59.2672 36.1983 59.0123C35.8528 58.9737 32.8253 58.5973 32.3586 57.0084C32.0337 55.9027 33.2299 55.1795 34.8663 52.5057C36.4346 49.9475 37.2055 47.5642 37.5895 46.3815C38.7444 42.8125 38.2659 41.8372 39.5714 40.53C39.7309 40.367 41.5592 38.6003 43.9191 39.0301Z" fill="#C1DCDF"/>
<path d="M42.3682 36.1997C42.3682 36.1997 42.6812 38.3785 41.4909 39.5464C41.4053 39.6294 41.4466 39.7717 41.5618 39.7983C42.1141 39.9139 43.4019 40.1037 44.6484 39.6827C44.7576 39.6472 44.7813 39.5019 44.6927 39.4308C44.4327 39.2203 43.9927 38.8201 43.7593 38.337C43.4137 37.6226 43.3517 36.4013 43.3517 36.4013L42.3682 36.1997Z" fill="url(#paint3_linear_5301_3)"/>
<path d="M42.3682 36.1997C42.3682 36.1997 42.6812 38.3785 41.4909 39.5464C41.4053 39.6294 41.4466 39.7717 41.5618 39.7983C42.1141 39.9139 43.4019 40.1037 44.6484 39.6827C44.7576 39.6472 44.7813 39.5019 44.6927 39.4308C44.4327 39.2203 43.9927 38.8201 43.7593 38.337C43.4137 37.6226 43.3517 36.4013 43.3517 36.4013L42.3682 36.1997Z" fill="url(#paint4_linear_5301_3)"/>
<g opacity="0.3">
<path d="M34.863 52.5064C36.4314 49.9483 37.2023 47.565 37.5863 46.3823C38.7412 42.8133 38.2627 41.838 39.5682 40.5308C39.6509 40.4478 40.1766 39.9409 40.983 39.5259C40.7674 40.2254 40.6403 41.0495 40.7614 41.9447C41.175 44.9861 44.0991 46.0443 43.7269 47.9355C43.3872 49.6637 40.7821 49.5926 40.407 51.4452C40.023 53.3542 42.5454 54.6052 42.0315 55.948C41.5383 57.2434 39.0011 56.5616 36.4875 58.1089C36.1036 58.3461 35.758 58.6099 35.4449 58.8945C34.417 58.687 32.698 58.1771 32.3554 57.0092C32.0335 55.9035 33.2267 55.1802 34.863 52.5064Z" fill="#C1DCDF"/>
</g>
<path d="M42.333 36.9757C42.333 36.9757 42.8705 37.7168 43.7153 37.4085C44.4714 37.1328 44.0195 35.1734 43.4199 34.9511C43.2191 34.877 42.8528 34.9096 42.6077 35.0637C42.4364 35.1704 41.9756 35.7455 42.2385 36.3888C42.0465 36.3324 41.8811 36.3828 41.8368 36.4777C41.7836 36.5992 41.946 36.7623 41.9815 36.7978C42.1085 36.9283 42.2621 36.9638 42.333 36.9757Z" fill="url(#paint5_linear_5301_3)"/>
<path d="M42.333 36.9757C42.333 36.9757 42.8705 37.7168 43.7153 37.4085C44.4714 37.1328 44.0195 35.1734 43.4199 34.9511C43.2191 34.877 42.8528 34.9096 42.6077 35.0637C42.4364 35.1704 41.9756 35.7455 42.2385 36.3888C42.0465 36.3324 41.8811 36.3828 41.8368 36.4777C41.7836 36.5992 41.946 36.7623 41.9815 36.7978C42.1085 36.9283 42.2621 36.9638 42.333 36.9757Z" fill="url(#paint6_linear_5301_3)"/>
<path d="M51.6989 42.9553C51.4154 42.8486 51.1318 42.7389 50.8453 42.6322C50.677 42.9375 49.5605 44.9028 47.4723 45.2022C45.5022 45.4838 43.6532 44.141 42.7937 42.8278C41.9785 41.5799 42.1439 40.4949 41.3819 40.2578C40.6139 40.0206 39.6629 40.8773 39.211 41.4642C38.1418 42.8515 38.1772 44.9236 38.8388 46.4087C39.9139 48.8245 42.8026 50.0606 45.2659 49.8087C49.082 49.4204 50.8483 45.5638 51.1466 44.8672C51.4715 44.1143 51.6221 43.4385 51.6989 42.9553Z" fill="#C1DCDF"/>
<path d="M38.0437 33.6918C37.9344 33.6948 37.8369 33.6058 37.8369 33.4932V30.7631C37.8369 30.6534 37.9255 30.5615 38.0378 30.5615H40.2057C40.3121 30.5615 40.4007 30.6505 40.4007 30.7601C40.4007 30.8698 40.3209 30.9587 40.2146 30.9587L38.2534 30.9617V33.4843C38.2504 33.5999 38.153 33.6918 38.0437 33.6918Z" fill="#7A9E9F"/>
<path d="M40.2028 41.6993L38.0348 41.8327C37.9255 41.8386 37.834 41.7556 37.834 41.643V38.9129C37.834 38.8032 37.9315 38.7084 38.0407 38.7024C38.15 38.6965 38.2475 38.7825 38.2475 38.8951V41.4177L40.2087 41.2991C40.315 41.2932 40.4007 41.3762 40.4007 41.4859C40.4007 41.5956 40.3121 41.6934 40.2028 41.6993Z" fill="#7A9E9F"/>
<path d="M47.9322 33.5228C47.8347 33.5258 47.7609 33.4398 47.7609 33.3361V30.9439L45.9444 30.9469C45.844 30.9469 45.7583 30.8609 45.7583 30.7542C45.7583 30.6475 45.8351 30.5615 45.9355 30.5615H47.9204C48.0178 30.5615 48.0976 30.6475 48.0976 30.7512V33.3272C48.1005 33.4339 48.0296 33.5199 47.9322 33.5228Z" fill="#7A9E9F"/>
<path d="M47.9233 41.2216L45.9385 41.3461C45.8381 41.352 45.7554 41.272 45.7554 41.1653C45.7554 41.0585 45.8469 40.9696 45.9474 40.9637L47.7638 40.857V38.4648C47.7638 38.3611 47.8347 38.2721 47.9352 38.2662C48.0326 38.2632 48.1035 38.3433 48.1035 38.447V41.023C48.1006 41.1267 48.0208 41.2157 47.9233 41.2216Z" fill="#7A9E9F"/>
<path d="M78.0394 39.6174C72.4009 39.6174 68.257 34.8805 68.7886 29.1654C69.3114 23.5659 74.1495 19.0928 79.5812 19.0928C85.0129 19.0928 89.1805 23.5659 88.8586 29.1654C88.5337 34.8805 83.6779 39.6174 78.0394 39.6174Z" fill="#AABBCC"/>
<path d="M88.4657 29.1692C88.1468 34.6649 83.4918 39.2032 78.0689 39.2032C72.6461 39.2032 68.6734 34.6679 69.1815 29.1692C69.6806 23.7801 74.3178 19.4849 79.5517 19.4849C84.7855 19.4849 88.7788 23.7771 88.4657 29.1692Z" fill="#EAEDF3"/>
<path d="M78.3053 22.1554C76.4681 22.1021 74.6428 23.0625 73.7508 24.4024C72.6698 26.0268 73.8601 26.839 73.0153 29.5068C72.2326 31.985 70.8592 32.4118 70.933 34.054C71.0157 35.8623 72.7554 37.0183 73.4436 37.4748C76.5538 39.538 81.6872 39.452 84.4577 36.793C84.6881 36.5707 86.5814 34.7536 86.2033 33.0877C85.8666 31.6085 84.0354 31.5967 83.7577 30.0671C83.5185 28.7569 84.7915 28.333 84.7944 26.4477C84.7944 26.0801 84.7974 24.346 83.4771 23.5486C82.5999 23.018 81.5838 23.1692 81.2117 23.2433C80.7952 22.9113 79.7733 22.1999 78.3053 22.1554Z" fill="url(#paint7_linear_5301_3)"/>
<path d="M67.6689 35.898C67.6689 35.898 77.6168 30.5979 88.9676 35.8802C88.9676 35.8802 87.2013 40.4867 78.1573 40.8039C68.8002 41.1329 67.6689 35.898 67.6689 35.898Z" fill="#C1DCDF"/>
<path d="M77.3748 29.0205L76.8254 31.5224C76.6364 32.382 75.96 33.1023 75.071 33.381L72.0967 34.3177C72.0967 34.3177 77.4457 36.8877 84.6349 34.3177L81.5217 33.2535C80.6415 32.9274 80.0863 32.1123 80.1128 31.1844L80.1778 29.0502L77.3748 29.0205Z" fill="url(#paint8_linear_5301_3)"/>
<path d="M77.3748 29.0205L76.8254 31.5224C76.6364 32.382 75.96 33.1023 75.071 33.381L72.0967 34.3177C72.0967 34.3177 77.4457 36.8877 84.6349 34.3177L81.5217 33.2535C80.6415 32.9274 80.0863 32.1123 80.1128 31.1844L80.1778 29.0502L77.3748 29.0205Z" fill="url(#paint9_linear_5301_3)"/>
<path d="M81.7994 26.8808C81.6517 28.9766 80.1572 31.2324 78.4972 31.2205C76.8284 31.2087 75.6529 28.9054 75.8242 26.786C75.9955 24.6843 77.428 23.5727 79.0702 23.6082C80.7065 23.6438 81.9441 24.8029 81.7994 26.8808Z" fill="url(#paint10_linear_5301_3)"/>
<path d="M81.7994 26.8808C81.6517 28.9766 80.1572 31.2324 78.4972 31.2205C76.8284 31.2087 75.6529 28.9054 75.8242 26.786C75.9955 24.6843 77.428 23.5727 79.0702 23.6082C80.7065 23.6438 81.9441 24.8029 81.7994 26.8808Z" fill="url(#paint11_linear_5301_3)"/>
<path d="M80.2809 24.9716C79.3889 24.9982 78.0243 25.1761 77.0142 26.0891C75.3129 27.6305 75.8623 30.1353 75.1445 30.2776C74.5036 30.4051 73.6825 28.6117 73.8627 26.6701C74.0133 25.0546 74.7547 23.1723 76.3083 22.7306C77.218 22.4727 77.4454 22.9292 80.2927 23.2582C81.9527 23.4509 81.2467 24.1445 81.6041 24.4143C83.1961 25.6237 82.7177 29.5217 81.805 29.5603C81.3708 29.581 80.851 28.5465 80.2809 24.9716Z" fill="url(#paint12_linear_5301_3)"/>
<defs>
<linearGradient id="paint0_linear_5301_3" x1="85.3919" y1="4.1536" x2="123.823" y2="107.863" gradientUnits="userSpaceOnUse">
<stop stop-color="#FFC444"/>
<stop offset="0.9964" stop-color="#F36F56"/>
</linearGradient>
<linearGradient id="paint1_linear_5301_3" x1="42.2013" y1="76.5831" x2="38.0397" y2="81.4836" gradientUnits="userSpaceOnUse">
<stop stop-color="#444B8C"/>
<stop offset="0.9964" stop-color="#3E4177"/>
</linearGradient>
<linearGradient id="paint2_linear_5301_3" x1="44.7929" y1="78.7843" x2="40.6314" y2="83.6848" gradientUnits="userSpaceOnUse">
<stop stop-color="#444B8C"/>
<stop offset="0.9964" stop-color="#3E4177"/>
</linearGradient>
<linearGradient id="paint3_linear_5301_3" x1="45.7042" y1="39.8622" x2="41.7067" y2="37.712" gradientUnits="userSpaceOnUse">
<stop stop-color="#311944"/>
<stop offset="1" stop-color="#A03976"/>
</linearGradient>
<linearGradient id="paint4_linear_5301_3" x1="43.0961" y1="36.1997" x2="43.0961" y2="39.9427" gradientUnits="userSpaceOnUse">
<stop stop-color="#617883"/>
<stop offset="1" stop-color="#A7B6BF"/>
</linearGradient>
<linearGradient id="paint5_linear_5301_3" x1="40.068" y1="34.2153" x2="43.0764" y2="36.1196" gradientUnits="userSpaceOnUse">
<stop stop-color="#311944"/>
<stop offset="1" stop-color="#A03976"/>
</linearGradient>
<linearGradient id="paint6_linear_5301_3" x1="42.9692" y1="34.9131" x2="42.9692" y2="37.4835" gradientUnits="userSpaceOnUse">
<stop stop-color="#617883"/>
<stop offset="1" stop-color="#A7B6BF"/>
</linearGradient>
<linearGradient id="paint7_linear_5301_3" x1="77.7985" y1="20.3051" x2="76.878" y2="4.86612" gradientUnits="userSpaceOnUse">
<stop stop-color="#311944"/>
<stop offset="1" stop-color="#893976"/>
</linearGradient>
<linearGradient id="paint8_linear_5301_3" x1="78.5188" y1="36.6995" x2="77.7522" y2="25.0072" gradientUnits="userSpaceOnUse">
<stop stop-color="#893976"/>
<stop offset="1" stop-color="#311944"/>
</linearGradient>
<linearGradient id="paint9_linear_5301_3" x1="78.3658" y1="29.0205" x2="78.3658" y2="35.4599" gradientUnits="userSpaceOnUse">
<stop stop-color="#617883"/>
<stop offset="1" stop-color="#A7B6BF"/>
</linearGradient>
<linearGradient id="paint10_linear_5301_3" x1="80.4266" y1="26.0835" x2="67.4559" y2="35.2806" gradientUnits="userSpaceOnUse">
<stop stop-color="#893976"/>
<stop offset="1" stop-color="#311944"/>
</linearGradient>
<linearGradient id="paint11_linear_5301_3" x1="78.8093" y1="23.6074" x2="78.8093" y2="31.2206" gradientUnits="userSpaceOnUse">
<stop stop-color="#617883"/>
<stop offset="1" stop-color="#A7B6BF"/>
</linearGradient>
<linearGradient id="paint12_linear_5301_3" x1="77.8314" y1="20.3031" x2="76.911" y2="4.8642" gradientUnits="userSpaceOnUse">
<stop stop-color="#311944"/>
<stop offset="1" stop-color="#893976"/>
</linearGradient>
</defs>
</svg>
