<svg width="138" height="108" viewBox="0 0 138 108" fill="none" xmlns="http://www.w3.org/2000/svg">
<path d="M130.105 72.622L86.1623 98.2073C76.801 103.658 61.5767 103.658 52.1541 98.2074L7.92449 72.6226C3.1829 69.8798 0.814913 66.2799 0.825069 62.6855L0.810579 67.7775C0.800423 71.3718 3.16856 74.9718 7.91016 77.7144L52.1398 103.299C61.5623 108.75 76.7866 108.75 86.1479 103.299L130.09 77.7139C134.741 75.0062 137.069 71.463 137.079 67.9146L137.093 62.8225C137.083 66.3711 134.755 69.9142 130.105 72.622Z" fill="#7A9E9F"/>
<path d="M129.994 52.8856C139.416 58.3361 139.466 67.1716 130.105 72.6221L86.1625 98.2075C76.8011 103.658 61.5769 103.658 52.1543 98.2075L7.92465 72.6227C-1.49783 67.1722 -1.54747 58.3369 7.81385 52.8861L51.7559 27.301C61.1172 21.8502 76.3416 21.8502 85.7641 27.3007L129.994 52.8856Z" fill="#FFF5F5"/>
<g clip-path="url(#clip0_5301_3)">
<path d="M78.1238 51.6833C78.4589 51.756 78.6505 52.2164 78.7941 52.483C78.9856 52.8465 79.0814 53.3312 78.6505 53.8401C78.2195 54.349 77.3338 54.349 76.9986 54.6882C76.6874 55.0033 75.3468 55.8272 74.3892 56.3361C73.8865 56.6027 72.8092 56.6269 72.474 56.1907C72.2346 55.8757 72.3304 54.979 72.5219 54.8094C73.2401 54.1793 73.3837 53.8401 73.8386 53.3796C74.2456 52.9677 74.1977 53.0646 74.5328 52.6041C74.6765 52.4103 75.2032 51.4894 75.5144 51.7075L78.1238 51.6833Z" fill="#1E160D"/>
<path d="M79.9911 31.2301C79.6799 32.7811 79.8235 34.3805 79.632 35.9557C79.4166 37.8217 79.7757 40.0269 78.9378 41.7717C78.6744 42.3049 77.8366 43.1531 76.8072 43.0804C76.2087 43.0319 74.9159 42.838 75.0117 42.4261C75.1074 41.9898 74.7483 41.2144 74.7723 40.8266C74.8202 40.0996 74.7962 35.7376 74.7483 34.3563C74.7005 33.2173 74.7244 32.4903 74.7483 31.2301C74.7483 31.2301 74.485 28.8552 77.1902 29.243C79.8954 29.6065 80.039 30.9878 79.9911 31.2301Z" fill="#660000"/>
<path d="M79.2731 41.675C79.1294 40.6571 79.2491 39.8574 79.2252 38.7427C79.2013 37.9188 74.8921 38.8154 74.7964 40.8025C74.7964 40.8025 75.5864 48.6058 75.0358 51.0776L74.964 51.4896C74.964 51.4896 74.8443 51.8531 75.1315 52.1196C75.1555 52.1439 75.5625 52.4831 76.1131 52.6043C76.8791 52.7982 77.8846 52.7012 78.4113 52.1439C79.704 50.7625 79.7758 45.0677 79.2731 41.675Z" fill="#660000"/>
<path d="M84.0847 54.7368C84.4199 54.8095 84.6114 55.27 84.755 55.5365C84.9466 55.9 85.0663 56.4332 84.6114 56.8936C84.4438 57.0632 83.2947 57.4025 82.9596 57.7418C82.6484 58.0568 81.188 59.0746 80.7811 59.2927C80.422 59.4866 80.0629 59.7289 79.6559 59.7532C79.1532 59.8016 78.4829 59.7047 78.1477 59.2685C77.9083 58.9535 77.8844 58.59 78.0998 58.4203C78.818 57.7902 79.1292 57.1359 79.5841 56.6755C79.9911 56.2635 80.1586 56.1424 80.4938 55.6819C80.6374 55.4881 81.1641 54.5672 81.4753 54.7853L84.0847 54.7368Z" fill="#1E160D"/>
<path d="M83.4621 32.9264C83.2945 34.5016 83.7255 36.1737 83.6776 37.7489C83.6058 39.6391 84.1564 41.7959 83.4382 43.6134C83.2227 44.1708 82.4567 45.0917 81.4273 45.0917C80.8288 45.0917 79.536 45.019 79.5839 44.5828C79.6318 44.1466 79.2248 43.3953 79.2248 43.0076C79.2009 42.2806 78.8418 37.9428 78.6742 36.5615C78.5306 35.4225 78.4348 34.3804 78.0039 33.2657C78.0039 33.2657 77.6927 30.8181 80.4218 30.8181C82.7439 30.7939 83.4861 32.6841 83.4621 32.9264Z" fill="#820808"/>
<path d="M84.0846 44.7042C83.8452 43.7107 83.917 42.9109 83.7973 41.772C83.7255 40.948 79.3446 41.36 79.4164 43.3714C79.4164 43.3714 80.9964 51.9258 80.6134 54.4219L80.5655 54.8339C80.5655 54.8339 80.4697 55.2216 80.781 55.4639C80.8049 55.4882 81.2358 55.779 81.7864 55.8759C82.5525 55.9971 83.5579 55.8274 84.0367 55.2216C85.2577 53.7191 84.8746 48.0485 84.0846 44.7042Z" fill="#820808"/>
<path d="M80.0391 9.97734C80.3024 10.0258 82.7443 12.5461 83.9412 13.9032C84.8031 14.8968 84.9228 17.2717 84.8988 17.5867C84.8749 18.6045 83.4864 24.7598 83.2709 26.1169C83.0555 27.4982 83.7976 32.0784 83.7976 32.9992C83.7976 33.8474 82.9358 35.1076 80.4221 35.1076C78.8421 35.1076 74.7245 34.3321 74.4851 31.7633C74.2936 29.7035 74.6048 19.7192 74.3415 18.6045C74.0542 17.4898 71.9236 11.7949 73.5994 10.2681C74.0303 9.88041 74.8921 9.63807 75.4188 9.66231C77.31 9.78348 79.7279 9.92888 80.0391 9.97734Z" fill="black"/>
<path d="M76.7355 10.4134C75.7061 11.0435 75.2273 12.3036 75.0119 13.5153C74.6288 15.6721 74.7964 17.9501 75.5146 20.0341C75.8258 20.9308 76.2328 21.8274 76.2328 22.7725C77.2622 22.0698 77.7649 20.8338 78.124 19.6222C78.4831 18.4105 78.7704 17.1503 79.5364 16.1568C80.0631 15.4782 80.8052 14.9693 81.3798 14.3392C81.9783 13.7092 82.4331 12.8368 82.2655 11.9886C82.1698 11.5766 81.9543 11.2131 81.7149 10.8981C81.0446 9.95297 80.0392 9.08056 78.8901 9.20173L76.7355 10.4134Z" fill="#464646"/>
<path d="M78.7704 15.5753C79.1534 14.9453 79.6322 14.2667 80.087 13.7093C80.4461 13.2489 80.518 12.4977 80.3983 11.9888C80.1349 10.9225 79.2731 10.9952 78.531 10.9952C77.3819 10.9952 76.4961 11.5041 76.0413 12.9096C76.0413 12.9096 75.8497 14.194 75.754 14.8726C75.5625 16.06 75.6582 17.2717 75.8737 18.4591C76.0891 19.6708 76.3046 20.3251 76.4482 21.7549L78.7704 15.5753Z" fill="#B4EEEF"/>
<path d="M77.3578 15.5756C77.1184 15.5756 76.2805 14.0488 76.5439 12.716C76.2087 12.716 75.9214 12.8856 75.7778 13.2249C75.5863 12.6675 75.9214 11.9163 76.2327 11.4316C76.4002 11.1408 76.7115 10.8015 76.9508 10.5834C77.1424 10.4138 77.4296 10.438 77.669 10.2926C78.0999 10.0503 78.7224 10.0503 79.2012 10.0018C79.5124 9.95337 79.2012 9.44447 79.4884 9.396C80.1827 9.2506 81.0445 10.438 81.0685 11.1408C81.0924 12.2071 80.5657 13.6126 80.0869 14.0004C79.8954 14.1458 79.7039 14.4123 79.5124 14.6062C79.5124 14.0488 79.5363 13.5399 79.3209 13.031C78.9378 13.0795 78.6984 13.2007 78.3633 13.5157C77.4057 14.4123 77.5254 15.2363 77.3578 15.5756Z" fill="#BEF4F4"/>
<path d="M85.6886 17.175C86.8138 20.2042 87.0053 27.3288 85.928 27.6196C85.5211 27.7166 82.8877 27.45 82.9356 26.408C83.0074 23.9846 82.2413 20.1557 81.7626 18.1928C80.9965 15.0666 81.6429 14.4123 82.6962 14.0488C83.8214 13.6611 84.4917 13.9277 85.6886 17.175Z" fill="black"/>
<path d="M80.3021 7.21484C80.3021 8.11149 80.1584 8.54769 80.2781 9.6382C80.326 9.97747 80.4696 10.4137 80.4696 10.8983C80.4696 11.7223 79.2727 12.0131 79.0093 12.207C78.6502 12.4978 78.1236 12.6432 77.5251 13.2248C77.3575 12.5462 76.8787 12.2554 76.9745 11.6981C77.0463 11.2376 77.166 10.2198 77.3335 9.75937C77.5011 9.25046 77.9799 8.98389 77.9799 8.45076L80.3021 7.21484Z" fill="#FCCB95"/>
<path d="M80.3021 7.21484C80.3021 8.11149 80.1584 8.54769 80.2781 9.6382C80.326 9.97747 80.4696 10.4137 80.4696 10.8983C80.4696 11.7223 79.2727 12.0131 79.0093 12.207C78.6502 12.4978 78.1236 12.6432 77.5251 13.2248C77.3575 12.5462 76.8787 12.2554 76.9745 11.6981C77.0463 11.2376 77.166 10.2198 77.3335 9.75937C77.5011 9.25046 77.9799 8.98389 77.9799 8.45076L80.3021 7.21484Z" fill="url(#paint0_linear_5301_3)"/>
<path d="M75.4667 3.43429C75.4907 3.96743 75.2513 4.4521 75.1555 4.98524C75.0837 5.34875 75.0358 5.44568 75.1794 5.76072C75.3949 6.24539 75.3231 6.70583 75.2034 7.1905C75.0597 7.7721 75.2273 8.37794 75.3949 8.95955C75.5146 9.41999 75.5864 9.95313 75.9934 10.2197C76.9988 10.8982 78.124 10.1712 79.1534 9.80772C80.1589 9.44422 79.9913 7.96597 80.3025 7.1178C80.8771 5.59108 80.4461 3.43429 78.7943 2.77999C78.0522 2.48919 76.8313 2.34378 76.0652 2.63459C75.8019 2.73152 75.2752 3.33736 75.5146 3.62816L75.4667 3.43429Z" fill="#FFD8A6"/>
<path d="M75.4667 3.43429C75.4907 3.96743 75.2513 4.4521 75.1555 4.98524C75.0837 5.34875 75.0358 5.44568 75.1794 5.76072C75.3949 6.24539 75.3231 6.70583 75.2034 7.1905C75.0597 7.7721 75.2273 8.37794 75.3949 8.95955C75.5146 9.41999 75.5864 9.95313 75.9934 10.2197C76.9988 10.8982 78.124 10.1712 79.1534 9.80772C80.1589 9.44422 79.9913 7.96597 80.3025 7.1178C80.8771 5.59108 80.4461 3.43429 78.7943 2.77999C78.0522 2.48919 76.8313 2.34378 76.0652 2.63459C75.8019 2.73152 75.2752 3.33736 75.5146 3.62816L75.4667 3.43429Z" fill="url(#paint1_linear_5301_3)"/>
<path d="M86.383 26.8442C85.9761 29.7522 84.4918 36.2953 83.4864 36.1256C83.1273 36.0771 81.643 35.859 81.6191 34.9382C81.5951 33.4599 82.6006 29.4372 82.9357 26.408C83.0076 25.7536 84.0609 24.9539 85.0424 25.0993C86.0479 25.269 86.6703 24.7843 86.383 26.8442Z" fill="#A5A5A5"/>
<path d="M76.9736 11.9824C76.9497 12.2975 76.9266 12.643 76.9266 12.958C76.9027 13.467 76.9984 13.9274 77.0463 14.4363C77.0942 14.8725 77.2378 15.2602 77.3815 15.648C77.2857 15.4541 77.3575 15.1875 77.4294 14.9937C77.573 14.509 77.7645 14.0001 78.0518 13.5881C78.1954 13.3943 78.3869 13.2246 78.5306 13.0307C78.6742 12.8369 78.8657 12.643 79.0333 12.4734C79.153 12.3522 79.2727 12.2068 79.4163 12.0856C79.5121 12.0129 79.5839 11.9887 79.6557 11.8918C79.7276 11.8191 80.0148 11.504 79.8951 11.4556L76.9736 11.9824Z" fill="#FCCB95"/>
<path d="M76.9736 11.9824C76.9497 12.2975 76.9266 12.643 76.9266 12.958C76.9027 13.467 76.9984 13.9274 77.0463 14.4363C77.0942 14.8725 77.2378 15.2602 77.3815 15.648C77.2857 15.4541 77.3575 15.1875 77.4294 14.9937C77.573 14.509 77.7645 14.0001 78.0518 13.5881C78.1954 13.3943 78.3869 13.2246 78.5306 13.0307C78.6742 12.8369 78.8657 12.643 79.0333 12.4734C79.153 12.3522 79.2727 12.2068 79.4163 12.0856C79.5121 12.0129 79.5839 11.9887 79.6557 11.8918C79.7276 11.8191 80.0148 11.504 79.8951 11.4556L76.9736 11.9824Z" fill="#96A7B1"/>
<path d="M81.8343 1.61645C80.9725 0.525935 78.8897 0.477468 77.0943 0.962139C76.2085 1.20448 75.8015 2.34345 75.8015 2.34345C75.5621 2.63426 76.3521 3.4582 76.5676 3.62783C76.9985 3.9671 77.5012 4.1125 78.0279 4.23367C78.3391 4.30637 78.6982 4.35484 79.0094 4.37907C79.2249 4.40331 79.56 4.35484 79.7516 4.40331C80.2304 4.54871 80.1346 5.20302 80.1585 5.61499C80.1825 5.95426 80.2543 6.24506 80.2064 6.60856C80.1825 6.7782 79.6079 8.54725 79.8473 8.64418C80.1825 8.76535 81.8582 7.33557 82.0976 6.41469C82.2892 5.83309 83.3664 3.55513 81.8343 1.61645Z" fill="url(#paint2_linear_5301_3)"/>
<path d="M82.1216 6.43911C82.2413 5.95444 82.9595 4.42772 82.4807 2.85254C82.361 2.90101 82.2413 2.94947 82.1694 2.99794C82.0737 3.09487 82.1455 3.04641 82.0976 3.16758C82.0497 3.31298 82.0497 3.40991 81.8582 3.50685C81.6667 3.28874 81.4513 3.82188 81.3555 3.94305C81.2597 4.06422 81.2837 4.01575 81.164 4.06422C81.0203 4.13692 81.0922 4.01575 80.9485 4.18539C80.8288 4.33079 80.6613 4.57312 80.4458 4.62159C80.2303 4.67006 80.1585 4.42772 80.0628 4.79123C80.1346 5.05779 80.1106 5.39706 80.1346 5.66363C80.1585 6.0029 80.2303 6.29371 80.1825 6.65721C80.1585 6.82685 79.584 8.5959 79.8234 8.69283C80.2064 8.814 81.8822 7.35998 82.1216 6.43911Z" fill="#494240"/>
<path d="M80.9966 7.72341C80.6615 8.28078 80.2066 8.59582 79.9672 8.45042C79.7278 8.30502 79.5602 7.69918 79.8715 7.16604C80.2066 6.6329 80.9009 6.3421 81.1402 6.4875C81.3796 6.60867 81.3078 7.16604 80.9966 7.72341Z" fill="#FFD8A6"/>
<path d="M80.9966 7.72341C80.6615 8.28078 80.2066 8.59582 79.9672 8.45042C79.7278 8.30502 79.5602 7.69918 79.8715 7.16604C80.2066 6.6329 80.9009 6.3421 81.1402 6.4875C81.3796 6.60867 81.3078 7.16604 80.9966 7.72341Z" fill="url(#paint3_linear_5301_3)"/>
<path d="M76.6394 3.65226C76.4718 3.4584 76.2803 3.26453 76.0409 3.16759C75.5621 2.97372 75.0354 3.19183 74.5806 3.40993C74.6284 3.14336 74.8439 2.94949 75.0833 2.82832C75.3227 2.70716 75.586 2.63445 75.8015 2.51329C75.4663 2.53752 75.1072 2.58599 74.7721 2.68292C74.8918 2.31942 75.203 2.05285 75.5142 1.85898C75.8494 1.66511 76.2085 1.54394 76.5197 1.35008C76.2085 1.39854 75.8972 1.49548 75.61 1.66511C75.7536 1.37431 76.0409 1.18044 76.3282 1.03504C76.8788 0.768469 77.5012 0.695769 78.0997 0.623068C77.8363 0.598834 77.5491 0.623068 77.2857 0.695769C77.7645 0.453433 78.3151 0.429199 78.8418 0.429199C79.177 0.429199 79.5121 0.429199 79.8473 0.526134C80.4218 0.695769 80.9006 1.10774 81.2836 1.56818L76.6394 3.65226Z" fill="url(#paint4_linear_5301_3)"/>
<path d="M54.9746 9.54102C54.9746 9.54102 54.6155 11.5766 56.3152 12.9095C57.9909 14.2423 58.9725 12.2309 58.9725 12.2309L54.9746 9.54102Z" fill="#753616"/>
<path d="M50.019 29.0733C50.0908 28.419 50.3781 27.8374 50.5696 27.2073C50.6414 27.0134 50.7132 26.8196 50.809 26.6499C50.785 26.7469 50.8329 26.8438 50.785 26.9165C49.7317 28.8794 51.2159 29.1702 53.3944 29.146C55.5729 29.146 57.8233 27.9343 57.8233 26.6742C57.8233 26.4803 58.2063 26.7469 58.1345 26.4561C58.1345 26.4561 59.2836 29.0975 58.9005 31.5209C58.3499 35.0832 58.1105 37.8216 58.0866 39.6149C58.0627 41.3355 55.5729 42.7168 54.3281 42.8137C53.5381 42.8864 52.796 43.153 52.0059 43.0561C51.6229 43.0076 50.9287 42.7653 50.6414 42.4745C50.402 42.2321 50.5217 41.7959 50.4738 41.4566C50.3302 40.6569 50.785 38.379 50.0429 35.2771C49.8035 34.2835 49.9711 33.2415 49.9711 32.2236C49.995 31.2058 49.9232 30.1153 50.019 29.0733Z" fill="#126F9A"/>
<path d="M60.4806 18.1439C60.8636 19.5737 61.534 23.136 62.5394 24.7596C62.9943 25.5109 63.9519 25.3655 64.2391 25.2685C65.101 25.0262 63.8082 19.7675 63.2337 17.6834C62.6591 15.5751 60.9833 14.6058 60.1215 14.8723C59.2597 15.1147 59.9061 16.0356 60.4806 18.1439Z" fill="#DCEEF9"/>
<path d="M50.4259 27.4256C52.2932 22.9424 54.2323 19.3074 54.6393 18.5561C54.6393 18.5319 55.7645 16.9567 56.9375 16.2297C58.8287 15.0665 61.1509 14.606 61.5818 14.9453C62.5394 15.745 62.0606 18.0472 62.276 19.477C62.5394 21.343 60.2651 22.8212 60.0975 22.8939C59.7384 23.0878 59.4272 23.3301 59.2118 23.6209C59.2118 23.6209 59.1878 23.6452 59.1878 23.6694C59.1399 23.7421 59.0921 23.7906 59.0442 23.8633C58.8287 24.1783 58.4457 24.7357 58.2542 25.1234C58.1105 25.39 57.9669 26.6501 58.3739 26.8682C58.9724 28.6858 54.5914 29.5824 53.586 29.5582C50.8808 29.5582 49.995 28.4677 50.4259 27.4256Z" fill="#7A9E9F"/>
<path d="M58.1582 18.3377C58.6131 18.7254 59.0679 19.0889 59.5228 19.4767C59.7382 19.6706 59.9776 19.8644 60.1452 20.1068C60.3846 20.446 60.4803 20.858 60.5761 21.27C60.9113 20.6399 61.2464 19.9856 61.39 19.2586C61.5337 18.5558 61.4619 17.7561 61.031 17.1987L58.1582 18.3377Z" fill="#DCEEF9"/>
<path d="M57.943 14.6786C57.943 14.6786 55.7405 16.0357 57.1529 18.144C57.9908 19.4042 58.2781 19.4527 58.2781 19.4527C58.2781 19.4527 58.0866 18.5076 58.4217 18.4591C58.733 18.4349 60.9115 18.8711 60.9115 18.8711C60.9115 18.8711 61.2945 17.7321 61.3903 17.2959C61.4621 16.9566 62.1324 17.417 62.1324 17.417C62.0366 16.9566 60.0257 13.5639 57.943 14.6786Z" fill="white"/>
<path d="M60.9112 18.8708C60.9112 18.8708 59.0918 18.3134 58.1821 17.7318C57.8708 17.538 57.4639 16.811 57.4639 16.2051C57.4639 15.4539 57.8708 15.3327 58.3018 15.1388C58.9481 14.848 59.9775 15.4296 60.4084 16.1809C60.3845 16.1809 61.1506 17.4653 60.9112 18.8708Z" fill="#FCCB95"/>
<path d="M53.9689 20.7368C53.897 22.2151 53.4182 25.8016 53.8492 27.6676C54.0407 28.54 54.9983 28.6854 55.2855 28.7097C56.1713 28.7339 56.6022 23.354 56.7219 21.173C56.8416 18.992 56.698 17.8288 55.7883 17.7803C54.9025 17.7561 54.0886 18.5558 53.9689 20.7368Z" fill="white"/>
<path d="M59.427 13.7334C59.4988 13.9031 59.4031 14.1939 59.3792 14.4362C59.3552 14.7755 59.451 15.0905 59.5228 15.4298C59.5946 15.7448 59.7382 16.1083 59.5228 16.3507C59.1637 16.7626 58.0385 16.7142 57.7034 16.3749C57.1049 15.7933 57.7752 14.9693 57.9428 14.3635C58.0146 14.0969 57.8949 13.6123 58.0625 13.4184C58.5652 12.9095 59.427 13.9031 59.6425 14.2181L59.427 13.7334Z" fill="#FCCB95"/>
<path d="M61.6534 7.86914C62.0843 7.86914 62.4434 9.54126 62.4674 10.341C62.4913 10.9953 62.4674 11.7465 62.4913 12.4008C62.5152 13.249 62.4434 14.0729 62.8743 14.8484C62.5392 14.5334 61.7492 13.9033 61.4858 13.564C60.4804 12.3524 60.3367 11.9404 59.8101 11.0195L61.6534 7.86914Z" fill="#7F2D00"/>
<path d="M56.8414 8.18377C57.4159 7.11749 58.8523 7.57793 60.0493 7.6991C61.2702 7.79603 61.6532 8.2807 61.8447 10.5344C61.8447 10.6556 61.8208 10.7283 61.749 10.8979C61.4856 11.3826 61.8208 11.8673 61.7968 12.4246C61.749 13.0305 61.3899 13.7575 61.1984 14.3391C61.0787 14.6784 61.1026 14.7753 60.7196 14.8238C60.3844 14.8722 60.0253 14.7995 59.7141 14.7026C59.1156 14.5087 58.3974 14.3633 57.9665 13.9029C57.4877 13.4182 57.392 12.667 57.2483 12.0369C56.9611 10.9706 56.3147 9.20158 56.8414 8.18377Z" fill="#FED8A7"/>
<path d="M60.6959 8.25684C60.7916 9.34735 59.8819 10.7044 58.9483 11.1891C59.3074 10.9468 59.2595 10.3894 59.3313 10.0259C59.044 10.4379 57.464 11.8192 57.9189 13.9517C58.0625 14.606 58.6849 15.0907 58.9483 15.6965C58.1343 15.3088 57.5598 15.4542 56.4825 13.6852C55.7404 12.4492 55.8122 11.383 55.8122 10.1228C55.7882 8.64457 55.5488 7.11786 57.1049 6.73012C57.9907 6.51202 59.3792 6.73012 60.1452 7.36019C60.648 7.77216 60.8634 8.32954 60.624 8.95961L60.6959 8.25684Z" fill="#7F2D00"/>
<path d="M60.4804 8.54749C60.7677 8.57172 61.2943 8.91099 61.5577 9.05639C61.8689 9.25026 62.204 9.54106 62.3237 9.88034C62.228 9.46836 62.3237 9.03216 62.204 8.62019C62.0365 8.01435 61.6534 7.43274 61.1268 7.11771C59.9777 6.41493 57.2964 5.90603 57.2246 6.70574L60.4804 8.54749Z" fill="#7F2D00"/>
<path d="M57.3207 6.68137C56.2674 6.53597 55.1422 7.11757 54.6395 8.06268C54.448 8.42619 54.3522 8.81392 54.1368 9.15319C54.0889 9.22589 54.0649 9.27436 54.0649 9.34706C54.0649 9.39553 54.1128 9.46823 54.1368 9.5167C54.5198 10.583 54.9507 11.1888 55.8365 11.5281C55.9801 11.5766 56.2195 11.5281 56.3153 11.4311L57.3207 6.68137Z" fill="#7F2D00"/>
<path d="M72.2104 30.7451V49.8896L45.1587 65.4961V46.3515L72.2104 30.7451Z" fill="#CCDBE5"/>
<path d="M38.1445 42.2559V61.4004L45.1588 65.4959V46.3513L38.1445 42.2559Z" fill="#D3E0EA"/>
<path d="M98.8554 44.4375V48.9934L71.8037 64.5756V60.0197L98.8554 44.4375Z" fill="#CCDBE5"/>
<path d="M71.8036 60.0193V64.5752L38.0967 44.946V40.3901L71.8036 60.0193Z" fill="#D3E0EA"/>
<path d="M98.8553 44.4373L71.8036 60.0195L38.0967 40.3903L65.1484 24.8081L98.8553 44.4373Z" fill="#9EAAB3"/>
<path d="M98.8554 46.1821V65.3267L71.8037 80.9331V61.7886L98.8554 46.1821Z" fill="#CCDBE5"/>
<path d="M64.7896 57.6929V76.8374L71.8038 80.9329V61.7883L64.7896 57.6929Z" fill="#D3E0EA"/>
<path d="M100.89 43.4922V44.5827L72.1147 61.1585V60.068L100.89 43.4922Z" fill="#DFEAF4"/>
<path d="M72.115 60.068V61.1585L36.1099 40.1722V39.106L72.115 60.068Z" fill="#DFEAF4"/>
<path d="M100.89 43.4921L72.115 60.0679L36.1099 39.1059L64.8852 22.5059L100.89 43.4921Z" fill="#F8FBFF"/>
<path d="M54.1123 34.8163C53.8968 34.6467 54.3278 33.3866 54.7108 33.5562C55.0699 33.6289 56.8893 34.574 56.985 34.6225C57.1287 34.6952 57.2244 34.7436 57.3681 34.8163C57.5596 34.9375 57.7032 35.1798 57.8229 35.3737C57.9187 35.5676 58.0863 35.713 58.1581 35.9311C58.206 36.1007 58.2299 36.2704 58.2778 36.44C58.3257 36.5612 58.3735 36.6823 58.4454 36.8277C58.4693 36.8762 58.4932 36.9974 58.5172 37.0701C58.4693 37.0943 58.3257 37.1428 58.2538 37.0943C58.206 37.167 58.2778 37.1428 58.2778 37.2397C58.3017 37.3124 58.3257 37.4093 58.2538 37.4336C58.0384 37.5063 57.8947 37.2882 57.8947 37.2882C57.8947 37.3366 57.9426 37.3609 57.9426 37.4093C57.7032 37.5063 57.5596 37.4093 57.4638 37.3124C57.3681 37.2155 57.1526 36.852 57.0808 36.755C56.9132 36.5612 56.6978 36.4642 56.5063 36.3431C56.5781 36.44 56.6499 36.5369 56.7456 36.6339C56.9372 36.9004 57.1766 36.8762 57.1047 37.2155C56.3866 37.167 56.1472 36.5369 55.6444 36.1007C55.0938 35.9796 54.5193 35.1314 54.1123 34.8163Z" fill="#FED8A7"/>
<path d="M56.147 26.7226C56.3625 27.1346 55.6204 32.0298 56.147 33.9442C56.6019 35.5921 54.3995 34.6955 53.9685 34.332C53.5616 33.9927 53.7531 30.6 53.8488 27.6435C53.8967 26.4318 55.1895 24.8809 56.147 26.7226Z" fill="white"/>
<path d="M65.1484 35.4708C64.8611 35.592 63.9035 34.5015 64.2387 34.2107C64.502 33.8956 65.7948 32.9748 65.8905 32.9021C66.0342 32.7809 66.1299 32.7082 66.2975 32.6112C66.513 32.4658 66.8242 32.4658 67.0875 32.4658C67.3269 32.4658 67.5663 32.3689 67.8057 32.4174C67.9972 32.4416 68.1648 32.5385 68.3563 32.5628C68.5239 32.5628 68.6436 32.587 68.8112 32.587C68.883 32.587 69.0027 32.6112 69.0745 32.6355C69.0745 32.7082 69.0505 32.8536 68.9548 32.9021C69.0027 32.999 69.0027 32.9263 69.0984 32.9505C69.1702 32.9748 69.2899 32.9748 69.266 33.0717C69.2181 33.3383 68.9309 33.3383 68.9309 33.3383C68.9787 33.3625 69.0266 33.3383 69.0745 33.3625C69.0505 33.6533 68.859 33.726 68.7154 33.7745C68.5718 33.7987 68.1169 33.8472 67.9733 33.8714C67.7099 33.9441 67.4945 34.0895 67.2551 34.2349C67.3748 34.2107 67.5184 34.1864 67.6621 34.1622C68.0211 34.1137 68.1408 33.8472 68.4281 34.1137C68.0211 34.8165 67.2551 34.6953 66.5608 34.9861C66.2257 35.495 65.6751 35.2285 65.1484 35.4708Z" fill="#FCCB95"/>
<path d="M86.8374 28.6851C86.8853 28.6851 87.0529 28.3943 87.4359 28.5397C88.2498 28.8548 87.8668 30.0907 87.8668 30.0907L86.8374 28.6851Z" fill="#424242"/>
<path d="M85.1379 35.8828C85.3055 35.9555 85.4731 36.0525 85.6646 36.1252C85.8322 36.1979 85.9997 36.319 86.1913 36.3917C86.1913 36.3917 86.2152 36.3917 86.2391 36.416C86.8137 36.8764 87.9149 37.1187 88.4416 37.3368L89.1837 35.9071C89.0161 35.5678 88.8007 34.9377 88.4895 34.5015C88.3698 34.2834 88.274 34.0168 88.0346 33.9199C87.7234 33.7745 87.5797 33.6533 87.2685 33.5564C87.0291 33.4595 86.8137 33.2171 86.5743 33.1202C86.3349 33.0233 85.9758 32.9748 86.0237 33.3625C86.0476 33.5806 86.5025 33.7987 86.67 33.8957C86.7897 33.9926 86.9334 34.1138 87.0531 34.2592C87.0052 34.3076 86.9334 34.3319 86.8855 34.3803C86.7658 34.3803 86.6461 34.2834 86.5264 34.2349C86.4067 34.1865 86.287 34.138 86.1434 34.0895C85.9997 34.0411 85.7843 34.0168 85.6885 33.8714C85.4491 33.5564 85.2576 33.2656 84.9464 32.999C84.8267 32.9021 84.5394 32.9021 84.5394 33.1444C84.5394 33.2656 84.6352 33.3625 84.6831 33.4595C84.7549 33.5564 84.8028 33.6776 84.8506 33.7987C84.8506 33.823 84.8746 33.8472 84.8746 33.8472C84.8028 33.7745 84.7309 33.7018 84.6831 33.6291C84.5634 33.5079 84.3958 33.2414 84.2043 33.1929C83.9409 33.1444 83.8691 33.3625 83.9649 33.6049C83.9888 33.6533 84.0367 33.726 84.0606 33.7745C84.0367 33.7745 84.0128 33.7503 83.9888 33.7503C83.917 33.726 83.7734 33.7503 83.7494 33.8472C83.7255 33.8957 83.8212 34.0411 83.8452 34.0895C83.917 34.2107 83.9888 34.3319 84.0606 34.4773C84.1324 34.6227 84.2043 34.6954 84.3 34.7923C84.2043 34.7439 84.0606 34.6954 84.0128 34.8166C83.9888 34.865 84.0606 34.962 84.0846 35.0104C84.1324 35.1074 84.1564 35.1316 84.2282 35.2043C84.4197 35.3982 84.5873 35.5678 84.8028 35.7374C84.8746 35.7617 84.9943 35.8101 85.1379 35.8828Z" fill="#FED8A7"/>
<path d="M94.2586 71.6517C94.4022 71.991 94.6416 73.6631 94.498 73.9539C94.3065 74.3416 93.9234 74.7051 93.2531 74.6324C92.5589 74.5597 92.0562 73.7842 91.5534 73.6873C91.0986 73.6146 89.5904 72.9118 88.5849 72.3787C88.0582 72.1121 87.3879 71.167 87.5555 70.6096C87.6752 70.1977 88.4892 69.7615 88.7764 69.8342C89.734 70.1007 90.117 70.028 90.7874 70.1492C91.3858 70.2461 91.2661 70.2704 91.8646 70.2946C92.104 70.2946 93.2292 70.2219 93.2053 70.6339L94.2586 71.6517Z" fill="#1E160D"/>
<path d="M95.3124 49.9625C95.0251 51.6103 95.1927 53.2825 95.0251 54.9303C94.8336 56.9175 95.2645 59.2197 94.4027 61.0614C94.1393 61.6188 93.2775 62.5397 92.2002 62.467C91.5778 62.4185 90.2133 62.2489 90.309 61.8127C90.4048 61.3522 90.0217 60.5283 90.0217 60.1163C90.0457 59.3408 89.9499 54.7849 89.8542 53.3067C89.7823 52.095 89.8063 51.368 89.7823 50.0352C89.7823 50.0352 89.3993 48.6054 92.2481 48.9446C95.1448 49.3081 95.3603 49.7201 95.3124 49.9625Z" fill="#032B42"/>
<path d="M95.0008 61.4492C94.8811 60.383 95.0247 59.5348 95.0247 58.3716C95.0247 57.4992 90.4044 57.4265 90.2607 59.5348C90.2607 59.5348 91.4338 67.8469 90.7635 70.4157L90.6677 70.8519C90.6677 70.8519 90.5241 71.0942 90.4044 72.0393C90.4283 72.0636 90.2607 72.7421 91.5535 73.1541C92.3195 73.4206 93.4926 73.1056 93.6841 72.3059C94.3065 69.6402 95.4317 65.0358 95.0008 61.4492Z" fill="#032B42"/>
<path d="M89.3033 75.3592C89.423 75.6985 90.0933 76.9344 89.7342 78.1461C89.6145 78.558 89.1357 78.9215 88.4654 78.7761C88.2021 78.7034 87.2924 77.8795 86.8136 77.7583C86.3587 77.6614 84.6351 76.9102 84.2281 76.6678C83.869 76.4497 83.4381 76.2558 83.1748 75.9166C82.8636 75.5046 82.5763 74.8261 82.7678 74.2687C82.9114 73.881 83.2226 73.6629 83.486 73.7356C84.4436 74.0264 85.1857 73.9537 85.856 74.0991C86.4545 74.2202 86.646 74.3172 87.2445 74.3656C87.4839 74.3899 88.6091 74.3414 88.5851 74.7534L89.3033 75.3592Z" fill="#1E160D"/>
<path d="M86.2388 49.5989C86.2627 49.4778 86.2866 49.3808 86.3106 49.2839C86.2866 49.2597 86.2388 49.4051 86.2388 49.5989Z" fill="#04385B"/>
<path d="M88.5131 51.0774C86.4783 50.8593 86.2149 50.0596 86.2149 49.5991C85.9037 51.3682 85.8798 54.2035 85.9037 55.3425C85.9037 56.8207 85.808 61.4009 85.7361 62.1521C85.7122 62.346 85.784 62.6368 85.8558 62.9518C85.8558 62.9518 85.8558 62.9518 85.8558 62.9761C85.8558 62.9761 85.9037 63.2426 85.9516 63.7031C85.9516 63.7515 85.9516 63.8 85.9277 63.8485C85.9037 63.9212 85.9277 63.9939 85.9995 64.0423C86.2867 66.3688 86.8852 71.8455 86.3586 73.8327L86.2628 74.2689C86.2628 74.2689 86.1192 74.5112 85.9995 75.4563C86.0234 75.4806 85.8558 76.1591 87.1486 76.5711C87.9146 76.8377 89.0877 76.5226 89.2792 75.7229C89.9016 73.0572 91.0268 68.4528 90.5959 64.8663C90.4762 63.8 90.6198 62.9518 90.6198 61.7886C90.6198 61.7644 90.6198 61.7401 90.6198 61.7401C90.9071 60.2619 90.8113 58.614 91.0028 57.1842C91.2422 55.5363 90.955 53.7431 91.338 52.1194C91.3859 51.8771 90.9071 51.3197 88.5131 51.0774Z" fill="#04385B"/>
<path d="M86.5981 72.1846C86.7417 72.6935 86.5742 73.2751 86.2151 73.6386C86.1672 73.6871 86.1433 73.7113 86.1193 73.7598C86.0954 73.8083 86.1193 73.8567 86.1433 73.9294C86.2151 74.0748 86.263 74.2445 86.3348 74.3899C86.0714 74.4626 85.9757 74.7776 85.9039 75.02C85.8799 75.1169 85.856 75.2138 85.832 75.2865C85.8081 75.3592 85.8081 75.4319 85.8081 75.5046C85.8081 75.5773 85.856 75.6258 85.8799 75.6985C86.1672 76.1589 86.622 76.5224 87.1487 76.6678C87.6754 76.8132 88.2499 76.7405 88.7287 76.474C88.9921 76.3286 89.2075 76.1347 89.423 75.9408C89.5427 75.8197 89.6863 75.6258 89.5906 75.4804C89.5187 75.3592 89.3512 75.2865 89.399 75.1654C89.5187 75.1411 89.6145 75.0684 89.6384 74.9715C89.6863 74.8746 89.6863 74.7776 89.6863 74.6807C89.6863 73.881 89.6624 73.0813 89.6624 72.2816C89.6624 72.0877 89.6624 71.8696 89.5666 71.6757C89.399 71.3364 88.9681 71.2153 88.609 71.1426L86.5981 72.1846Z" fill="#04385B"/>
<path d="M91.0029 68.5738C91.1465 69.0827 90.979 69.6643 90.6199 70.0278C90.572 70.0763 90.548 70.1005 90.5241 70.149C90.5002 70.1974 90.5241 70.2459 90.548 70.3186C90.6199 70.464 90.6677 70.6336 90.7396 70.779C90.4762 70.8517 90.3805 71.1668 90.3086 71.4091C90.2847 71.506 90.2608 71.603 90.2368 71.6757C90.2129 71.7484 90.2129 71.8211 90.2129 71.8938C90.2129 71.9665 90.2608 72.0149 90.2847 72.0876C90.572 72.5481 91.0268 72.9116 91.5535 73.057C92.0802 73.2024 92.6547 73.1297 93.1335 72.8631C93.3969 72.7177 93.6123 72.5239 93.8278 72.33C93.9475 72.2088 94.0911 72.0149 93.9953 71.8695C93.9235 71.7484 93.7559 71.6757 93.8038 71.5545C93.9235 71.5303 94.0193 71.4576 94.0432 71.3606C94.0911 71.2637 94.0911 71.1668 94.0911 71.0698C94.0911 70.2701 94.0672 69.4704 94.0672 68.6707C94.0672 68.4769 94.0672 68.2587 93.9714 68.0649C93.8038 67.7256 93.3729 67.6044 93.0138 67.5317L91.0029 68.5738Z" fill="#032B42"/>
<path d="M86.2393 49.5989C86.2632 49.4778 86.2871 49.3808 86.3111 49.2839C86.2871 49.2597 86.2393 49.4051 86.2393 49.5989Z" fill="#04385B"/>
<path d="M87.7951 75.5047C87.6754 75.3593 87.6275 75.1412 87.6754 74.9231C87.7233 74.705 87.8669 74.5354 88.0345 74.4627L88.0824 74.4385L88.1063 74.39C88.2021 74.1719 88.0345 74.0023 87.9148 73.8811C87.843 73.8084 87.7472 73.7115 87.7472 73.6388C87.7472 73.5903 87.7711 73.5418 87.7711 73.4934L87.7951 73.4449C87.8908 73.1299 87.8669 72.8148 87.819 72.4998L87.7951 72.4028C87.6754 71.4093 87.7711 70.3672 87.843 69.3737C87.9627 67.9196 88.0824 66.4172 87.6036 64.9874C87.5318 64.7693 87.436 64.5512 87.3642 64.3573C87.1727 63.8969 86.9811 63.4364 86.9572 62.9518C86.9333 62.6125 86.9811 62.2732 87.029 61.9582L87.053 61.7643C87.2205 60.4799 87.2205 59.1713 87.1966 57.8869C87.1727 56.3118 87.1487 54.6881 87.5078 53.1372L87.2445 53.0645C86.8854 54.6396 86.9093 56.2875 86.9333 57.8869C86.9572 59.1471 86.9811 60.4557 86.7896 61.7158L86.7657 61.9097C86.7178 62.249 86.6699 62.6125 86.6939 62.976C86.7417 63.5091 86.9333 63.9938 87.1248 64.4542C87.2205 64.6481 87.2924 64.8662 87.3642 65.0843C87.819 66.4414 87.7233 67.8469 87.5796 69.3494C87.5078 70.3672 87.4121 71.4093 87.5318 72.4271L87.5557 72.524C87.5796 72.8148 87.6275 73.1056 87.5318 73.348L87.5078 73.3964C87.4839 73.4691 87.4599 73.5661 87.4599 73.663C87.4839 73.8326 87.6036 73.9538 87.6993 74.075C87.7711 74.1477 87.819 74.2204 87.843 74.2446C87.6275 74.3658 87.4599 74.5839 87.3881 74.8747C87.3402 75.0928 87.3642 75.3351 87.4599 75.5047C87.1727 75.6017 86.9333 75.8925 86.9333 76.2075C86.9333 76.3287 86.9572 76.4256 86.9811 76.5226C87.029 76.5468 87.0769 76.571 87.1487 76.5953C87.1966 76.6195 87.2445 76.6195 87.2924 76.6437V76.6195C87.2445 76.4983 87.2205 76.3529 87.2205 76.2318C87.2445 75.9894 87.4599 75.7471 87.7233 75.7471H88.0105L87.7951 75.5047Z" fill="#032B42"/>
<path d="M90.9552 41.3838C88.0345 40.681 82.9115 38.5485 83.1748 37.5064C83.2706 37.1187 83.51 35.907 84.4675 35.9797C85.9757 36.1009 89.3512 37.773 92.4155 38.4273C93.0858 38.5727 93.4928 39.1543 93.2294 40.1963C92.9422 41.2141 93.014 41.8685 90.9552 41.3838Z" fill="#04385B"/>
<path d="M84.4197 30.4301C84.1803 30.5028 82.6721 31.2298 81.5709 32.6596C80.7809 33.7017 80.8048 36.0766 80.8527 36.3674C80.9485 37.3609 84.4915 41.5533 85.7843 45.7458C86.9813 49.6474 84.707 52.9674 86.5264 53.6944C88.0825 54.3002 89.6146 54.2517 90.2849 54.1548C92.4634 53.8882 95.6713 53.0885 95.384 49.405C95.0489 45.1157 93.3252 32.3446 90.8116 29.4123C90.4286 28.9761 89.7822 28.6853 89.2555 28.7338C87.4122 28.9519 84.7309 30.3574 84.4197 30.4301Z" fill="#B8D8D8"/>
<path d="M84.324 30.3574C84.0846 30.4301 82.5764 31.1571 81.4752 32.5869C80.6852 33.6289 80.7091 36.0038 80.757 36.2946C80.8528 37.2882 84.3958 41.4806 85.6886 45.673C86.8856 49.5746 84.6113 52.8946 86.4307 53.6216C87.9868 54.2275 89.5189 54.179 90.1892 54.0821C92.3677 53.8155 95.5756 53.0158 95.2883 49.3323C94.9532 45.0429 93.2295 32.2718 90.7159 29.3396C90.3329 28.9034 89.6865 28.6126 89.1598 28.661C87.3165 28.8791 84.6352 30.2604 84.324 30.3574Z" fill="#B8D8D8"/>
<path d="M72.3781 40.56C70.8459 39.0091 69.9123 37.3612 68.9786 36.61C68.5956 36.2949 69.1462 35.6891 69.5771 35.2529C70.1038 34.7198 70.032 34.6713 70.6784 35.3741C72.1626 36.9735 74.7481 38.0398 76.0169 39.3241C78.0757 41.384 77.0223 41.2386 76.2802 41.9898C75.562 42.7168 74.4129 42.6199 72.3781 40.56Z" fill="#FED8A7"/>
<path d="M81.0202 22.6998C81.116 23.2087 80.8766 23.9114 80.8527 24.4203C80.8287 24.7838 80.8287 24.8808 81.0202 25.1716C81.3075 25.6078 81.3315 26.044 81.3075 26.5287C81.2596 27.1103 81.5469 27.6919 81.8103 28.2008C82.0257 28.6128 82.1693 29.1217 82.6242 29.3155C83.7254 29.8002 84.7548 29.1944 85.6645 28.6612C86.5742 28.1281 86.0954 26.4075 86.2391 25.5351C86.5263 23.9599 85.7363 21.9728 84.0127 21.6335C83.2466 21.4881 82.0257 21.5608 81.3554 21.997C81.116 22.1424 81.7624 22.2636 82.0736 22.5059L81.0202 22.6998Z" fill="#FED8A7"/>
<path d="M83.4619 28.4188C83.4619 28.4188 84.5392 30.4059 84.228 31.0603C84.1083 31.3268 85.0419 31.6661 85.8319 31.5449C87.0768 31.3268 88.3935 30.3817 87.771 29.4124C87.4359 28.9035 86.7416 28.443 86.6938 26.0924C86.6938 25.3654 83.4619 28.4188 83.4619 28.4188Z" fill="#FED8A7"/>
<path d="M85.7602 20.3492C84.0605 19.5979 82.0496 20.1311 81.2835 21.4639C80.8526 22.2151 80.9723 23.0633 80.9723 23.0633C80.8526 23.4026 81.6665 23.2087 82.0975 24.3719C84.276 30.4303 86.7417 27.6435 86.7896 27.4011C87.1966 25.4867 87.7711 25.8017 87.9148 24.6627C88.1542 22.9421 88.1542 21.3912 85.7602 20.3492Z" fill="#7F7559"/>
<path d="M87.9865 24.1538C88.1301 22.6513 87.9146 21.2943 85.7601 20.3492C84.0604 19.5979 82.0494 20.1311 81.2834 21.4639C81.0679 21.8274 80.9961 22.2151 80.9722 22.5059L81.0201 22.724C81.6185 22.6998 82.0734 23.2572 82.5043 23.7176C83.2225 24.5173 84.204 25.1959 85.2813 25.1959C85.6164 25.1959 85.9277 25.1474 86.2628 25.0747C86.8613 24.9535 87.4837 24.7597 87.9146 24.2992C87.9146 24.2508 87.9625 24.2023 87.9865 24.1538Z" fill="#60573A"/>
<path d="M83.5099 26.553C83.3902 27.1346 83.3663 27.6677 83.1269 27.6193C82.8635 27.5708 82.5284 27.1103 82.6241 26.5045C82.7438 25.9229 82.7438 25.3655 83.0072 25.3171C83.486 25.2444 83.6057 25.9714 83.5099 26.553Z" fill="#FED8A7"/>
<path d="M88.5133 29.5819C88.7048 29.9212 88.8245 30.8663 88.1063 31.4721C87.5078 31.9568 86.6939 32.1749 85.9757 32.2718C85.1378 32.393 83.5338 31.7145 83.2705 31.6902C83.0072 31.666 82.672 31.569 82.4326 31.5933C82.8635 31.1813 83.1029 30.9874 83.6535 30.5028C83.7493 30.4301 84.0844 30.1635 84.2041 30.115C84.2041 30.115 84.2041 30.3574 84.3717 30.5028C84.6111 30.7209 84.7308 30.7451 85.066 30.8663C85.6405 31.0844 86.8136 31.0359 87.1966 30.5512C88.0584 29.4607 87.8908 28.8064 87.4839 28.5883C87.7951 28.5399 88.3218 29.2426 88.5133 29.5819Z" fill="#B8D8D8"/>
<path d="M81.044 22.6511C80.9004 22.1907 80.9483 21.6818 81.1637 21.2456C81.1637 21.3667 81.1398 21.4879 81.1398 21.6091C81.2116 21.1002 81.5228 20.6397 81.9537 20.3732C81.858 20.5186 81.8101 20.664 81.7622 20.8094C81.7861 20.6397 81.9298 20.4943 82.0734 20.3732C82.4804 20.0581 83.0071 19.8643 83.5337 19.84C83.3662 19.9127 83.1986 19.9854 83.031 20.0824C83.4619 19.8643 83.9407 19.7431 84.4434 19.6946C84.5871 19.6704 84.7547 19.6704 84.8983 19.7189C85.0898 19.7916 85.2574 19.9612 85.4489 19.9854C85.1856 20.0097 84.9462 20.0097 84.6828 20.0339C85.4728 19.9612 86.3347 19.9127 87.005 20.3732C86.6938 20.2762 86.3586 20.252 86.0474 20.3247C86.8853 20.4701 87.6513 20.979 88.0823 21.706C87.8189 21.4394 87.4598 21.2698 87.1007 21.1971C87.8189 21.6091 88.2977 22.4815 88.2498 23.3297C88.2498 23.1358 88.2259 22.9662 88.1301 22.7965C88.2977 23.4993 88.2738 24.2505 88.0344 24.9291C88.0344 24.7594 88.1062 24.5898 88.2498 24.4929C88.2259 24.9775 87.8907 25.3653 87.5795 25.7288C87.2683 26.0923 86.9571 26.5285 87.0289 27.0132C87.0289 26.6739 87.0529 26.3589 87.1247 26.0438C86.9332 26.5285 86.7895 27.0374 86.7177 27.5463C86.6938 27.0132 86.6459 26.4558 86.6219 25.9227C86.5022 26.2862 86.4304 26.6497 86.4304 27.0374C86.3825 26.48 86.3107 25.8984 85.9516 25.4865C85.9756 25.753 85.9516 26.0438 85.9277 26.3104C85.9516 25.8984 85.6644 25.5107 85.2813 25.3895C85.2813 25.4865 85.3053 25.6076 85.3292 25.7046C85.2334 25.4865 84.994 25.3653 84.8025 25.2441C84.5153 25.0745 84.2519 24.8321 83.9886 24.5898C83.7013 24.299 83.3901 24.0082 83.1986 23.6205C83.0071 23.257 82.9592 22.7965 83.1507 22.4088L81.044 22.6511Z" fill="#60573A"/>
<path d="M87.0532 53.3307C87.9869 54.4455 89.3275 55.2209 90.7639 55.3906C92.2002 55.5602 93.7324 55.0513 94.7139 53.985C94.9293 53.7669 95.1209 53.5004 95.2166 53.2095C95.2884 53.0157 95.3124 52.8218 95.3363 52.6037C95.5278 51.0285 95.5518 49.3564 94.7618 47.9751L87.0532 53.3307Z" fill="#B8D8D8"/>
<path d="M87.7712 53.6941C87.7233 54.0577 87.3403 54.2273 87.077 54.4696C86.9573 54.5908 86.8615 54.7362 86.7179 54.8574C86.5024 55.027 86.1673 55.0997 85.9039 54.9785C85.7603 54.712 85.7363 54.3969 85.7363 54.1061C85.7363 53.7911 85.7124 53.476 85.7124 53.161C85.7124 52.846 85.6885 52.5067 85.8082 52.2159C85.9279 51.9493 86.1194 51.707 86.2391 51.4404L87.7712 53.6941Z" fill="#B8D8D8"/>
<path d="M71.0136 36.5853C71.1812 36.3672 70.463 35.1556 70.1279 34.7678C70.0321 34.5013 69.9364 34.2105 69.697 33.9681C69.2421 33.4592 68.8112 33.023 68.4521 32.4414C68.2367 32.4414 68.1648 32.708 68.2127 32.9261C68.2606 33.2169 68.5 33.5319 68.6436 33.7985H68.6197C68.5239 33.7258 68.4282 33.5804 68.3564 33.5077C68.2367 33.3623 68.1648 33.2411 68.0212 33.0957C67.8297 32.9261 67.6621 32.7807 67.3988 32.7564C67.1594 32.7322 66.9439 32.611 66.7045 32.6353C66.513 32.6595 66.3215 32.7322 66.13 32.7322C65.9624 32.7322 65.8188 32.7322 65.6751 32.7322C65.6033 32.7322 65.4836 32.7564 65.4118 32.7807C65.3878 32.8534 65.3878 33.023 65.4597 33.0715C65.3878 33.1684 65.4118 33.0715 65.316 33.0957C65.2442 33.1199 65.1245 33.1199 65.1245 33.2169C65.1245 33.5077 65.4118 33.5562 65.4118 33.5562C65.3639 33.5562 65.316 33.5562 65.2682 33.5562C65.2203 33.8712 65.4118 33.9681 65.5315 34.0166C65.6512 34.0651 66.106 34.1378 66.2497 34.1862C66.4891 34.2832 66.6806 34.477 66.896 34.6467C66.7763 34.6224 66.6566 34.574 66.4891 34.5255C66.1539 34.4286 66.0821 34.162 65.7469 34.4286C66.0103 35.204 66.8003 35.1556 67.4227 35.5191C67.686 36.1007 68.7633 36.343 69.2182 36.6338C69.4815 36.7792 69.8406 37.2639 70.08 37.3608C70.487 37.482 70.8221 36.8762 71.0136 36.5853Z" fill="#FFD8A6"/>
<path d="M75.9214 38.9605C75.8735 38.7666 75.682 38.5243 75.4665 38.5485C75.2271 38.5727 75.2989 38.6939 75.0596 38.5485C74.9399 38.4758 74.7244 38.3062 74.5808 38.3062C74.3174 38.3304 74.0062 38.8151 73.8386 39.0089C73.3598 39.5421 72.7135 40.3418 72.9529 41.1415C73.0726 41.5292 73.4556 41.7231 73.7189 41.9654C73.9823 42.1835 73.9583 42.4016 74.3414 42.5228C74.5568 42.5955 74.8202 42.644 75.0596 42.644C75.2511 42.644 75.4905 42.5713 75.7059 42.5955C75.9214 42.644 75.9932 42.7409 76.2326 42.5955C76.4241 42.4986 76.448 42.3289 76.5677 42.1835C76.9508 41.6746 77.4535 41.0688 77.262 40.3175L75.9214 38.9605Z" fill="#B8D8D8"/>
<path d="M83.989 33.1202C83.9172 33.0233 84.1806 33.3626 83.8693 32.7567C83.7975 32.6356 83.606 32.5871 83.4863 32.5144C83.223 32.3447 82.9836 32.272 82.6963 32.2478C82.2175 32.2236 81.6908 32.5629 81.2839 32.781C80.6375 33.096 80.0869 33.6776 79.6799 34.2592C79.4405 34.5985 79.249 34.9862 79.0096 35.3497C78.7941 35.6405 78.5548 35.7374 78.2914 35.9555C77.3578 36.6826 77.1423 37.555 77.1423 37.555C77.1423 37.555 76.5199 37.6034 76.3284 37.7973C75.9453 38.1608 75.7538 38.5001 75.8017 38.7909C75.8496 39.0332 75.6102 38.8636 75.682 39.1544C75.7299 39.3725 75.9932 39.3967 76.1369 39.5664C76.472 39.9783 76.8072 40.4388 76.7353 41.0204C76.7114 41.3596 76.472 41.602 76.3763 41.917C76.3523 42.0139 76.3284 42.1109 76.3523 42.2078C76.6396 42.2563 76.7593 42.2805 77.0466 42.1593C77.4057 42.0139 77.7647 41.8443 78.076 41.602C78.3872 41.3839 78.6266 40.9234 78.9857 40.8023C79.2011 40.7296 80.039 40.2207 80.2066 39.9783C80.3981 39.6875 80.6375 39.4452 80.9008 39.2271C81.7148 38.597 82.3133 37.6761 82.9357 36.8522C83.4863 36.1494 83.989 35.592 84.1327 34.6469C84.2045 34.138 84.1327 32.9021 83.4384 32.781L83.989 33.1202Z" fill="#B8D8D8"/>
<path d="M52.724 32.9502C52.5564 33.0229 52.3889 33.1199 52.1973 33.1926C52.0298 33.2653 51.8622 33.3864 51.6707 33.4591C51.6707 33.4591 51.6467 33.4591 51.6228 33.4834C51.0482 33.9438 49.947 34.1861 49.4203 34.4042L48.6782 32.9744C48.8458 32.6352 49.0613 32.0051 49.3725 31.5689C49.4922 31.3508 49.5879 31.0842 49.8273 30.9873C50.1385 30.8419 50.2822 30.7207 50.5934 30.6238C50.8328 30.5269 51.0482 30.2845 51.2876 30.1876C51.527 30.0907 51.8861 30.0422 51.8382 30.4299C51.8143 30.648 51.3595 30.8661 51.1919 30.9631C51.0722 31.06 50.9285 31.1812 50.8088 31.3266C50.8567 31.375 50.9285 31.3993 50.9764 31.4477C51.0961 31.4477 51.2158 31.3508 51.3355 31.3023C51.4552 31.2539 51.5749 31.2054 51.7185 31.1569C51.8622 31.1085 52.0776 31.0842 52.1734 30.9388C52.4128 30.6238 52.6043 30.333 52.9155 30.0664C53.0352 29.9695 53.3225 29.9695 53.3225 30.2118C53.3225 30.333 53.2267 30.4299 53.1789 30.5269C53.107 30.6238 53.0592 30.745 53.0113 30.8661C53.0113 30.8904 52.9873 30.9146 52.9873 30.9146C53.0592 30.8419 53.131 30.7692 53.1789 30.6965C53.2986 30.5753 53.4661 30.3088 53.6577 30.2603C53.921 30.2118 53.9928 30.4299 53.8971 30.6723C53.8731 30.745 53.8252 30.7934 53.8013 30.8419C53.8252 30.8419 53.8492 30.8177 53.8731 30.8177C53.9449 30.7934 54.0886 30.8177 54.1125 30.9146C54.1364 30.9631 54.0407 31.1085 54.0167 31.1569C53.9449 31.2781 53.8731 31.3993 53.8013 31.5447C53.7295 31.6901 53.6577 31.7628 53.5619 31.8597C53.6577 31.8355 53.8013 31.7628 53.8492 31.8839C53.8731 31.9324 53.8013 32.0293 53.7774 32.0778C53.7295 32.1747 53.7055 32.199 53.6337 32.2717C53.4422 32.4655 53.2746 32.6352 53.0592 32.8048C52.9873 32.8533 52.8676 32.9017 52.724 32.9502Z" fill="#FED8A7"/>
<path d="M43.603 68.7191C43.4594 69.0583 43.22 70.7305 43.3636 71.0213C43.5551 71.409 43.9382 71.7725 44.6085 71.6998C45.3027 71.6271 45.8055 70.8516 46.3082 70.7547C46.763 70.682 48.2712 69.9792 49.2767 69.4461C49.8034 69.1795 50.4737 68.2344 50.3061 67.677C50.1864 67.2651 49.3725 66.8288 49.0852 66.9016C48.1276 67.1681 47.7446 67.0954 47.0743 67.2166C46.4758 67.3135 46.5955 67.3378 45.997 67.362C45.7576 67.362 44.6324 67.2893 44.6564 67.7013L43.603 68.7191Z" fill="#1E160D"/>
<path d="M42.55 47.0303C42.8372 48.6782 42.6697 50.3503 42.8372 51.9982C43.0288 53.9854 42.5979 56.2876 43.4597 58.1293C43.723 58.6867 44.5848 59.6076 45.6621 59.5349C46.2845 59.4864 47.6491 59.3167 47.5533 58.8805C47.4576 58.4201 47.8406 57.5962 47.8406 57.1842C47.8167 56.4087 47.9124 51.8528 48.0082 50.3746C48.08 49.1629 48.0561 48.4359 48.08 47.103C48.08 47.103 48.463 45.6732 45.6142 46.0125C42.7415 46.376 42.5021 46.8122 42.55 47.0303Z" fill="#9B9B9B"/>
<path d="M47.6488 68.7674C47.6249 68.6705 47.6009 68.5736 47.577 68.5009C47.5052 68.2585 47.4094 67.9435 47.17 67.8708V67.8223C47.2179 67.6769 47.2897 67.5315 47.3376 67.3861C47.3615 67.3376 47.3855 67.2892 47.3615 67.2165C47.3376 67.168 47.3136 67.1196 47.2658 67.0953C47.1221 66.9499 47.577 56.6022 47.577 56.6022C47.4333 54.4939 42.9088 54.5423 42.9327 55.4147C42.9566 56.6022 43.0045 57.4746 42.8609 58.5409C42.5018 61.4489 43.7706 68.0162 43.7706 68.1616C43.7706 68.2585 43.7706 68.3555 43.8185 68.4524C43.8424 68.5251 43.9142 68.5736 44.01 68.622C44.0339 68.6705 44.0339 68.7432 44.0579 68.7917C44.01 68.8401 43.9382 68.9128 43.9142 68.9613C43.8185 69.1067 43.9621 69.3006 44.0818 69.4217C44.1536 69.4944 44.2254 69.5429 44.2973 69.6156C44.6324 70.2457 45.6379 70.4638 46.3321 70.2214C46.9546 70.0033 47.2418 69.7368 47.3615 69.5187C47.4573 69.4217 47.5291 69.3006 47.6009 69.1794C47.6249 69.1309 47.6727 69.0582 47.6727 68.9855C47.6727 68.9128 47.6488 68.8401 47.6488 68.7674Z" fill="#9B9B9B"/>
<path d="M48.5585 72.4266C48.4388 72.7659 47.7685 74.0018 48.1276 75.2135C48.2473 75.6254 48.7261 75.9889 49.3964 75.8435C49.6598 75.7708 50.5695 74.9469 51.0483 74.8257C51.5031 74.7288 53.2268 73.9775 53.6337 73.7352C53.9928 73.5171 54.4237 73.3232 54.6871 72.984C54.9983 72.572 55.2856 71.8935 55.0941 71.3361C54.9504 70.9483 54.6392 70.7302 54.3759 70.8029C53.4183 71.0937 52.6762 71.021 52.0058 71.1664C51.4074 71.2876 51.2158 71.3845 50.6173 71.433C50.378 71.4572 49.2528 71.4088 49.2767 71.8208L48.5585 72.4266Z" fill="#1E160D"/>
<path d="M51.6465 46.6666C51.6226 46.5454 51.5986 46.4485 51.5747 46.3516C51.5747 46.3516 51.6465 46.4727 51.6465 46.6666Z" fill="#04385B"/>
<path d="M51.9579 72.1119C51.9101 71.8938 51.8143 71.6514 51.6467 71.5303C51.5988 71.4091 51.5749 71.3364 51.5749 71.3364V71.3122C51.6228 71.191 51.6467 71.0941 51.7185 70.9729C52.2452 69.9309 52.0058 59.9951 52.0058 59.9951C52.0058 59.9951 52.0058 59.9951 52.0058 59.9709C52.0776 59.6558 52.1495 59.365 52.1255 59.1712C52.0537 58.3957 51.9579 53.8398 51.9579 52.3615C51.9579 51.2225 51.9579 48.3872 51.6467 46.6182C51.6707 47.0786 51.3834 47.8783 49.3485 48.0964C46.9546 48.3387 46.4758 48.8961 46.5237 49.1385C46.8827 50.7621 46.6194 52.5554 46.8588 54.2033C47.0743 55.6573 46.9546 57.2809 47.2418 58.7592C47.2418 58.7834 47.2418 58.8077 47.2418 58.8077C47.3376 60.1405 47.5291 61.0614 47.2658 61.8853C46.404 64.6479 47.577 68.283 48.1755 70.9487C48.1755 71.191 48.1755 71.4576 48.1755 71.6999C48.1755 71.7969 48.1755 71.8938 48.2234 71.9907C48.2712 72.0877 48.367 72.1604 48.4628 72.1846C48.5346 72.3058 48.3431 72.3785 48.2712 72.4996C48.1755 72.645 48.3191 72.8389 48.4388 72.9601C48.6543 73.1539 48.8697 73.3478 49.1331 73.4932C49.6119 73.7598 50.0428 73.8567 50.5455 73.7113C51.0722 73.5659 51.6707 73.1782 51.9579 72.6935C51.9819 72.645 52.0298 72.5723 52.0298 72.4996C52.0298 72.4269 52.0298 72.3542 52.0058 72.2815C52.0058 72.3058 51.9819 72.2088 51.9579 72.1119Z" fill="#A5A5A5"/>
<path d="M51.647 46.6666C51.6231 46.5454 51.5991 46.4485 51.5752 46.3516C51.5752 46.3516 51.647 46.4727 51.647 46.6666Z" fill="#04385B"/>
<path d="M46.9309 38.4512C49.8516 37.7484 54.9746 35.6158 54.7113 34.5738C54.6155 34.1861 54.3761 32.9744 53.4186 33.0471C51.9104 33.1682 48.5349 34.8404 45.4706 35.4947C44.8003 35.6401 44.3933 36.2217 44.6567 37.2637C44.92 38.3058 44.8482 38.9601 46.9309 38.4512Z" fill="#04385B"/>
<path d="M53.4423 27.5219C53.6817 27.5946 55.1899 28.3216 56.2911 29.7514C57.0811 30.7935 57.0572 33.1684 57.0093 33.4592C56.9136 34.4527 53.3705 38.6451 52.0778 42.8375C50.8808 46.7392 53.155 50.0592 51.3356 50.7862C49.7796 51.392 48.2474 51.3435 47.5771 51.2466C45.3986 50.98 42.1907 50.1803 42.478 46.4968C42.8132 42.2075 44.5368 29.4364 47.0505 26.5041C47.4335 26.0679 48.0799 25.7771 48.6065 25.8256C50.4738 26.0437 53.1311 27.425 53.4423 27.5219Z" fill="#424242"/>
<path d="M53.4423 27.5219C53.6817 27.5946 55.1899 28.3216 56.2911 29.7514C57.0811 30.7935 57.0572 33.1684 57.0093 33.4592C56.9136 34.4527 53.3705 38.6451 52.0778 42.8375C50.8808 46.7392 53.155 50.0592 51.3356 50.7862C49.7796 51.392 48.2474 51.3435 47.5771 51.2466C45.3986 50.98 42.1907 50.1803 42.478 46.4968C42.8132 42.2075 44.5368 29.4364 47.0505 26.5041C47.4335 26.0679 48.0799 25.7771 48.6065 25.8256C50.4738 26.0437 53.1311 27.425 53.4423 27.5219Z" fill="#7A9E9F"/>
<path d="M61.7016 39.0086C63.5211 37.8212 64.7898 36.4156 65.8432 35.8583C66.298 35.6402 65.8671 34.9374 65.532 34.4043C65.125 33.7742 64.9574 33.7499 64.1914 34.2831C62.3959 35.5432 59.9062 36.0037 58.374 36.9972C55.9322 38.5724 57.0095 38.6694 57.5601 39.5418C58.1346 40.4384 59.2598 40.6081 61.7016 39.0086Z" fill="#04385B"/>
<path d="M56.866 19.7916C56.7463 20.3005 57.0096 21.0032 57.0336 21.5121C57.0575 21.8756 57.0575 21.9726 56.866 22.2634C56.5787 22.6996 56.5548 23.1358 56.5787 23.6205C56.6266 24.2021 56.3393 24.7837 56.076 25.2926C55.8605 25.7045 55.7169 26.2135 55.262 26.4073C54.1608 26.892 53.1314 26.2862 52.2217 25.753C51.312 25.2199 51.7908 23.4993 51.6472 22.6269C51.3599 21.0759 52.1499 19.0646 53.8735 18.7253C54.6396 18.5799 55.8605 18.6526 56.5308 19.0888C56.7702 19.2342 56.0999 19.3554 55.8126 19.5977L56.866 19.7916Z" fill="#FED8A7"/>
<path d="M54.4241 25.4862C54.4241 25.4862 53.3468 27.4733 53.658 28.1276C53.7777 28.3942 52.8441 28.7335 52.0541 28.6123C50.8092 28.3942 49.4925 27.4491 50.115 26.4797C50.4501 25.9708 51.1444 25.5104 51.1923 23.1597C51.1923 22.4327 54.4241 25.4862 54.4241 25.4862Z" fill="#FED8A7"/>
<path d="M52.1015 17.4165C53.8012 16.6653 55.8121 17.1984 56.5782 18.5313C57.0091 19.2825 56.8894 20.1307 56.8894 20.1307C57.0091 20.47 56.1951 20.2761 55.7642 21.4393C53.5857 27.4977 51.12 24.7108 51.0721 24.4685C50.6651 22.5541 50.0906 22.8691 49.9469 21.7301C49.7075 20.0338 49.7075 18.4828 52.1015 17.4165Z" fill="#683D1F"/>
<path d="M49.8754 21.2456C49.7318 19.7431 49.9472 18.3861 52.1018 17.441C53.8015 16.6897 55.8124 17.2228 56.5785 18.5557C56.7939 18.9192 56.8658 19.3069 56.8897 19.5977L56.8418 19.7916C56.2433 19.7674 55.7885 20.3247 55.3576 20.7852C54.6394 21.5849 53.6579 22.2634 52.5806 22.2634C52.2454 22.2634 51.9342 22.215 51.599 22.1423C51.0006 22.0211 50.3781 21.8272 49.9472 21.3668C49.9472 21.3183 49.9233 21.2699 49.8754 21.2456Z" fill="#5A2D0E"/>
<path d="M54.3759 23.6204C54.4956 24.202 54.5196 24.7351 54.759 24.6866C55.0223 24.6382 55.3575 24.1777 55.2617 23.5719C55.142 22.9903 55.142 22.4329 54.8787 22.3844C54.3999 22.3117 54.2562 23.0388 54.3759 23.6204Z" fill="#FED8A7"/>
<path d="M53.9931 34.6221C55.3816 37.6998 56.3152 38.96 57.991 40.2201C58.3501 40.4867 62.2283 39.7839 60.9356 38.3299C58.4459 35.5673 59.0683 34.2829 58.0389 32.4169C56.411 29.4604 55.3816 28.7334 54.4001 29.4119C53.251 30.2601 52.6046 31.5687 53.9931 34.6221Z" fill="#7A9E9F"/>
<path d="M64.215 23.4268C64.5741 23.6934 65.7232 27.3042 67.1356 29.049C67.7101 29.7518 66.3216 30.7454 65.8189 30.6C65.2922 30.4546 64.3107 28.007 62.8025 25.6563C62.1083 24.6143 62.5631 22.1425 64.215 23.4268Z" fill="#DCEEF9"/>
<path d="M65.6034 29.9216C65.5555 30.2124 65.7949 31.3513 65.9864 31.5452C66.154 31.7391 66.3216 32.0541 66.4652 32.2722C66.537 32.3934 66.6088 32.5146 66.6567 32.6115C66.7046 32.7084 66.6806 32.8296 66.8003 32.8538C66.92 32.8781 67.0158 32.7084 67.0158 32.5873C67.0158 32.4419 67.0158 32.2722 66.944 32.1511C66.8003 31.9329 66.6806 31.7633 66.7285 31.6421C66.7764 31.5452 66.944 31.7633 67.0397 31.836C67.2791 32.0541 67.4467 32.1995 67.5903 32.5146C67.6861 32.7327 67.8297 33.0477 67.9255 33.29C67.9734 33.4354 68.3325 33.7505 68.4282 33.5324C68.4761 33.4112 68.4043 33.3143 68.3564 33.2173C68.3325 33.1204 68.3085 32.9992 68.2846 32.9023C68.1888 32.66 68.0931 32.4419 67.9973 32.2238C67.9494 32.1268 67.7579 31.8845 67.8297 31.8602C67.8297 31.8602 68.3325 32.3934 68.4282 32.4661C68.4282 32.4661 68.5958 32.8538 68.7873 33.0962C68.7873 33.0962 68.8113 33.4112 69.0028 33.4597C69.1704 33.5081 69.1704 33.4112 69.1704 33.29C69.1704 33.1931 69.1464 33.0235 69.1225 32.9508C69.1704 33.0235 69.2182 33.1689 69.3858 33.2173C69.6492 33.29 69.5773 32.9508 69.5295 32.8538C69.4816 32.6842 69.314 32.2722 69.2901 32.1026C69.2182 31.7633 68.9549 31.5694 68.7634 31.3029C68.7155 31.2302 68.5958 31.1575 68.5958 31.1575C68.5958 31.1575 68.7394 31.2059 68.8352 31.2544C69.0267 31.3271 69.3858 32.0299 69.5773 31.5694C69.3858 31.3998 69.1464 30.9394 68.931 30.8424C68.8352 30.794 68.6916 30.6001 68.5479 30.5274C68.3804 30.4547 68.1888 30.2851 68.0213 30.1881C67.8537 30.0912 67.8776 30.067 67.734 29.97C67.5185 29.8246 67.0876 29.5338 66.6088 29.4611C66.154 29.3642 65.6512 29.6308 65.6273 29.9458L65.6034 29.9216Z" fill="#FED8A7"/>
<path d="M63.9756 20.6885H62.1083C61.9407 21.1004 61.6774 21.4882 61.4141 21.8032C61.7971 23.2088 62.3477 24.9051 62.8026 25.6564C63.2574 26.4076 63.9756 25.3656 64.2629 25.2686C64.7895 25.099 64.4304 22.8453 63.9756 20.6885Z" fill="#DCEEF9"/>
<path d="M74.3412 18.6283C74.054 17.5378 72.0191 12.061 73.5273 10.4131C73.1203 10.7766 72.8809 11.334 72.857 11.6732C72.6176 14.7024 71.7318 18.5313 71.7797 19.9854C71.8276 20.9305 73.3118 21.0759 73.6709 21.1243C73.9103 21.1486 74.1737 20.7851 74.437 20.1792C74.437 19.4037 74.3891 18.8464 74.3412 18.6283Z" fill="black"/>
<path d="M70.6068 30.236C70.7025 30.5268 70.7265 31.787 70.5589 32.0536C70.4152 32.2959 70.3195 32.6594 70.2237 32.926C70.1759 33.0714 70.128 33.2168 70.0801 33.3379C70.0562 33.4591 70.104 33.5803 69.9843 33.6287C69.8407 33.6772 69.7449 33.5076 69.6971 33.4106C69.6492 33.241 69.6252 33.0714 69.6731 32.926C69.7689 32.6594 69.8646 32.4413 69.7689 32.3444C69.6971 32.2474 69.5774 32.514 69.4816 32.6352C69.2662 32.926 69.1465 33.1198 69.0507 33.4833C69.0028 33.7499 68.9071 34.1134 68.8592 34.38C68.8352 34.5496 68.548 34.9616 68.3804 34.7435C68.3086 34.6223 68.3564 34.5011 68.3804 34.38C68.3804 34.2588 68.3804 34.1376 68.3804 34.0165C68.4283 33.7499 68.4761 33.4833 68.524 33.2168C68.548 33.0956 68.6916 32.8048 68.6198 32.8048C68.6198 32.8048 68.2128 33.5076 68.1171 33.5803C68.1171 33.5803 68.0213 34.0407 67.8777 34.3315C67.8777 34.3315 67.9255 34.6708 67.7101 34.7919C67.5425 34.8889 67.5186 34.7919 67.4946 34.6465C67.4707 34.5496 67.4467 34.3557 67.4707 34.2588C67.4467 34.3557 67.4228 34.5011 67.2552 34.5981C66.9919 34.7435 66.9919 34.3557 67.0158 34.2588C67.0398 34.0649 67.0876 33.5803 67.0876 33.3864C67.0876 33.0229 67.327 32.7321 67.4707 32.3928C67.5186 32.2959 67.6143 32.199 67.6143 32.199C67.6143 32.199 67.4707 32.2959 67.3749 32.3686C67.1834 32.4898 66.944 33.3137 66.6567 32.8775C66.8243 32.6352 66.968 32.1263 67.1834 31.9566C67.2792 31.8839 67.3749 31.6416 67.5186 31.5446C67.6861 31.4235 67.8537 31.2054 67.9974 31.06C68.1649 30.9388 68.1171 30.9146 68.2607 30.7692C68.4522 30.5753 68.8592 30.1633 69.338 29.9452C69.7928 29.7514 70.3913 29.8968 70.511 30.236H70.6068Z" fill="#FCCB95"/>
<path d="M74.413 19.1373C74.2694 19.1131 74.1258 19.0889 73.9582 19.0404C73.0006 18.7738 71.8515 19.4766 71.7318 20.1309C71.2291 22.4816 69.8166 26.2135 69.1703 28.4188C69.0027 29.0246 68.883 29.5093 68.8591 29.8243C68.7872 30.7694 70.5588 30.9875 70.87 30.624C71.3967 29.994 73.3597 26.5043 74.4849 23.1359C74.4609 21.4153 74.4609 19.937 74.413 19.1373Z" fill="black"/>
<path d="M69.5293 29.1939C69.9842 29.5089 70.6545 29.6786 71.0375 29.6301C71.4684 29.5574 71.636 29.412 71.636 29.412C71.636 29.412 71.6121 29.4847 71.4924 29.6543C71.3727 29.824 71.0615 30.6964 70.6545 30.8903C69.8645 31.2538 68.6196 30.5267 68.6915 30.0178C68.6915 30.0178 69.0027 28.8062 69.0984 28.5881C69.1224 28.5638 69.1942 28.9273 69.5293 29.1939Z" fill="#B4EEEF"/>
<path d="M67.4467 56.3602C67.303 56.3602 66.7524 56.336 66.8003 55.2212C66.8003 55.2212 67.8058 54.3488 68.117 53.9611C68.2127 53.8399 68.3085 53.7672 68.4282 53.646C68.5958 53.5006 68.8591 53.4279 69.0985 53.4037C69.314 53.3795 69.5055 53.2583 69.7209 53.2583C69.8885 53.2583 70.0561 53.3068 70.2237 53.3068C70.3673 53.3068 70.487 53.3068 70.6306 53.2583C70.7025 53.2583 70.7982 53.2583 70.87 53.2825C70.87 53.3552 70.87 53.4764 70.7982 53.5249C70.8461 53.5976 70.8461 53.5249 70.9419 53.5491C71.0137 53.5491 71.1334 53.5491 71.1094 53.6218C71.0855 53.8641 70.8461 53.9126 70.8461 53.9126C70.894 53.9126 70.9419 53.8884 70.9658 53.9126C70.9897 54.1549 70.8222 54.2761 70.7025 54.3246C70.5828 54.373 70.1758 54.47 70.0561 54.5184C69.8406 54.6154 69.6491 54.785 69.4815 54.9304C69.5773 54.8819 69.697 54.8577 69.8406 54.8092C70.1518 54.7123 70.2237 54.47 70.5109 54.6638C70.2476 55.3182 69.5534 55.3424 69.0027 55.6817C68.7394 56.1906 67.8536 56.3602 67.4467 56.3602Z" fill="#FCCB95"/>
<path d="M60.1689 77.831C60.1689 78.1218 60.7196 78.4126 60.7914 78.7034C60.8153 78.8003 60.935 78.873 61.0308 78.8488C61.1026 78.8245 61.1744 78.7518 61.1744 78.6791C61.1744 78.6064 61.1744 78.4853 61.1505 78.4126C61.0786 78.1945 61.0068 77.9279 60.5041 77.5644C60.6956 77.5644 61.0786 77.8794 61.2223 78.0248C61.342 78.146 61.4377 78.4126 61.5335 78.5337C61.5574 78.558 61.5814 78.5822 61.6293 78.5822C61.725 78.5822 61.749 78.461 61.725 78.3883C61.6532 77.9764 61.1983 77.6129 60.8153 77.4917C60.6238 77.5159 60.1689 77.5402 60.1689 77.5644V77.831Z" fill="white"/>
<path d="M61.5099 42.6923C63.4011 41.3594 66.6808 36.5612 67.2554 35.7615C67.4708 35.4464 66.0105 34.4528 65.8669 35.0587C65.6514 36.0523 63.042 37.7244 62.1562 39.0572C61.9168 39.4207 60.9353 39.6388 61.6296 40.3658L61.5099 42.6923Z" fill="#0D9599"/>
<path d="M60.9112 81.9506C60.983 82.5565 61.0548 82.6534 61.0787 82.7988C61.0787 82.7988 61.4618 83.2835 62.18 83.1865C62.8981 83.0896 63.4727 82.7503 63.5685 82.6049C63.8797 82.1445 65.5076 81.6113 65.9624 81.4417C66.4173 81.2963 66.8003 80.8359 66.92 80.5935C67.0876 80.2543 67.327 79.3819 66.8003 78.8972C66.4173 78.5579 65.6033 79.2849 64.5739 79.3819C61.9645 79.6242 60.7436 80.5935 60.9112 81.9506Z" fill="#1E160D"/>
<path d="M57.6077 79.9877C57.6795 80.5936 57.7513 80.6905 57.7753 80.8359C57.7753 80.8359 58.1583 81.3206 58.8765 81.2236C59.5947 81.1267 60.1692 80.7874 60.265 80.642C60.5762 80.1816 62.2041 79.6485 62.6589 79.4788C63.1138 79.3334 63.4968 78.873 63.6165 78.6306C63.7841 78.2914 64.0235 77.419 63.4968 76.9343C63.1138 76.595 62.2999 77.322 61.2705 77.419C58.685 77.6855 57.4401 78.6549 57.6077 79.9877Z" fill="#1E160D"/>
<path d="M56.6738 68.2585C56.8174 67.2649 55.0938 56.0932 55.0938 54.9785C55.0938 54.1545 60.6238 54.6877 60.7435 56.6748C60.7435 56.6748 59.8338 75.1166 60.4323 77.5399C60.4323 77.5399 60.5041 77.6611 60.5041 78.2912C60.5041 78.7274 60.1689 79.2121 59.6423 79.3332C58.9001 79.5271 58.1101 79.5029 57.9426 78.7274C57.3919 76.2313 56.2189 71.6269 56.6738 68.2585Z" fill="#2D2D2D"/>
<path d="M59.9535 70.1974C60.0972 69.2038 58.3735 58.8561 58.3735 57.7413C58.3735 56.9174 63.9036 56.6266 64.0233 58.6137C64.0233 58.6137 63.1136 77.0555 63.7121 79.4788C63.7121 79.4788 63.7839 79.6 63.7839 80.2301C63.7839 80.6663 63.4487 81.1509 62.9221 81.2721C62.1799 81.466 61.3899 81.4417 61.2223 80.6663C60.6717 78.1945 59.4987 73.5658 59.9535 70.1974Z" fill="#3D3D3D"/>
<path d="M55.5009 51.5374C56.3867 49.3079 63.2334 52.8702 63.5207 54.4696C63.8558 56.3841 63.9755 57.8139 63.9995 58.5894C63.9995 58.6136 63.9995 58.6378 63.9995 58.6378C64.0234 59.0498 63.9755 59.4375 63.9755 59.4375C62.4913 59.9464 60.1931 59.0498 59.6185 58.8075C56.8894 57.7169 56.5782 57.4261 55.8121 56.7234C54.5673 55.6086 54.9264 53.0156 55.5009 51.5374Z" fill="#3D3D3D"/>
<path d="M60.7436 36.4158C60.72 36.4876 60.7673 36.3439 60.7436 36.4158V36.4158Z" fill="#F89C22"/>
<path d="M55.5008 51.5376C55.6205 51.3195 55.836 50.7379 56.0275 50.2774C56.4584 49.2112 56.9851 48.1691 57.0329 47.7329C57.823 44.2433 57.2963 38.9119 58.6608 36.9732C58.8763 36.6824 59.2115 36.4885 59.5705 36.3916C59.7381 36.2947 60.4324 36.2704 60.7436 36.3916C60.6957 36.3916 60.6478 36.4158 60.5999 36.4158C61.9166 36.6824 63.6403 37.3852 64.8133 38.2576C65.0766 38.3545 65.34 38.6453 65.4597 38.7907C65.5794 38.9119 65.6991 39.0573 65.7948 39.1785C66.7524 40.4871 65.2921 43.4436 64.4782 45.3096C63.9275 46.6182 61.7251 48.6296 63.2094 52.725C63.5206 53.6217 63.353 53.9852 62.1321 54.5668C59.1636 56.045 55.4051 52.8462 55.5008 51.5376Z" fill="#13A5B2"/>
<path d="M63.9755 43.4679C64.1191 46.0851 64.167 49.5747 65.0767 49.5262C65.4119 49.502 66.6328 48.9931 66.561 48.1692C66.3934 46.2063 66.8004 44.4857 66.7046 42.8378C66.561 40.2206 65.9385 38.9846 65.0288 39.0331C64.1191 39.0816 63.8319 40.8506 63.9755 43.4679Z" fill="#20B6BA"/>
<path d="M64.4302 48.5567C64.4541 48.3143 64.6217 53.0157 66.872 55.8268C67.4466 56.5538 68.6196 55.3663 68.1647 54.9543C67.4226 54.2758 67.8296 52.5552 67.279 50.8589C66.9917 49.9865 67.1832 49.1141 66.5847 48.1689L64.4302 48.5567Z" fill="#20B6BA"/>
<path d="M66.537 36.0523C66.8003 36.0523 67.8297 35.6404 67.9733 35.4223C68.117 35.2284 68.3803 35.0345 68.5718 34.8649C68.6676 34.7922 68.7633 34.6953 68.8591 34.6226C68.9309 34.5741 69.0506 34.5499 69.0506 34.4529C69.0506 34.3318 68.883 34.2833 68.7873 34.2833C68.6436 34.3075 68.5 34.3318 68.3803 34.4287C68.2127 34.5983 68.0691 34.7437 67.9494 34.6953C67.8536 34.671 68.0212 34.4772 68.093 34.3802C68.2606 34.1137 68.3803 33.944 68.6436 33.7502C68.8352 33.629 69.0985 33.4351 69.29 33.3139C69.4097 33.2412 69.673 32.8535 69.4336 32.805C69.3139 32.7808 69.2421 32.8777 69.1464 32.902C69.0506 32.9504 68.9549 32.9747 68.8591 33.0231C68.6676 33.1443 68.4761 33.2655 68.2606 33.3866C68.1648 33.4351 67.9733 33.6532 67.9494 33.6047C67.9494 33.6047 68.3803 33.0474 68.4042 32.9504C68.4042 32.9504 68.7394 32.7323 68.9309 32.5142C68.9309 32.5142 69.2182 32.4415 69.2421 32.2477C69.2661 32.078 69.1703 32.078 69.0506 32.1023C68.9788 32.1265 68.7873 32.1507 68.7394 32.1992C68.8112 32.1507 68.907 32.078 68.9309 31.9084C68.9549 31.6661 68.6436 31.7872 68.5718 31.8115C68.4282 31.8842 68.0691 32.1023 67.9015 32.1507C67.6142 32.2719 67.4706 32.5627 67.2312 32.7808C67.1594 32.8535 67.1115 32.9747 67.1115 32.9747C67.1115 32.9747 67.1354 32.8293 67.1594 32.7323C67.1833 32.5385 67.7818 32.078 67.327 31.9811C67.2073 32.1992 66.8242 32.4658 66.7524 32.7081C66.7285 32.805 66.5609 32.9747 66.537 33.1201C66.4891 33.2897 66.3694 33.5078 66.3215 33.6774C66.2736 33.8471 66.2257 33.8229 66.1539 33.9925C66.0582 34.2106 65.9863 34.7437 65.9624 35.2042C65.9624 35.6404 66.13 36.0281 66.4412 36.0039L66.537 36.0523Z" fill="#FCCB95"/>
<path d="M65.8428 35.1072C65.8428 35.1072 66.1062 34.6952 66.6328 34.9133C67.1595 35.1072 67.351 35.5191 67.2553 35.7615C67.1595 36.0038 65.7949 36.6581 65.7471 36.6824L65.8428 35.1072Z" fill="#0D9599"/>
<path d="M65.5558 35.6158C65.5558 35.6158 65.7712 35.4219 66.274 35.6885C66.7767 35.9793 66.8006 36.2701 66.7767 36.4397C66.7767 36.4397 66.8006 36.5609 66.9921 36.2943C67.1837 36.0277 67.4231 35.7612 67.2315 35.3977C67.04 35.0342 66.6091 34.6464 65.9867 34.8403C65.7473 34.8888 65.3643 35.7612 65.5558 35.6158Z" fill="#13A5B2"/>
<path d="M65.2681 29.7517C65.2442 30.2363 65.6033 30.8664 65.723 31.3268C65.7948 31.6661 65.5554 32.9263 65.6751 33.3625C65.8187 33.8956 65.6512 34.4772 65.4836 35.0104C65.3639 35.4223 65.2681 35.8828 64.933 36.1736C64.5021 36.5371 62.8981 35.9797 61.9645 35.6404C61.0308 35.3012 61.2463 34.0895 60.9351 33.2898C60.4084 31.8842 60.7914 29.8971 62.3475 29.2912C63.0418 29.0247 64.1669 28.8793 64.8851 29.1458C65.1245 29.2428 64.5499 29.4609 64.3106 29.7517H65.2681Z" fill="#FFD8A5"/>
<path d="M63.8081 35.8097C63.8081 35.8097 63.2096 36.6821 63.4011 37.8453C63.449 38.1119 63.0899 38.742 62.3238 38.7662C61.1269 38.7904 59.7623 38.1361 60.1453 37.1425C60.3608 36.6094 60.9353 36.0763 60.5762 33.8952C60.4805 33.1925 63.8081 35.8097 63.8081 35.8097Z" fill="#FFD8A5"/>
<path d="M60.576 28.152C62.563 27.4493 63.8797 27.5462 64.8133 28.6367C65.34 29.2668 65.3639 30.0665 65.3639 30.0665C65.5315 30.3573 64.7415 30.3088 64.55 31.472C63.5685 37.4577 60.8154 35.3009 60.7197 35.0828C60.0015 33.3865 59.5466 33.7742 59.2115 32.7564C58.7087 31.2297 58.613 29.0002 60.576 28.152Z" fill="#3A0E00"/>
<path d="M64.2627 28.1519C64.2627 28.1519 66.2736 29.1697 65.4118 31.3265C64.55 33.4832 64.526 33.047 64.5021 33.6771C64.4781 34.3072 63.4248 32.2716 63.4248 32.1504L64.2627 28.1519Z" fill="#3A0E00"/>
<path d="M64.3105 33.9925C64.2866 33.7502 64.2866 33.4836 64.119 33.2898C63.9275 33.0716 63.6881 33.1686 63.5923 33.4594C63.5205 33.6533 63.5684 33.8956 63.5684 34.0895C63.5684 34.2591 63.7359 35.5192 64.3105 34.8165V33.9925Z" fill="#FFD8A5"/>
<path d="M63.3529 27.8368C63.9993 27.546 64.9569 28.1033 65.4835 28.4911C66.4651 29.1939 66.6087 30.8417 66.4651 31.9807C66.2496 33.5559 64.909 34.8645 63.7359 35.7369C63.7599 35.0826 64.6456 34.7191 64.3823 34.0406C64.2626 34.6706 63.7838 35.1068 63.4487 35.64C63.0417 36.3185 63.1135 36.9971 63.0656 37.7483C62.6587 36.9728 61.9405 34.8645 62.6108 34.1617L63.3529 27.8368Z" fill="#3A0E00"/>
<path d="M60.9829 33.8469C60.9111 34.8889 59.0678 35.204 58.3735 35.7613C57.3681 36.561 57.799 37.5546 58.1581 38.5482C58.6608 39.978 57.1526 40.9958 56.6978 42.2559C56.1232 43.8311 57.7511 45.2367 58.2778 46.5453C58.4693 47.0057 58.3496 47.7327 58.182 48.1447C58.996 47.4662 59.4987 46.9088 59.6663 46.0121C59.762 45.5032 59.5226 44.5824 59.4987 44.0492C59.4747 43.4676 59.4029 43.3222 59.8338 42.9829C60.2887 42.6437 60.7675 42.6437 61.2463 42.3529C61.9166 41.9409 62.156 41.3593 62.2278 40.608C62.3714 39.154 60.8632 38.0151 61.2942 36.5126C61.366 36.246 61.5575 36.0521 61.5814 35.7613C62.2039 35.4705 61.9884 34.0892 61.6293 33.6772L60.9829 33.8469Z" fill="#3A0E00"/>
<path d="M60.4086 34.7194C60.3846 34.5982 60.4086 34.4286 60.4086 34.3074C60.9592 34.2105 61.438 33.9924 61.9168 34.4286C62.2759 34.7679 62.2519 35.5191 61.6295 35.4706C61.5577 35.0102 61.5577 34.889 61.055 34.7921C60.8874 34.7679 60.624 34.7921 60.5283 34.6709C60.4086 34.4528 60.624 34.3074 60.8156 34.3801L60.4086 34.7194Z" fill="#032B42"/>
<path d="M67.8539 54.5183C67.8539 54.5183 67.9497 54.8818 67.3991 55.0999C66.8484 55.318 66.4654 55.1968 66.3697 55.0999C66.3697 55.0999 66.25 55.0272 66.3218 55.3665C66.3936 55.7057 66.5851 55.9481 66.9921 56.0208C67.3991 56.0935 67.9497 56.0208 68.2369 55.4392C68.4285 55.0272 67.8539 54.276 67.8539 54.5183Z" fill="#13A5B2"/>
<path d="M76.344 7.05398C76.4073 7.32584 76.4424 7.60033 76.449 7.87544C76.4627 8.00667 76.4585 8.13845 76.4364 8.26917C76.4048 8.36952 76.1935 8.39576 75.993 8.39244C75.9848 8.3923 75.9766 8.39323 75.9689 8.39521C75.9612 8.39719 75.9542 8.40015 75.9482 8.40395C75.9422 8.40774 75.9375 8.4123 75.9341 8.41734C75.9308 8.42237 75.929 8.42778 75.9288 8.43329C75.9288 8.44389 75.9347 8.45412 75.9452 8.46203C75.9558 8.46993 75.9703 8.47498 75.9861 8.47619C76.0974 8.48895 76.2111 8.48874 76.3223 8.47558C76.3864 8.46655 76.4459 8.44655 76.495 8.41757C76.5442 8.38859 76.5812 8.35162 76.6027 8.31021C76.6446 8.16592 76.66 8.01876 76.6488 7.87197C76.6336 7.58979 76.569 7.30978 76.4562 7.0377C76.452 7.02841 76.4428 7.02052 76.4303 7.0156C76.4178 7.01068 76.403 7.00907 76.3889 7.01113C76.3747 7.01318 76.3622 7.01874 76.3539 7.02669C76.3456 7.03463 76.3421 7.04437 76.344 7.05398Z" fill="#6A7E87"/>
</g>
<defs>
<linearGradient id="paint0_linear_5301_3" x1="78.7158" y1="7.21484" x2="78.7158" y2="13.2248" gradientUnits="userSpaceOnUse">
<stop stop-color="#617883"/>
<stop offset="1" stop-color="#A7B6BF"/>
</linearGradient>
<linearGradient id="paint1_linear_5301_3" x1="77.8152" y1="2.47607" x2="77.8152" y2="10.4987" gradientUnits="userSpaceOnUse">
<stop stop-color="#617883"/>
<stop offset="1" stop-color="#A7B6BF"/>
</linearGradient>
<linearGradient id="paint2_linear_5301_3" x1="82.4364" y1="5.92832" x2="75.7763" y2="2.36326" gradientUnits="userSpaceOnUse">
<stop stop-color="#231F20"/>
<stop offset="0.0896271" stop-color="#231F20"/>
<stop offset="1" stop-color="#231F20"/>
</linearGradient>
<linearGradient id="paint3_linear_5301_3" x1="80.4922" y1="6.4502" x2="80.4922" y2="8.48576" gradientUnits="userSpaceOnUse">
<stop stop-color="#617883"/>
<stop offset="1" stop-color="#A7B6BF"/>
</linearGradient>
<linearGradient id="paint4_linear_5301_3" x1="81.3272" y1="2.02333" x2="74.5698" y2="2.02333" gradientUnits="userSpaceOnUse">
<stop stop-color="#231F20"/>
<stop offset="0.0896271" stop-color="#231F20"/>
<stop offset="1" stop-color="#231F20"/>
</linearGradient>
<clipPath id="clip0_5301_3">
<rect width="64.7805" height="83" fill="white" transform="translate(36.1099 0.404785)"/>
</clipPath>
</defs>
</svg>
