<svg width="76" height="75" viewBox="0 0 76 75" fill="none" xmlns="http://www.w3.org/2000/svg">
<g opacity="0.1">
<path d="M51.1445 75C46.4053 75 41.7725 73.5947 37.832 70.9617C33.8915 68.3287 30.8202 64.5864 29.0066 60.2079C27.1929 55.8295 26.7185 51.0115 27.6431 46.3633C28.5676 41.7152 30.8498 37.4456 34.2009 34.0944C37.552 30.7433 41.8217 28.4612 46.4698 27.5366C51.118 26.612 55.9359 27.0866 60.3144 28.9002C64.6928 30.7138 68.4351 33.7851 71.0681 37.7256C73.7011 41.6661 75.1064 46.2989 75.1064 51.0381C75.1064 57.3932 72.5819 63.488 68.0882 67.9817C63.5944 72.4755 57.4996 75 51.1445 75ZM51.1445 38.3524C48.6355 38.3524 46.1829 39.0964 44.0967 40.4903C42.0106 41.8842 40.3846 43.8655 39.4244 46.1835C38.4643 48.5015 38.2131 51.0522 38.7025 53.513C39.192 55.9737 40.4003 58.2341 42.1744 60.0083C43.9485 61.7824 46.2088 62.9906 48.6696 63.4801C51.1304 63.9695 53.6811 63.7183 55.9992 62.7582C58.3172 61.798 60.2984 60.1721 61.6923 58.0859C63.0862 55.9998 63.8303 53.5471 63.8303 51.0381C63.8303 47.6736 62.4937 44.447 60.1147 42.0679C57.7356 39.6889 54.509 38.3524 51.1445 38.3524Z" fill="#7A9E9F"/>
<path d="M25.0684 48.9238C20.3291 48.9238 15.6963 47.5185 11.7558 44.8855C7.81532 42.2526 4.74401 38.5102 2.93039 34.1318C1.11677 29.7533 0.642321 24.9353 1.5669 20.2872C2.49147 15.639 4.77361 11.3694 8.12474 8.01828C11.4759 4.66714 15.7455 2.385 20.3936 1.46043C25.0418 0.535853 29.8597 1.01039 34.2382 2.82401C38.6167 4.63763 42.3589 7.70889 44.9919 11.6494C47.6249 15.5899 49.0303 20.2227 49.0303 24.9619C49.0303 31.317 46.5057 37.4118 42.012 41.9056C37.5183 46.3993 31.4235 48.9238 25.0684 48.9238ZM25.0684 12.2762C22.5594 12.2762 20.1067 13.0202 18.0206 14.4141C15.9344 15.8081 14.3084 17.7893 13.3483 20.1073C12.3881 22.4253 12.1369 24.976 12.6264 27.4368C13.1159 29.8976 14.3241 32.158 16.0982 33.9321C17.8724 35.7062 20.1327 36.9144 22.5934 37.4039C25.0542 37.8934 27.605 37.6422 29.923 36.682C32.241 35.7219 34.2222 34.0959 35.6161 32.0097C37.0101 29.9236 37.7541 27.4709 37.7541 24.9619C37.7541 21.5974 36.4175 18.3708 34.0385 15.9918C31.6595 13.6127 28.4328 12.2762 25.0684 12.2762Z" stroke="#2A3739" stroke-width="2" stroke-miterlimit="10"/>
</g>
</svg>
