<svg width="29" height="27" viewBox="0 0 29 27" fill="none" xmlns="http://www.w3.org/2000/svg">
<g opacity="0.1">
<path d="M8.99307 1.1747C10.7128 1.12484 12.4096 1.55547 13.8689 2.41215C15.3283 3.26884 16.4846 4.51309 17.1917 5.98755C17.8988 7.46202 18.1249 9.1005 17.8414 10.6958C17.558 12.291 16.7776 13.7715 15.5991 14.9498C14.4206 16.1282 12.8968 16.9516 11.2205 17.3159C9.54421 17.6801 7.79063 17.569 6.18154 16.9964C4.57244 16.4238 3.18011 15.4155 2.1806 14.099C1.18108 12.7826 0.619269 11.2171 0.566233 9.60048C0.495114 7.43268 1.34298 5.32709 2.92332 3.74695C4.50366 2.16681 6.68701 1.24155 8.99307 1.1747ZM9.40318 13.6757C10.3136 13.6493 11.1953 13.3697 11.9367 12.8722C12.6781 12.3748 13.2459 11.6819 13.5684 10.8811C13.8909 10.0803 13.9535 9.20755 13.7483 8.3733C13.5432 7.53904 13.0794 6.78071 12.4158 6.19419C11.7522 5.60768 10.9185 5.21933 10.0201 5.07825C9.12163 4.93717 8.19887 5.04969 7.36848 5.4016C6.5381 5.7535 5.83737 6.32898 5.35491 7.05526C4.87245 7.78153 4.62991 8.626 4.65799 9.48185C4.69564 10.6295 5.21674 11.7161 6.10663 12.5026C6.99653 13.2891 8.18233 13.711 9.40318 13.6757Z" fill="#7A9E9F"/>
<path d="M18.747 9.79506C20.4667 9.7452 22.1635 10.1758 23.6228 11.0325C25.0822 11.8892 26.2385 13.1334 26.9456 14.6079C27.6527 16.0824 27.8788 17.7209 27.5953 19.3161C27.3119 20.9114 26.5315 22.3918 25.353 23.5702C24.1745 24.7486 22.6507 25.5719 20.9744 25.9362C19.2981 26.3005 17.5445 26.1893 15.9354 25.6167C14.3263 25.0441 12.934 24.0359 11.9345 22.7194C10.935 21.4029 10.3732 19.8374 10.3201 18.2208C10.249 16.053 11.0969 13.9475 12.6772 12.3673C14.2576 10.7872 16.4409 9.86191 18.747 9.79506ZM19.1571 22.296C20.0675 22.2696 20.9492 21.99 21.6906 21.4926C22.432 20.9952 22.9998 20.3022 23.3223 19.5014C23.6448 18.7006 23.7074 17.8279 23.5022 16.9937C23.2971 16.1594 22.8333 15.4011 22.1697 14.8146C21.5061 14.228 20.6724 13.8397 19.774 13.6986C18.8755 13.5575 17.9528 13.6701 17.1224 14.022C16.292 14.3739 15.5913 14.9493 15.1088 15.6756C14.6264 16.4019 14.3838 17.2464 14.4119 18.1022C14.4495 19.2499 14.9706 20.3365 15.8605 21.123C16.7504 21.9094 17.9362 22.3314 19.1571 22.296Z" stroke="#2A3739" stroke-width="0.726079" stroke-miterlimit="10"/>
</g>
</svg>
