<svg width="38" height="40" viewBox="0 0 38 40" fill="none" xmlns="http://www.w3.org/2000/svg">
<g opacity="0.1">
<path opacity="0.5" d="M31.2665 6.14051C35.1284 9.77221 37.2979 14.6971 37.2979 19.8322C37.2979 24.9673 35.1284 29.8921 31.2665 33.5238L2.13672 6.14051C4.04932 4.34236 6.31999 2.91597 8.81905 1.9428C11.3181 0.969636 13.9966 0.46875 16.7016 0.46875C19.4066 0.46875 22.0851 0.969636 24.5842 1.9428C27.0832 2.91597 29.3539 4.34236 31.2665 6.14051Z" fill="#4F6367"/>
<path d="M30.4132 11.5676C34.2752 15.1993 36.4447 20.1242 36.4447 25.2593C36.4447 30.3944 34.2752 35.3193 30.4132 38.951L1.2981 11.563C5.16146 7.93743 10.3976 5.90148 15.8567 5.90234C21.3157 5.9032 26.5511 7.94081 30.4132 11.5676Z" stroke="#010101" stroke-width="0.975217" stroke-linecap="round" stroke-linejoin="round"/>
</g>
</svg>
