<svg width="94" height="100" viewBox="0 0 94 100" fill="none" xmlns="http://www.w3.org/2000/svg">
<g opacity="0.1">
<path d="M53.122 80.0453C54.1187 79.5692 54.5407 78.3753 54.0647 77.3786C53.5886 76.3818 52.3947 75.9598 51.398 76.4359C50.4013 76.9119 49.9792 78.1058 50.4553 79.1026C50.9313 80.0993 52.1253 80.5213 53.122 80.0453Z" fill="white"/>
<path d="M30.5608 41.395C30.9378 40.3283 32.0206 39.8111 33.0873 40.1882C34.154 40.5653 34.6712 41.6481 34.2941 42.7148C33.917 43.7815 32.8342 44.2987 31.7675 43.9216C30.744 43.6347 30.1837 42.4617 30.5608 41.395Z" fill="white"/>
<path d="M53.2781 19.3512L44.7937 43.3516L20.7032 34.9103L14.0571 53.7106L38.1005 62.2852L29.6162 86.2855L48.4164 92.9316L56.991 68.8881L80.9913 77.3725L87.6374 58.5722L63.6371 50.0879L72.0783 25.9973L53.2781 19.3512Z" fill="#7A9E9F"/>
<path d="M45.2981 7.98028L36.7235 32.0237L12.7231 23.5394L6.1202 42.4299L30.1205 50.9142L21.6362 74.9145L40.4795 81.6509L48.9208 57.5603L73.0544 66.0918L79.6574 47.2013L55.6571 38.7169L64.1414 14.7166L45.2981 7.98028Z" stroke="#2A3739" stroke-width="2" stroke-miterlimit="10" stroke-linecap="round" stroke-linejoin="round"/>
</g>
</svg>
