<svg width="147" height="120" viewBox="0 0 147 120" fill="none" xmlns="http://www.w3.org/2000/svg">
<path d="M4.19966 119.34C6.47942 119.34 8.32749 117.509 8.32749 115.249C8.32749 112.989 6.47942 111.158 4.19966 111.158C1.91991 111.158 0.0717773 112.989 0.0717773 115.249C0.0717773 117.509 1.91991 119.34 4.19966 119.34Z" fill="#7A9E9F"/>
<path d="M31.8388 119.34C34.1186 119.34 35.9666 117.509 35.9666 115.249C35.9666 112.989 34.1186 111.158 31.8388 111.158C29.5591 111.158 27.7109 112.989 27.7109 115.249C27.7109 117.509 29.5591 119.34 31.8388 119.34Z" fill="#7A9E9F"/>
<path d="M59.4589 119.34C61.7386 119.34 63.5868 117.509 63.5868 115.249C63.5868 112.989 61.7386 111.158 59.4589 111.158C57.1791 111.158 55.3311 112.989 55.3311 115.249C55.3311 117.509 57.1791 119.34 59.4589 119.34Z" fill="#7A9E9F"/>
<path d="M87.095 111.14C86.2733 111.136 85.469 111.374 84.7843 111.825C84.0995 112.275 83.5651 112.916 83.2489 113.668C82.9328 114.42 82.849 115.248 83.0084 116.047C83.1678 116.846 83.5632 117.58 84.1442 118.156C84.7252 118.732 85.4658 119.123 86.2719 119.281C87.078 119.439 87.9134 119.356 88.6718 119.043C89.4303 118.73 90.0777 118.2 90.5319 117.521C90.9861 116.843 91.2266 116.045 91.2229 115.231C91.2229 114.146 90.788 113.105 90.0139 112.338C89.2398 111.571 88.1898 111.14 87.095 111.14Z" fill="#7A9E9F"/>
<path d="M114.734 111.14C113.913 111.136 113.108 111.374 112.423 111.825C111.739 112.275 111.204 112.916 110.888 113.668C110.572 114.42 110.488 115.248 110.648 116.047C110.807 116.846 111.202 117.58 111.783 118.156C112.364 118.732 113.105 119.123 113.911 119.281C114.717 119.439 115.552 119.356 116.311 119.043C117.069 118.73 117.717 118.2 118.171 117.521C118.625 116.843 118.866 116.045 118.862 115.231C118.857 114.147 118.421 113.11 117.648 112.343C116.875 111.577 115.827 111.145 114.734 111.14Z" fill="#7A9E9F"/>
<path d="M142.353 119.34C144.633 119.34 146.481 117.509 146.481 115.249C146.481 112.989 144.633 111.158 142.353 111.158C140.074 111.158 138.226 112.989 138.226 115.249C138.226 117.509 140.074 119.34 142.353 119.34Z" fill="#7A9E9F"/>
<path d="M4.19966 97.2457C6.47942 97.2457 8.32749 95.414 8.32749 93.1544C8.32749 90.8948 6.47942 89.0631 4.19966 89.0631C1.91991 89.0631 0.0717773 90.8948 0.0717773 93.1544C0.0717773 95.414 1.91991 97.2457 4.19966 97.2457Z" fill="#7A9E9F"/>
<path d="M31.8388 97.2457C34.1186 97.2457 35.9666 95.414 35.9666 93.1544C35.9666 90.8948 34.1186 89.0631 31.8388 89.0631C29.5591 89.0631 27.7109 90.8948 27.7109 93.1544C27.7109 95.414 29.5591 97.2457 31.8388 97.2457Z" fill="#7A9E9F"/>
<path d="M59.4589 97.2457C61.7386 97.2457 63.5868 95.414 63.5868 93.1544C63.5868 90.8948 61.7386 89.0631 59.4589 89.0631C57.1791 89.0631 55.3311 90.8948 55.3311 93.1544C55.3311 95.414 57.1791 97.2457 59.4589 97.2457Z" fill="#7A9E9F"/>
<path d="M87.0937 89.0449C86.2773 89.0449 85.4792 89.2849 84.8004 89.7344C84.1216 90.184 83.5925 90.823 83.2801 91.5706C82.9676 92.3181 82.8859 93.1408 83.0451 93.9344C83.2044 94.7281 83.5976 95.4571 84.1749 96.0292C84.7522 96.6014 85.4877 96.9911 86.2884 97.1489C87.0891 97.3068 87.9191 97.2258 88.6733 96.9161C89.4276 96.6065 90.0723 96.0821 90.5259 95.4093C90.9795 94.7365 91.2215 93.9454 91.2215 93.1363C91.2215 92.0512 90.7867 91.0105 90.0125 90.2433C89.2384 89.476 88.1885 89.0449 87.0937 89.0449Z" fill="#7A9E9F"/>
<path d="M114.733 89.0449C113.916 89.0449 113.118 89.2849 112.44 89.7344C111.761 90.184 111.232 90.823 110.919 91.5706C110.607 92.3181 110.525 93.1408 110.684 93.9344C110.844 94.7281 111.237 95.4571 111.814 96.0292C112.391 96.6014 113.127 96.9911 113.928 97.1489C114.728 97.3068 115.558 97.2258 116.313 96.9161C117.067 96.6065 117.711 96.0821 118.165 95.4093C118.619 94.7365 118.861 93.9454 118.861 93.1363C118.856 92.0527 118.419 91.0149 117.646 90.2487C116.873 89.4824 115.826 89.0498 114.733 89.0449Z" fill="#7A9E9F"/>
<path d="M142.353 97.2457C144.633 97.2457 146.481 95.414 146.481 93.1544C146.481 90.8948 144.633 89.0631 142.353 89.0631C140.074 89.0631 138.226 90.8948 138.226 93.1544C138.226 95.414 140.074 97.2457 142.353 97.2457Z" fill="#7A9E9F"/>
<path d="M4.19964 66.9534C3.38323 66.9534 2.58517 67.1934 1.90634 67.643C1.22752 68.0925 0.69843 68.7315 0.386002 69.479C0.0735739 70.2266 -0.00818232 71.0493 0.151092 71.8429C0.310367 72.6366 0.703515 73.3656 1.28081 73.9377C1.8581 74.5099 2.59361 74.8996 3.39434 75.0574C4.19506 75.2153 5.02504 75.1343 5.77931 74.8246C6.53357 74.515 7.17827 73.9906 7.63184 73.3178C8.08542 72.645 8.3275 71.8539 8.3275 71.0447C8.32998 70.5068 8.22492 69.9736 8.01835 69.4761C7.81179 68.9787 7.50784 68.5267 7.12403 68.1462C6.74023 67.7658 6.28419 67.4646 5.78226 67.2598C5.28032 67.0551 4.74242 66.9509 4.19964 66.9534Z" fill="#7A9E9F"/>
<path d="M31.916 66.9534C31.0995 66.9534 30.3014 67.1934 29.6226 67.6429C28.9438 68.0925 28.4147 68.7314 28.1023 69.479C27.7899 70.2266 27.7081 71.0492 27.8674 71.8429C28.0267 72.6365 28.4198 73.3655 28.9971 73.9377C29.5744 74.5099 30.3099 74.8995 31.1106 75.0574C31.9114 75.2152 32.7413 75.1342 33.4956 74.8246C34.2499 74.5149 34.8946 73.9905 35.3482 73.3177C35.8017 72.6449 36.0438 71.8539 36.0438 71.0447C36.0438 69.9596 35.6089 68.919 34.8348 68.1517C34.0607 67.3844 33.0107 66.9534 31.916 66.9534Z" fill="#7A9E9F"/>
<path d="M59.4589 66.9534C58.6425 66.9534 57.8444 67.1934 57.1656 67.6429C56.4868 68.0925 55.9577 68.7314 55.6453 69.479C55.3328 70.2266 55.2511 71.0492 55.4104 71.8429C55.5697 72.6365 55.9628 73.3655 56.5401 73.9377C57.1174 74.5099 57.8529 74.8995 58.6536 75.0574C59.4543 75.2152 60.2843 75.1342 61.0386 74.8246C61.7928 74.5149 62.4375 73.9905 62.8911 73.3177C63.3447 72.6449 63.5868 71.8539 63.5868 71.0447C63.5868 69.9596 63.1519 68.919 62.3778 68.1517C61.6036 67.3844 60.5537 66.9534 59.4589 66.9534Z" fill="#7A9E9F"/>
<path d="M87.0937 66.9534C86.2773 66.9534 85.4792 67.1934 84.8004 67.643C84.1216 68.0925 83.5925 68.7315 83.2801 69.479C82.9676 70.2266 82.8859 71.0493 83.0451 71.8429C83.2044 72.6366 83.5976 73.3656 84.1749 73.9377C84.7522 74.5099 85.4877 74.8996 86.2884 75.0574C87.0891 75.2153 87.9191 75.1343 88.6733 74.8246C89.4276 74.515 90.0723 73.9906 90.5259 73.3178C90.9795 72.645 91.2215 71.8539 91.2215 71.0447C91.224 70.5068 91.1189 69.9736 90.9124 69.4761C90.7058 68.9787 90.4019 68.5267 90.0181 68.1462C89.6343 67.7658 89.1783 67.4646 88.6763 67.2598C88.1744 67.0551 87.6365 66.9509 87.0937 66.9534Z" fill="#7A9E9F"/>
<path d="M114.733 66.9534C113.916 66.9534 113.118 67.1934 112.44 67.6429C111.761 68.0925 111.232 68.7314 110.919 69.479C110.607 70.2266 110.525 71.0492 110.684 71.8429C110.844 72.6365 111.237 73.3655 111.814 73.9377C112.391 74.5099 113.127 74.8995 113.928 75.0574C114.728 75.2152 115.558 75.1342 116.313 74.8246C117.067 74.5149 117.711 73.9905 118.165 73.3177C118.619 72.6449 118.861 71.8539 118.861 71.0447C118.861 69.9596 118.426 68.919 117.652 68.1517C116.878 67.3844 115.828 66.9534 114.733 66.9534Z" fill="#7A9E9F"/>
<path d="M142.353 66.9534C141.538 66.9571 140.741 67.2002 140.065 67.652C139.389 68.1038 138.863 68.744 138.553 69.4919C138.243 70.2398 138.164 71.0619 138.326 71.8543C138.487 72.6467 138.882 73.3739 139.46 73.9443C140.038 74.5146 140.773 74.9024 141.574 75.0587C142.374 75.2151 143.203 75.133 143.956 74.8228C144.709 74.5126 145.353 73.9882 145.805 73.3158C146.258 72.6434 146.5 71.8531 146.5 71.0447C146.5 70.5059 146.392 69.9724 146.184 69.4748C145.975 68.9772 145.669 68.5253 145.284 68.1452C144.899 67.765 144.442 67.464 143.939 67.2595C143.436 67.055 142.897 66.951 142.353 66.9534Z" fill="#7A9E9F"/>
<path d="M4.19966 53.0414C6.47942 53.0414 8.32749 51.2097 8.32749 48.9501C8.32749 46.6905 6.47942 44.8588 4.19966 44.8588C1.91991 44.8588 0.0717773 46.6905 0.0717773 48.9501C0.0717773 51.2097 1.91991 53.0414 4.19966 53.0414Z" fill="#7A9E9F"/>
<path d="M31.8388 53.0414C34.1186 53.0414 35.9666 51.2097 35.9666 48.9501C35.9666 46.6905 34.1186 44.8588 31.8388 44.8588C29.5591 44.8588 27.7109 46.6905 27.7109 48.9501C27.7109 51.2097 29.5591 53.0414 31.8388 53.0414Z" fill="#7A9E9F"/>
<path d="M59.4589 53.0414C61.7386 53.0414 63.5868 51.2097 63.5868 48.9501C63.5868 46.6905 61.7386 44.8588 59.4589 44.8588C57.1791 44.8588 55.3311 46.6905 55.3311 48.9501C55.3311 51.2097 57.1791 53.0414 59.4589 53.0414Z" fill="#7A9E9F"/>
<path d="M87.0937 44.8588C86.2773 44.8588 85.4792 45.0988 84.8004 45.5484C84.1216 45.9979 83.5925 46.6369 83.2801 47.3845C82.9676 48.1321 82.8859 48.9547 83.0451 49.7483C83.2044 50.542 83.5976 51.271 84.1749 51.8431C84.7522 52.4153 85.4877 52.805 86.2884 52.9628C87.0891 53.1207 87.9191 53.0397 88.6733 52.73C89.4276 52.4204 90.0723 51.896 90.5259 51.2232C90.9795 50.5504 91.2215 49.7593 91.2215 48.9501C91.224 48.4122 91.1189 47.879 90.9124 47.3815C90.7058 46.884 90.4019 46.4321 90.0181 46.0516C89.6343 45.6712 89.1783 45.37 88.6763 45.1653C88.1744 44.9605 87.6365 44.8563 87.0937 44.8588Z" fill="#7A9E9F"/>
<path d="M114.733 44.8588C113.916 44.8588 113.118 45.0988 112.44 45.5483C111.761 45.9979 111.232 46.6369 110.919 47.3845C110.607 48.132 110.525 48.9546 110.684 49.7483C110.844 50.5419 111.237 51.2709 111.814 51.8431C112.391 52.4153 113.127 52.8049 113.928 52.9628C114.728 53.1206 115.558 53.0396 116.313 52.73C117.067 52.4203 117.711 51.8959 118.165 51.2231C118.619 50.5503 118.861 49.7593 118.861 48.9501C118.861 47.865 118.426 46.8244 117.652 46.0571C116.878 45.2898 115.828 44.8588 114.733 44.8588Z" fill="#7A9E9F"/>
<path d="M142.353 53.0414C144.633 53.0414 146.481 51.2097 146.481 48.9501C146.481 46.6905 144.633 44.8588 142.353 44.8588C140.074 44.8588 138.226 46.6905 138.226 48.9501C138.226 51.2097 140.074 53.0414 142.353 53.0414Z" fill="#7A9E9F"/>
<path d="M4.19966 30.9523C6.47942 30.9523 8.32749 29.1206 8.32749 26.861C8.32749 24.6014 6.47942 22.7697 4.19966 22.7697C1.91991 22.7697 0.0717773 24.6014 0.0717773 26.861C0.0717773 29.1206 1.91991 30.9523 4.19966 30.9523Z" fill="#7A9E9F"/>
<path d="M31.8388 30.9523C34.1186 30.9523 35.9666 29.1206 35.9666 26.861C35.9666 24.6014 34.1186 22.7697 31.8388 22.7697C29.5591 22.7697 27.7109 24.6014 27.7109 26.861C27.7109 29.1206 29.5591 30.9523 31.8388 30.9523Z" fill="#7A9E9F"/>
<path d="M59.4589 30.9523C61.7386 30.9523 63.5868 29.1206 63.5868 26.861C63.5868 24.6014 61.7386 22.7697 59.4589 22.7697C57.1791 22.7697 55.3311 24.6014 55.3311 26.861C55.3311 29.1206 57.1791 30.9523 59.4589 30.9523Z" fill="#7A9E9F"/>
<path d="M87.0951 22.7478C86.2742 22.7442 85.4706 22.9821 84.7862 23.4314C84.1019 23.8808 83.5675 24.5214 83.2507 25.2721C82.934 26.0227 82.8492 26.8496 83.0071 27.6481C83.165 28.4465 83.5584 29.1806 84.1375 29.7573C84.7167 30.3339 85.4555 30.7272 86.2604 30.8873C87.0653 31.0474 87.9 30.9671 88.6588 30.6566C89.4176 30.3461 90.0663 29.8193 90.5228 29.143C90.9792 28.4668 91.2229 27.6714 91.2229 26.8577C91.2254 26.3189 91.1204 25.7849 90.9141 25.2864C90.7078 24.7878 90.4041 24.3346 90.0205 23.9527C89.637 23.5708 89.1811 23.2678 88.6791 23.0611C88.177 22.8543 87.6387 22.7478 87.0951 22.7478Z" fill="#7A9E9F"/>
<path d="M114.734 22.7478C113.913 22.7442 113.11 22.9821 112.425 23.4314C111.741 23.8808 111.207 24.5214 110.89 25.2721C110.573 26.0227 110.488 26.8496 110.646 27.6481C110.804 28.4465 111.198 29.1806 111.777 29.7573C112.356 30.3339 113.095 30.7272 113.9 30.8873C114.704 31.0474 115.539 30.9671 116.298 30.6566C117.057 30.3461 117.705 29.8193 118.162 29.143C118.618 28.4668 118.862 27.6714 118.862 26.8577C118.862 25.7709 118.428 24.7284 117.654 23.9582C116.881 23.1879 115.831 22.7528 114.734 22.7478Z" fill="#7A9E9F"/>
<path d="M142.353 30.9523C144.633 30.9523 146.481 29.1206 146.481 26.861C146.481 24.6014 144.633 22.7697 142.353 22.7697C140.074 22.7697 138.226 24.6014 138.226 26.861C138.226 29.1206 140.074 30.9523 142.353 30.9523Z" fill="#7A9E9F"/>
<path d="M4.20054 0.656292C3.37962 0.65261 2.57609 0.890525 1.89172 1.33988C1.20735 1.78924 0.672932 2.42985 0.356205 3.1805C0.0394772 3.93116 -0.0453106 4.75806 0.112563 5.55653C0.270436 6.355 0.663859 7.08906 1.24302 7.66571C1.82218 8.24235 2.56101 8.63562 3.36588 8.79572C4.17076 8.95581 5.00546 8.87553 5.76425 8.56502C6.52304 8.2545 7.17177 7.72773 7.62824 7.05147C8.08472 6.3752 8.32838 5.57984 8.32839 4.76619C8.33086 4.22734 8.22593 3.69333 8.01959 3.1948C7.81325 2.69627 7.5096 2.24305 7.12604 1.86116C6.74249 1.47928 6.28659 1.17628 5.78455 0.969513C5.28251 0.762743 4.7442 0.656287 4.20054 0.656292Z" fill="#7A9E9F"/>
<path d="M31.9129 0.656292C31.092 0.65261 30.2885 0.890525 29.6041 1.33988C28.9197 1.78924 28.3853 2.42985 28.0686 3.1805C27.7519 3.93116 27.6671 4.75806 27.825 5.55653C27.9828 6.355 28.3763 7.08906 28.9554 7.66571C29.5346 8.24235 30.2734 8.63562 31.0783 8.79572C31.8832 8.95581 32.7179 8.87553 33.4767 8.56502C34.2354 8.2545 34.8842 7.72773 35.3406 7.05147C35.7971 6.3752 36.0408 5.57984 36.0408 4.76619C36.0408 3.67938 35.6065 2.63684 34.8329 1.86661C34.0593 1.09638 33.0094 0.66121 31.9129 0.656292Z" fill="#7A9E9F"/>
<path d="M59.4564 0.656292C58.6355 0.65261 57.832 0.890525 57.1476 1.33988C56.4632 1.78924 55.9288 2.42985 55.6121 3.1805C55.2953 3.93116 55.2105 4.75806 55.3684 5.55653C55.5263 6.355 55.9197 7.08906 56.4989 7.66571C57.0781 8.24235 57.8169 8.63562 58.6217 8.79572C59.4266 8.95581 60.2613 8.87553 61.0201 8.56502C61.7789 8.2545 62.4276 7.72773 62.8841 7.05147C63.3406 6.3752 63.5843 5.57984 63.5843 4.76619C63.5843 3.67938 63.15 2.63684 62.3764 1.86661C61.6028 1.09638 60.5529 0.66121 59.4564 0.656292Z" fill="#7A9E9F"/>
<path d="M87.0951 0.656292C86.2742 0.65261 85.4706 0.890525 84.7862 1.33988C84.1019 1.78924 83.5675 2.42985 83.2507 3.1805C82.934 3.93116 82.8492 4.75806 83.0071 5.55653C83.165 6.355 83.5584 7.08906 84.1375 7.66571C84.7167 8.24235 85.4555 8.63562 86.2604 8.79572C87.0653 8.95581 87.9 8.87553 88.6588 8.56502C89.4176 8.2545 90.0663 7.72773 90.5228 7.05147C90.9792 6.3752 91.2229 5.57984 91.2229 4.76619C91.2254 4.22734 91.1204 3.69333 90.9141 3.1948C90.7078 2.69627 90.4041 2.24305 90.0205 1.86116C89.637 1.47928 89.1811 1.17628 88.6791 0.969513C88.177 0.762743 87.6387 0.656287 87.0951 0.656292Z" fill="#7A9E9F"/>
<path d="M114.734 0.656292C113.913 0.65261 113.11 0.890525 112.425 1.33988C111.741 1.78924 111.207 2.42985 110.89 3.1805C110.573 3.93116 110.488 4.75806 110.646 5.55653C110.804 6.355 111.198 7.08906 111.777 7.66571C112.356 8.24235 113.095 8.63562 113.9 8.79572C114.704 8.95581 115.539 8.87553 116.298 8.56502C117.057 8.2545 117.705 7.72773 118.162 7.05147C118.618 6.3752 118.862 5.57984 118.862 4.76619C118.862 3.67938 118.428 2.63684 117.654 1.86661C116.881 1.09638 115.831 0.66121 114.734 0.656292Z" fill="#7A9E9F"/>
<path d="M142.353 0.65625C141.533 0.65625 140.731 0.89732 140.049 1.34892C139.368 1.80053 138.836 2.44241 138.522 3.1934C138.208 3.94439 138.126 4.77071 138.286 5.56795C138.446 6.3652 138.841 7.09752 139.421 7.6723C140.001 8.24708 140.74 8.63851 141.544 8.79709C142.349 8.95568 143.182 8.87428 143.94 8.56321C144.698 8.25214 145.345 7.72537 145.801 7.04949C146.257 6.37362 146.5 5.57901 146.5 4.76614C146.5 3.67613 146.063 2.6308 145.285 1.86004C144.508 1.08928 143.453 0.65625 142.353 0.65625Z" fill="#7A9E9F"/>
</svg>
