<svg width="77" height="78" viewBox="0 0 77 78" fill="none" xmlns="http://www.w3.org/2000/svg">
<g opacity="0.1">
<path d="M24.0151 2.40279C28.752 2.2567 33.4259 3.51853 37.4458 6.02878C41.4656 8.53903 44.6508 12.1849 46.5985 16.5054C48.5462 20.8259 49.169 25.6269 48.3881 30.3014C47.6072 34.9758 45.4578 39.3137 42.2116 42.7666C38.9653 46.2194 34.7681 48.6321 30.1506 49.6995C25.5332 50.7669 20.7029 50.4411 16.2706 48.7633C11.8384 47.0856 8.00317 44.1311 5.24999 40.2736C2.4968 36.4161 0.94927 31.8289 0.803182 27.0919C0.607283 20.7399 2.94276 14.5701 7.29583 9.93999C11.6489 5.30987 17.663 2.59869 24.0151 2.40279ZM25.1447 39.033C27.6525 38.9557 30.0811 38.1364 32.1233 36.6788C34.1655 35.2212 35.7296 33.1908 36.6179 30.8443C37.5061 28.4978 37.6786 25.9406 37.1135 23.4961C36.5484 21.0515 35.271 18.8295 33.4431 17.1109C31.6151 15.3923 29.3186 14.2543 26.8439 13.8409C24.3692 13.4275 21.8274 13.7573 19.5401 14.7884C17.2528 15.8196 15.3226 17.5058 13.9937 19.634C12.6647 21.7621 11.9967 24.2365 12.074 26.7443C12.1777 30.1072 13.6131 33.2911 16.0643 35.5957C18.5156 37.9003 21.7819 39.1367 25.1447 39.033Z" fill="#7A9E9F"/>
<path d="M50.8827 27.6623C55.6197 27.5162 60.2936 28.778 64.3134 31.2883C68.3332 33.7985 71.5184 37.4444 73.4662 41.7649C75.4139 46.0854 76.0366 50.8864 75.2558 55.5609C74.4749 60.2353 72.3255 64.5733 69.0792 68.0261C65.833 71.4789 61.6358 73.8916 57.0183 74.959C52.4009 76.0265 47.5706 75.7007 43.1383 74.0229C38.706 72.3451 34.8708 69.3906 32.1177 65.5331C29.3645 61.6757 27.8169 57.0884 27.6709 52.3515C27.475 45.9994 29.8104 39.8296 34.1635 35.1995C38.5166 30.5694 44.5307 27.8582 50.8827 27.6623ZM52.0124 64.2925C54.5202 64.2152 56.9488 63.3959 58.991 61.9383C61.0332 60.4808 62.5973 58.4503 63.4856 56.1038C64.3738 53.7573 64.5463 51.2001 63.9812 48.7556C63.4161 46.3111 62.1387 44.089 60.3107 42.3704C58.4828 40.6518 56.1863 39.5139 53.7116 39.1005C51.2369 38.6871 48.6951 39.0168 46.4078 40.0479C44.1205 41.0791 42.1903 42.7654 40.8614 44.8935C39.5324 47.0216 38.8643 49.4961 38.9417 52.0039C39.0454 55.3667 40.4808 58.5507 42.932 60.8552C45.3832 63.1598 48.6496 64.3962 52.0124 64.2925Z" stroke="#2A3739" stroke-width="2" stroke-miterlimit="10"/>
</g>
</svg>
